<svg width="1731px" height="487px"
 viewBox="0.00 0.00 1730.76 486.50" xmlns="http://www.w3.org/2000/svg" xmlns:xlink="http://www.w3.org/1999/xlink">
<g id="graph0" class="graph" transform="scale(1.0 1.0) rotate(0.0) translate(4.0 482.5)">
<title>Operation Structure</title>
<polygon fill="white" stroke="none" points="-4,4 -4,-482.5 1726.76,-482.5 1726.76,4 -4,4"/>
<!-- Lid polishing -->
<g id="node1" class="node">
<title>Lid polishing</title>
<polygon fill="lightcoral" stroke="black" points="1260.14,-478.5 1171.39,-478.5 1171.39,-442.5 1260.14,-442.5 1260.14,-478.5"/>
<text text-anchor="middle" x="1215.77" y="-455.45" font-family="Times New Roman,serif" font-size="14.00">Lid polishing</text>
</g>
<!-- Pro 20 lid -->
<g id="node2" class="node">
<title>Pro 20 lid</title>
<ellipse fill="lightgreen" stroke="black" cx="1094.77" cy="-372" rx="47.77" ry="18"/>
<text text-anchor="middle" x="1094.77" y="-366.95" font-family="Times New Roman,serif" font-size="14.00">Pro 20 lid</text>
</g>
<!-- Lid polishing&#45;&#45;Pro 20 lid -->
<g id="edge1" class="edge">
<title>Lid polishing&#45;&#45;Pro 20 lid</title>
<path fill="none" stroke="black" d="M1191.57,-442.2C1169.5,-426.43 1137.2,-403.34 1116.09,-388.24"/>
<text text-anchor="middle" x="1179.98" y="-411.2" font-family="Times New Roman,serif" font-size="14.00">1unit</text>
</g>
<!-- Lid handle screw -->
<g id="node3" class="node">
<title>Lid handle screw</title>
<polygon fill="lightcoral" stroke="black" points="1270.64,-390 1160.89,-390 1160.89,-354 1270.64,-354 1270.64,-390"/>
<text text-anchor="middle" x="1215.77" y="-366.95" font-family="Times New Roman,serif" font-size="14.00">Lid handle screw</text>
</g>
<!-- Lid polishing&#45;&#45;Lid handle screw -->
<g id="edge2" class="edge">
<title>Lid polishing&#45;&#45;Lid handle screw</title>
<path fill="none" stroke="black" d="M1215.77,-442.41C1215.77,-427.34 1215.77,-405.49 1215.77,-390.35"/>
<text text-anchor="middle" x="1219.14" y="-411.2" font-family="Times New Roman,serif" font-size="14.00">1</text>
</g>
<!-- 200 mm lid with handle -->
<g id="node4" class="node">
<title>200 mm lid with handle</title>
<ellipse fill="lightblue" stroke="black" cx="1621.77" cy="-283.5" rx="101" ry="18"/>
<text text-anchor="middle" x="1621.77" y="-278.45" font-family="Times New Roman,serif" font-size="14.00">200 mm lid with handle</text>
</g>
<!-- Lid polishing&#45;&#45;200 mm lid with handle -->
<g id="edge3" class="edge">
<title>Lid polishing&#45;&#45;200 mm lid with handle</title>
<path fill="none" stroke="black" d="M1256.18,-442.08C1335,-408.1 1508.22,-333.44 1584.47,-300.57"/>
<text text-anchor="middle" x="1473" y="-366.95" font-family="Times New Roman,serif" font-size="14.00">1unit</text>
</g>
<!-- Lid handle screw&#45;&#45;200 mm lid with handle -->
<g id="edge4" class="edge">
<title>Lid handle screw&#45;&#45;200 mm lid with handle</title>
<path fill="none" stroke="black" d="M1270.94,-359.24C1345.96,-343.26 1479.8,-314.75 1558.7,-297.94"/>
<text text-anchor="middle" x="1469.01" y="-322.7" font-family="Times New Roman,serif" font-size="14.00">1unit</text>
</g>
<!-- Lid finishing -->
<g id="node5" class="node">
<title>Lid finishing</title>
<polygon fill="lightcoral" stroke="black" points="895.02,-301.5 808.52,-301.5 808.52,-265.5 895.02,-265.5 895.02,-301.5"/>
<text text-anchor="middle" x="851.77" y="-278.45" font-family="Times New Roman,serif" font-size="14.00">Lid finishing</text>
</g>
<!-- Lid handle screw&#45;&#45;Lid finishing -->
<g id="edge5" class="edge">
<title>Lid handle screw&#45;&#45;Lid finishing</title>
<path fill="none" stroke="black" d="M1160.4,-355.64C1157.49,-355.04 1154.6,-354.48 1151.77,-354 1051.68,-336.9 1019.43,-370.73 924.02,-336 903.61,-328.57 883.76,-313.7 870.05,-301.84"/>
<text text-anchor="middle" x="927.39" y="-322.7" font-family="Times New Roman,serif" font-size="14.00">1</text>
</g>
<!-- 200 mm lid polished -->
<g id="node6" class="node">
<title>200 mm lid polished</title>
<ellipse fill="lightblue" stroke="black" cx="958.77" cy="-195" rx="88.71" ry="18"/>
<text text-anchor="middle" x="958.77" y="-189.95" font-family="Times New Roman,serif" font-size="14.00">200 mm lid polished</text>
</g>
<!-- Lid handle screw&#45;&#45;200 mm lid polished -->
<g id="edge6" class="edge">
<title>Lid handle screw&#45;&#45;200 mm lid polished</title>
<path fill="none" stroke="black" d="M1160.58,-356.35C1083.78,-335.96 954.02,-301.5 954.02,-301.5 934.45,-276.07 943.86,-236.11 951.77,-213.36"/>
<text text-anchor="middle" x="967.89" y="-278.45" font-family="Times New Roman,serif" font-size="14.00">1unit</text>
</g>
<!-- Screw M6 35 mm -->
<g id="node13" class="node">
<title>Screw M6 35 mm</title>
<polygon fill="lightyellow" stroke="black" points="1174.57,-283.5 1128.67,-301.5 1036.87,-301.5 990.97,-283.5 1036.87,-265.5 1128.67,-265.5 1174.57,-283.5"/>
<text text-anchor="middle" x="1082.77" y="-278.45" font-family="Times New Roman,serif" font-size="14.00">Screw M6 35 mm</text>
</g>
<!-- Lid handle screw&#45;&#45;Screw M6 35 mm -->
<g id="edge7" class="edge">
<title>Lid handle screw&#45;&#45;Screw M6 35 mm</title>
<path fill="none" stroke="black" d="M1189.17,-353.7C1165.97,-338.62 1132.5,-316.84 1109.32,-301.77"/>
<text text-anchor="middle" x="1175.05" y="-322.7" font-family="Times New Roman,serif" font-size="14.00">3unit</text>
</g>
<!-- Stainless steel handle model R11 -->
<g id="node14" class="node">
<title>Stainless steel handle model R11</title>
<polygon fill="lightyellow" stroke="black" points="1502.8,-283.5 1425.28,-301.5 1270.25,-301.5 1192.73,-283.5 1270.25,-265.5 1425.28,-265.5 1502.8,-283.5"/>
<text text-anchor="middle" x="1347.77" y="-278.45" font-family="Times New Roman,serif" font-size="14.00">Stainless steel handle model R11</text>
</g>
<!-- Lid handle screw&#45;&#45;Stainless steel handle model R11 -->
<g id="edge8" class="edge">
<title>Lid handle screw&#45;&#45;Stainless steel handle model R11</title>
<path fill="none" stroke="black" d="M1242.16,-353.7C1265.18,-338.62 1298.41,-316.84 1321.42,-301.77"/>
<text text-anchor="middle" x="1307.46" y="-322.7" font-family="Times New Roman,serif" font-size="14.00">1unit</text>
</g>
<!-- Lid finishing&#45;&#45;200 mm lid polished -->
<g id="edge9" class="edge">
<title>Lid finishing&#45;&#45;200 mm lid polished</title>
<path fill="none" stroke="black" d="M867.04,-265.27C876.79,-254.76 890.01,-241.39 903.02,-231 911.32,-224.36 920.95,-217.93 929.84,-212.43"/>
<text text-anchor="middle" x="916.89" y="-234.2" font-family="Times New Roman,serif" font-size="14.00">1unit</text>
</g>
<!-- Lid pressing -->
<g id="node7" class="node">
<title>Lid pressing</title>
<polygon fill="lightcoral" stroke="black" points="633.52,-213 550.02,-213 550.02,-177 633.52,-177 633.52,-213"/>
<text text-anchor="middle" x="591.77" y="-189.95" font-family="Times New Roman,serif" font-size="14.00">Lid pressing</text>
</g>
<!-- Lid finishing&#45;&#45;Lid pressing -->
<g id="edge10" class="edge">
<title>Lid finishing&#45;&#45;Lid pressing</title>
<path fill="none" stroke="black" d="M808.25,-268.02C759.68,-251.86 681.62,-225.89 633.7,-209.95"/>
<text text-anchor="middle" x="748.43" y="-234.2" font-family="Times New Roman,serif" font-size="14.00">1</text>
</g>
<!-- 200 mm lid pressed -->
<g id="node8" class="node">
<title>200 mm lid pressed</title>
<ellipse fill="lightblue" stroke="black" cx="851.77" cy="-106.5" rx="85.13" ry="18"/>
<text text-anchor="middle" x="851.77" y="-101.45" font-family="Times New Roman,serif" font-size="14.00">200 mm lid pressed</text>
</g>
<!-- Lid finishing&#45;&#45;200 mm lid pressed -->
<g id="edge11" class="edge">
<title>Lid finishing&#45;&#45;200 mm lid pressed</title>
<path fill="none" stroke="black" d="M845.68,-265.05C841.17,-251.15 835.41,-231.09 833.02,-213 830.91,-197.14 830.91,-192.86 833.02,-177 835.41,-158.91 841.17,-138.85 845.68,-124.95"/>
<text text-anchor="middle" x="846.89" y="-189.95" font-family="Times New Roman,serif" font-size="14.00">1unit</text>
</g>
<!-- Lid pressing&#45;&#45;200 mm lid pressed -->
<g id="edge12" class="edge">
<title>Lid pressing&#45;&#45;200 mm lid pressed</title>
<path fill="none" stroke="black" d="M633.83,-180.01C681.54,-164.13 759.02,-138.36 807.59,-122.2"/>
<text text-anchor="middle" x="758.93" y="-145.7" font-family="Times New Roman,serif" font-size="14.00">1unit</text>
</g>
<!-- Disc cutting -->
<g id="node9" class="node">
<title>Disc cutting</title>
<polygon fill="lightcoral" stroke="black" points="487.77,-124.5 405.77,-124.5 405.77,-88.5 487.77,-88.5 487.77,-124.5"/>
<text text-anchor="middle" x="446.77" y="-101.45" font-family="Times New Roman,serif" font-size="14.00">Disc cutting</text>
</g>
<!-- Lid pressing&#45;&#45;Disc cutting -->
<g id="edge13" class="edge">
<title>Lid pressing&#45;&#45;Disc cutting</title>
<path fill="none" stroke="black" d="M549.6,-191.58C523.01,-187.98 489.55,-179.36 467.02,-159 457.18,-150.11 452.06,-135.84 449.44,-124.57"/>
<text text-anchor="middle" x="470.39" y="-145.7" font-family="Times New Roman,serif" font-size="14.00">1</text>
</g>
<!-- Lid pressing&#45;&#45;Disc cutting -->
<g id="edge14" class="edge">
<title>Lid pressing&#45;&#45;Disc cutting</title>
<path fill="none" stroke="black" d="M549.61,-180.96C534.34,-175.33 517.34,-167.95 503.02,-159 487.75,-149.46 472.82,-135.52 462.19,-124.55"/>
<text text-anchor="middle" x="506.39" y="-145.7" font-family="Times New Roman,serif" font-size="14.00">1</text>
</g>
<!-- 250 mm 1 mm stailess steel disc -->
<g id="node10" class="node">
<title>250 mm 1 mm stailess steel disc</title>
<ellipse fill="lightblue" stroke="black" cx="523.77" cy="-18" rx="133.75" ry="18"/>
<text text-anchor="middle" x="523.77" y="-12.95" font-family="Times New Roman,serif" font-size="14.00">250 mm 1 mm stailess steel disc</text>
</g>
<!-- Lid pressing&#45;&#45;250 mm 1 mm stailess steel disc -->
<g id="edge15" class="edge">
<title>Lid pressing&#45;&#45;250 mm 1 mm stailess steel disc</title>
<path fill="none" stroke="black" d="M571.75,-176.7C558.29,-163.79 541.52,-144.92 533.02,-124.5 520.86,-95.31 520.86,-57.72 522.17,-36.19"/>
<text text-anchor="middle" x="546.89" y="-101.45" font-family="Times New Roman,serif" font-size="14.00">1unit</text>
</g>
<!-- Coo lube 2210XP -->
<g id="node12" class="node">
<title>Coo lube 2210XP</title>
<polygon fill="lightyellow" stroke="black" points="748.2,-106.5 703.48,-124.5 614.05,-124.5 569.33,-106.5 614.05,-88.5 703.48,-88.5 748.2,-106.5"/>
<text text-anchor="middle" x="658.77" y="-101.45" font-family="Times New Roman,serif" font-size="14.00">Coo lube 2210XP</text>
</g>
<!-- Lid pressing&#45;&#45;Coo lube 2210XP -->
<g id="edge16" class="edge">
<title>Lid pressing&#45;&#45;Coo lube 2210XP</title>
<path fill="none" stroke="black" d="M605,-176.91C616.67,-161.84 633.6,-139.99 645.33,-124.85"/>
<text text-anchor="middle" x="642.14" y="-145.7" font-family="Times New Roman,serif" font-size="14.00">5ml</text>
</g>
<!-- Disc cutting&#45;&#45;250 mm 1 mm stailess steel disc -->
<g id="edge17" class="edge">
<title>Disc cutting&#45;&#45;250 mm 1 mm stailess steel disc</title>
<path fill="none" stroke="black" d="M456.8,-88.41C463.34,-77.95 472.41,-64.59 482.02,-54 487.74,-47.69 494.59,-41.5 501.08,-36.11"/>
<text text-anchor="middle" x="495.89" y="-57.2" font-family="Times New Roman,serif" font-size="14.00">1unit</text>
</g>
<!-- 300x300 mm 1 mm stainless steel sheet -->
<g id="node11" class="node">
<title>300x300 mm 1 mm stainless steel sheet</title>
<polygon fill="lightyellow" stroke="black" points="371.53,-18 278.65,-36 92.88,-36 0,-18 92.88,0 278.65,0 371.53,-18"/>
<text text-anchor="middle" x="185.77" y="-12.95" font-family="Times New Roman,serif" font-size="14.00">300x300 mm 1 mm stainless steel sheet</text>
</g>
<!-- Disc cutting&#45;&#45;300x300 mm 1 mm stainless steel sheet -->
<g id="edge18" class="edge">
<title>Disc cutting&#45;&#45;300x300 mm 1 mm stainless steel sheet</title>
<path fill="none" stroke="black" d="M405.41,-91.79C360.13,-76.79 287.43,-52.69 238.19,-36.37"/>
<text text-anchor="middle" x="353.52" y="-57.2" font-family="Times New Roman,serif" font-size="14.00">1unit</text>
</g>
</g>
</svg>
