<svg width="1081px" height="575px"
 viewBox="0.00 0.00 1081.19 575.00" xmlns="http://www.w3.org/2000/svg" xmlns:xlink="http://www.w3.org/1999/xlink">
<g id="graph0" class="graph" transform="scale(1.0 1.0) rotate(0.0) translate(4.0 571.0)">
<title>Operation Structure</title>
<polygon fill="white" stroke="none" points="-4,4 -4,-571 1077.19,-571 1077.19,4 -4,4"/>
<!-- varnish bench -->
<g id="node1" class="node">
<title>varnish bench</title>
<polygon fill="lightcoral" stroke="black" points="371.68,-567 279.93,-567 279.93,-531 371.68,-531 371.68,-567"/>
<text text-anchor="middle" x="325.8" y="-543.95" font-family="Times New Roman,serif" font-size="14.00">varnish bench</text>
</g>
<!-- finished bench -->
<g id="node2" class="node">
<title>finished bench</title>
<ellipse fill="lightgreen" stroke="black" cx="191.8" cy="-460.5" rx="65.17" ry="18"/>
<text text-anchor="middle" x="191.8" y="-455.45" font-family="Times New Roman,serif" font-size="14.00">finished bench</text>
</g>
<!-- varnish bench&#45;&#45;finished bench -->
<g id="edge1" class="edge">
<title>varnish bench&#45;&#45;finished bench</title>
<path fill="none" stroke="black" d="M299.01,-530.7C275.02,-515.22 240.14,-492.7 216.74,-477.6"/>
<text text-anchor="middle" x="274.18" y="-499.7" font-family="Times New Roman,serif" font-size="14.00">1</text>
</g>
<!-- assemble bench -->
<g id="node3" class="node">
<title>assemble bench</title>
<polygon fill="lightcoral" stroke="black" points="376.93,-478.5 274.68,-478.5 274.68,-442.5 376.93,-442.5 376.93,-478.5"/>
<text text-anchor="middle" x="325.8" y="-455.45" font-family="Times New Roman,serif" font-size="14.00">assemble bench</text>
</g>
<!-- varnish bench&#45;&#45;assemble bench -->
<g id="edge2" class="edge">
<title>varnish bench&#45;&#45;assemble bench</title>
<path fill="none" stroke="black" d="M325.8,-530.91C325.8,-515.84 325.8,-493.99 325.8,-478.85"/>
<text text-anchor="middle" x="329.18" y="-499.7" font-family="Times New Roman,serif" font-size="14.00">1</text>
</g>
<!-- varnish -->
<g id="node26" class="node">
<title>varnish</title>
<polygon fill="lightyellow" stroke="black" points="482.73,-460.5 460.77,-478.5 416.84,-478.5 394.87,-460.5 416.84,-442.5 460.77,-442.5 482.73,-460.5"/>
<text text-anchor="middle" x="438.8" y="-455.45" font-family="Times New Roman,serif" font-size="14.00">varnish</text>
</g>
<!-- varnish bench&#45;&#45;varnish -->
<g id="edge3" class="edge">
<title>varnish bench&#45;&#45;varnish</title>
<path fill="none" stroke="black" d="M348.4,-530.7C368.23,-515.52 396.92,-493.56 416.63,-478.47"/>
<text text-anchor="middle" x="407.8" y="-499.7" font-family="Times New Roman,serif" font-size="14.00">0,125</text>
</g>
<!-- raw bench -->
<g id="node4" class="node">
<title>raw bench</title>
<ellipse fill="lightblue" stroke="black" cx="208.8" cy="-372" rx="49.3" ry="18"/>
<text text-anchor="middle" x="208.8" y="-366.95" font-family="Times New Roman,serif" font-size="14.00">raw bench</text>
</g>
<!-- assemble bench&#45;&#45;raw bench -->
<g id="edge4" class="edge">
<title>assemble bench&#45;&#45;raw bench</title>
<path fill="none" stroke="black" d="M302.4,-442.2C281.2,-426.53 250.23,-403.63 229.8,-388.52"/>
<text text-anchor="middle" x="281.15" y="-411.2" font-family="Times New Roman,serif" font-size="14.00">1</text>
</g>
<!-- fix nut M16 21 -->
<g id="node5" class="node">
<title>fix nut M16 21</title>
<polygon fill="lightcoral" stroke="black" points="375.43,-390 276.18,-390 276.18,-354 375.43,-354 375.43,-390"/>
<text text-anchor="middle" x="325.8" y="-366.95" font-family="Times New Roman,serif" font-size="14.00">fix nut M16 21</text>
</g>
<!-- assemble bench&#45;&#45;fix nut M16 21 -->
<g id="edge5" class="edge">
<title>assemble bench&#45;&#45;fix nut M16 21</title>
<path fill="none" stroke="black" d="M325.8,-442.41C325.8,-427.34 325.8,-405.49 325.8,-390.35"/>
<text text-anchor="middle" x="329.18" y="-411.2" font-family="Times New Roman,serif" font-size="14.00">1</text>
</g>
<!-- fix bolt M16 22 -->
<g id="node16" class="node">
<title>fix bolt M16 22</title>
<polygon fill="lightcoral" stroke="black" points="670.3,-390 567.3,-390 567.3,-354 670.3,-354 670.3,-390"/>
<text text-anchor="middle" x="618.8" y="-366.95" font-family="Times New Roman,serif" font-size="14.00">fix bolt M16 22</text>
</g>
<!-- assemble bench&#45;&#45;fix bolt M16 22 -->
<g id="edge6" class="edge">
<title>assemble bench&#45;&#45;fix bolt M16 22</title>
<path fill="none" stroke="black" d="M377.17,-444.33C430.51,-428.59 513.49,-404.09 566.99,-388.29"/>
<text text-anchor="middle" x="501.92" y="-411.2" font-family="Times New Roman,serif" font-size="14.00">4</text>
</g>
<!-- bench seat wnut -->
<g id="node6" class="node">
<title>bench seat wnut</title>
<ellipse fill="lightblue" stroke="black" cx="70.8" cy="-283.5" rx="70.8" ry="18"/>
<text text-anchor="middle" x="70.8" y="-278.45" font-family="Times New Roman,serif" font-size="14.00">bench seat wnut</text>
</g>
<!-- fix nut M16 21&#45;&#45;bench seat wnut -->
<g id="edge7" class="edge">
<title>fix nut M16 21&#45;&#45;bench seat wnut</title>
<path fill="none" stroke="black" d="M275.72,-354.01C227.86,-337.78 156.57,-313.59 111.93,-298.45"/>
<text text-anchor="middle" x="224.51" y="-322.7" font-family="Times New Roman,serif" font-size="14.00">1</text>
</g>
<!-- drill bench seat -->
<g id="node7" class="node">
<title>drill bench seat</title>
<polygon fill="lightcoral" stroke="black" points="258.43,-301.5 159.18,-301.5 159.18,-265.5 258.43,-265.5 258.43,-301.5"/>
<text text-anchor="middle" x="208.8" y="-278.45" font-family="Times New Roman,serif" font-size="14.00">drill bench seat</text>
</g>
<!-- fix nut M16 21&#45;&#45;drill bench seat -->
<g id="edge8" class="edge">
<title>fix nut M16 21&#45;&#45;drill bench seat</title>
<path fill="none" stroke="black" d="M302.4,-353.7C282,-338.62 252.55,-316.84 232.16,-301.77"/>
<text text-anchor="middle" x="281.15" y="-322.7" font-family="Times New Roman,serif" font-size="14.00">1</text>
</g>
<!-- nut M16 -->
<g id="node14" class="node">
<title>nut M16</title>
<polygon fill="lightyellow" stroke="black" points="375.64,-283.5 350.72,-301.5 300.88,-301.5 275.96,-283.5 300.88,-265.5 350.72,-265.5 375.64,-283.5"/>
<text text-anchor="middle" x="325.8" y="-278.45" font-family="Times New Roman,serif" font-size="14.00">nut M16</text>
</g>
<!-- fix nut M16 21&#45;&#45;nut M16 -->
<g id="edge9" class="edge">
<title>fix nut M16 21&#45;&#45;nut M16</title>
<path fill="none" stroke="black" d="M325.8,-353.91C325.8,-338.84 325.8,-316.99 325.8,-301.85"/>
<text text-anchor="middle" x="329.18" y="-322.7" font-family="Times New Roman,serif" font-size="14.00">4</text>
</g>
<!-- bolt M6 -->
<g id="node15" class="node">
<title>bolt M6</title>
<polygon fill="lightyellow" stroke="black" points="488.28,-283.5 464.54,-301.5 417.06,-301.5 393.32,-283.5 417.06,-265.5 464.54,-265.5 488.28,-283.5"/>
<text text-anchor="middle" x="440.8" y="-278.45" font-family="Times New Roman,serif" font-size="14.00">bolt M6</text>
</g>
<!-- fix nut M16 21&#45;&#45;bolt M6 -->
<g id="edge10" class="edge">
<title>fix nut M16 21&#45;&#45;bolt M6</title>
<path fill="none" stroke="black" d="M348.8,-353.7C368.85,-338.62 397.8,-316.84 417.84,-301.77"/>
<text text-anchor="middle" x="400.35" y="-322.7" font-family="Times New Roman,serif" font-size="14.00">12</text>
</g>
<!-- bench seat wholes -->
<g id="node8" class="node">
<title>bench seat wholes</title>
<ellipse fill="lightblue" stroke="black" cx="163.8" cy="-195" rx="78.48" ry="18"/>
<text text-anchor="middle" x="163.8" y="-189.95" font-family="Times New Roman,serif" font-size="14.00">bench seat wholes</text>
</g>
<!-- drill bench seat&#45;&#45;bench seat wholes -->
<g id="edge11" class="edge">
<title>drill bench seat&#45;&#45;bench seat wholes</title>
<path fill="none" stroke="black" d="M199.91,-265.41C192.07,-250.34 180.7,-228.49 172.83,-213.35"/>
<text text-anchor="middle" x="193.71" y="-234.2" font-family="Times New Roman,serif" font-size="14.00">1</text>
</g>
<!-- polish bench seat -->
<g id="node9" class="node">
<title>polish bench seat</title>
<polygon fill="lightcoral" stroke="black" points="369.68,-213 259.93,-213 259.93,-177 369.68,-177 369.68,-213"/>
<text text-anchor="middle" x="314.8" y="-189.95" font-family="Times New Roman,serif" font-size="14.00">polish bench seat</text>
</g>
<!-- drill bench seat&#45;&#45;polish bench seat -->
<g id="edge12" class="edge">
<title>drill bench seat&#45;&#45;polish bench seat</title>
<path fill="none" stroke="black" d="M230,-265.2C248.48,-250.12 275.16,-228.34 293.64,-213.27"/>
<text text-anchor="middle" x="274.67" y="-234.2" font-family="Times New Roman,serif" font-size="14.00">1</text>
</g>
<!-- polished bench seat -->
<g id="node10" class="node">
<title>polished bench seat</title>
<ellipse fill="lightblue" stroke="black" cx="269.8" cy="-106.5" rx="83.6" ry="18"/>
<text text-anchor="middle" x="269.8" y="-101.45" font-family="Times New Roman,serif" font-size="14.00">polished bench seat</text>
</g>
<!-- polish bench seat&#45;&#45;polished bench seat -->
<g id="edge13" class="edge">
<title>polish bench seat&#45;&#45;polished bench seat</title>
<path fill="none" stroke="black" d="M305.91,-176.91C298.07,-161.84 286.7,-139.99 278.83,-124.85"/>
<text text-anchor="middle" x="299.71" y="-145.7" font-family="Times New Roman,serif" font-size="14.00">1</text>
</g>
<!-- cut bench seat -->
<g id="node11" class="node">
<title>cut bench seat</title>
<polygon fill="lightcoral" stroke="black" points="464.43,-124.5 371.18,-124.5 371.18,-88.5 464.43,-88.5 464.43,-124.5"/>
<text text-anchor="middle" x="417.8" y="-101.45" font-family="Times New Roman,serif" font-size="14.00">cut bench seat</text>
</g>
<!-- polish bench seat&#45;&#45;cut bench seat -->
<g id="edge14" class="edge">
<title>polish bench seat&#45;&#45;cut bench seat</title>
<path fill="none" stroke="black" d="M335.15,-176.91C353.09,-161.84 379.11,-139.99 397.14,-124.85"/>
<text text-anchor="middle" x="378.9" y="-145.7" font-family="Times New Roman,serif" font-size="14.00">1</text>
</g>
<!-- raw bench seat -->
<g id="node12" class="node">
<title>raw bench seat</title>
<ellipse fill="lightblue" stroke="black" cx="330.8" cy="-18" rx="66.19" ry="18"/>
<text text-anchor="middle" x="330.8" y="-12.95" font-family="Times New Roman,serif" font-size="14.00">raw bench seat</text>
</g>
<!-- cut bench seat&#45;&#45;raw bench seat -->
<g id="edge15" class="edge">
<title>cut bench seat&#45;&#45;raw bench seat</title>
<path fill="none" stroke="black" d="M400.61,-88.41C385.26,-73.15 362.91,-50.92 347.66,-35.76"/>
<text text-anchor="middle" x="385.47" y="-57.2" font-family="Times New Roman,serif" font-size="14.00">1</text>
</g>
<!-- wood 3cm -->
<g id="node13" class="node">
<title>wood 3cm</title>
<polygon fill="lightyellow" stroke="black" points="530.91,-18 501.86,-36 443.74,-36 414.69,-18 443.74,0 501.86,0 530.91,-18"/>
<text text-anchor="middle" x="472.8" y="-12.95" font-family="Times New Roman,serif" font-size="14.00">wood 3cm</text>
</g>
<!-- cut bench seat&#45;&#45;wood 3cm -->
<g id="edge16" class="edge">
<title>cut bench seat&#45;&#45;wood 3cm</title>
<path fill="none" stroke="black" d="M428.67,-88.41C438.25,-73.34 452.14,-51.49 461.77,-36.35"/>
<text text-anchor="middle" x="468.98" y="-57.2" font-family="Times New Roman,serif" font-size="14.00">0,0576</text>
</g>
<!-- bench leg wbolt -->
<g id="node17" class="node">
<title>bench leg wbolt</title>
<ellipse fill="lightblue" stroke="black" cx="576.8" cy="-283.5" rx="70.29" ry="18"/>
<text text-anchor="middle" x="576.8" y="-278.45" font-family="Times New Roman,serif" font-size="14.00">bench leg wbolt</text>
</g>
<!-- fix bolt M16 22&#45;&#45;bench leg wbolt -->
<g id="edge17" class="edge">
<title>fix bolt M16 22&#45;&#45;bench leg wbolt</title>
<path fill="none" stroke="black" d="M610.5,-353.91C603.19,-338.84 592.58,-316.99 585.22,-301.85"/>
<text text-anchor="middle" x="604.94" y="-322.7" font-family="Times New Roman,serif" font-size="14.00">1</text>
</g>
<!-- drill bench leg -->
<g id="node18" class="node">
<title>drill bench leg</title>
<polygon fill="lightcoral" stroke="black" points="760.18,-301.5 665.43,-301.5 665.43,-265.5 760.18,-265.5 760.18,-301.5"/>
<text text-anchor="middle" x="712.8" y="-278.45" font-family="Times New Roman,serif" font-size="14.00">drill bench leg</text>
</g>
<!-- fix bolt M16 22&#45;&#45;drill bench leg -->
<g id="edge18" class="edge">
<title>fix bolt M16 22&#45;&#45;drill bench leg</title>
<path fill="none" stroke="black" d="M637.37,-353.91C653.74,-338.84 677.49,-316.99 693.95,-301.85"/>
<text text-anchor="middle" x="677.59" y="-322.7" font-family="Times New Roman,serif" font-size="14.00">1</text>
</g>
<!-- threaded rod M16 -->
<g id="node25" class="node">
<title>threaded rod M16</title>
<polygon fill="lightyellow" stroke="black" points="957.83,-283.5 912.81,-301.5 822.79,-301.5 777.77,-283.5 822.79,-265.5 912.81,-265.5 957.83,-283.5"/>
<text text-anchor="middle" x="867.8" y="-278.45" font-family="Times New Roman,serif" font-size="14.00">threaded rod M16</text>
</g>
<!-- fix bolt M16 22&#45;&#45;threaded rod M16 -->
<g id="edge19" class="edge">
<title>fix bolt M16 22&#45;&#45;threaded rod M16</title>
<path fill="none" stroke="black" d="M668.89,-353.6C713.06,-338.26 776.96,-316.06 820.32,-300.99"/>
<text text-anchor="middle" x="768.98" y="-322.7" font-family="Times New Roman,serif" font-size="14.00">1</text>
</g>
<!-- bench leg &#160;whole -->
<g id="node19" class="node">
<title>bench leg &#160;whole</title>
<ellipse fill="lightblue" stroke="black" cx="668.8" cy="-195" rx="74.38" ry="18"/>
<text text-anchor="middle" x="668.8" y="-189.95" font-family="Times New Roman,serif" font-size="14.00">bench leg &#160;whole</text>
</g>
<!-- drill bench leg&#45;&#45;bench leg &#160;whole -->
<g id="edge20" class="edge">
<title>drill bench leg&#45;&#45;bench leg &#160;whole</title>
<path fill="none" stroke="black" d="M704.11,-265.41C696.44,-250.34 685.33,-228.49 677.63,-213.35"/>
<text text-anchor="middle" x="698.12" y="-234.2" font-family="Times New Roman,serif" font-size="14.00">1</text>
</g>
<!-- polish bench leg -->
<g id="node20" class="node">
<title>polish bench leg</title>
<polygon fill="lightcoral" stroke="black" points="866.43,-213 761.18,-213 761.18,-177 866.43,-177 866.43,-213"/>
<text text-anchor="middle" x="813.8" y="-189.95" font-family="Times New Roman,serif" font-size="14.00">polish bench leg</text>
</g>
<!-- drill bench leg&#45;&#45;polish bench leg -->
<g id="edge21" class="edge">
<title>drill bench leg&#45;&#45;polish bench leg</title>
<path fill="none" stroke="black" d="M732.75,-265.41C750.35,-250.34 775.86,-228.49 793.54,-213.35"/>
<text text-anchor="middle" x="775.72" y="-234.2" font-family="Times New Roman,serif" font-size="14.00">1</text>
</g>
<!-- polished bench leg -->
<g id="node21" class="node">
<title>polished bench leg</title>
<ellipse fill="lightblue" stroke="black" cx="770.8" cy="-106.5" rx="80.52" ry="18"/>
<text text-anchor="middle" x="770.8" y="-101.45" font-family="Times New Roman,serif" font-size="14.00">polished bench leg</text>
</g>
<!-- polish bench leg&#45;&#45;polished bench leg -->
<g id="edge22" class="edge">
<title>polish bench leg&#45;&#45;polished bench leg</title>
<path fill="none" stroke="black" d="M805.3,-176.91C797.82,-161.84 786.95,-139.99 779.43,-124.85"/>
<text text-anchor="middle" x="799.53" y="-145.7" font-family="Times New Roman,serif" font-size="14.00">1</text>
</g>
<!-- cut bench leg -->
<g id="node22" class="node">
<title>cut bench leg</title>
<polygon fill="lightcoral" stroke="black" points="958.18,-124.5 869.43,-124.5 869.43,-88.5 958.18,-88.5 958.18,-124.5"/>
<text text-anchor="middle" x="913.8" y="-101.45" font-family="Times New Roman,serif" font-size="14.00">cut bench leg</text>
</g>
<!-- polish bench leg&#45;&#45;cut bench leg -->
<g id="edge23" class="edge">
<title>polish bench leg&#45;&#45;cut bench leg</title>
<path fill="none" stroke="black" d="M833.56,-176.91C850.97,-161.84 876.23,-139.99 893.74,-124.85"/>
<text text-anchor="middle" x="876.13" y="-145.7" font-family="Times New Roman,serif" font-size="14.00">1</text>
</g>
<!-- raw bench leg -->
<g id="node23" class="node">
<title>raw bench leg</title>
<ellipse fill="lightblue" stroke="black" cx="832.8" cy="-18" rx="63.12" ry="18"/>
<text text-anchor="middle" x="832.8" y="-12.95" font-family="Times New Roman,serif" font-size="14.00">raw bench leg</text>
</g>
<!-- cut bench leg&#45;&#45;raw bench leg -->
<g id="edge24" class="edge">
<title>cut bench leg&#45;&#45;raw bench leg</title>
<path fill="none" stroke="black" d="M897.8,-88.41C883.5,-73.15 862.69,-50.92 848.49,-35.76"/>
<text text-anchor="middle" x="883.93" y="-57.2" font-family="Times New Roman,serif" font-size="14.00">1</text>
</g>
<!-- wood pole 4cm -->
<g id="node24" class="node">
<title>wood pole 4cm</title>
<polygon fill="lightyellow" stroke="black" points="1073.19,-18 1033.49,-36 954.11,-36 914.41,-18 954.11,0 1033.49,0 1073.19,-18"/>
<text text-anchor="middle" x="993.8" y="-12.95" font-family="Times New Roman,serif" font-size="14.00">wood pole 4cm</text>
</g>
<!-- cut bench leg&#45;&#45;wood pole 4cm -->
<g id="edge25" class="edge">
<title>cut bench leg&#45;&#45;wood pole 4cm</title>
<path fill="none" stroke="black" d="M929.61,-88.41C943.54,-73.34 963.75,-51.49 977.75,-36.35"/>
<text text-anchor="middle" x="979.72" y="-57.2" font-family="Times New Roman,serif" font-size="14.00">23.000</text>
</g>
</g>
</svg>
