<svg width="864px" height="487px"
 viewBox="0.00 0.00 863.80 486.50" xmlns="http://www.w3.org/2000/svg" xmlns:xlink="http://www.w3.org/1999/xlink">
<g id="graph0" class="graph" transform="scale(1.0 1.0) rotate(0.0) translate(4.0 482.5)">
<title>Product Structure Graph</title>
<polygon fill="white" stroke="none" points="-4,4 -4,-482.5 859.8,-482.5 859.8,4 -4,4"/>
<!-- Pro 20 lid -->
<g id="node1" class="node">
<title>Pro 20 lid</title>
<ellipse fill="lightgreen" stroke="black" cx="397.77" cy="-460.5" rx="47.77" ry="18"/>
<text text-anchor="middle" x="397.77" y="-455.45" font-family="Times New Roman,serif" font-size="14.00">Pro 20 lid</text>
</g>
<!-- 200 mm lid with handle -->
<g id="node2" class="node">
<title>200 mm lid with handle</title>
<ellipse fill="lightblue" stroke="black" cx="397.77" cy="-372" rx="101" ry="18"/>
<text text-anchor="middle" x="397.77" y="-366.95" font-family="Times New Roman,serif" font-size="14.00">200 mm lid with handle</text>
</g>
<!-- Pro 20 lid&#45;&#45;200 mm lid with handle -->
<g id="edge1" class="edge">
<title>Pro 20 lid&#45;&#45;200 mm lid with handle</title>
<path fill="none" stroke="black" d="M383.71,-443.12C379.78,-437.57 376.04,-431.1 374.02,-424.5 371.86,-417.49 371.86,-415.01 374.02,-408 375.96,-401.68 379.47,-395.48 383.21,-390.1"/>
<text text-anchor="middle" x="387.89" y="-411.2" font-family="Times New Roman,serif" font-size="14.00">1unit</text>
</g>
<!-- Pro 20 lid&#45;&#45;200 mm lid with handle -->
<g id="edge2" class="edge">
<title>Pro 20 lid&#45;&#45;200 mm lid with handle</title>
<path fill="none" stroke="black" d="M400.15,-442.09C400.81,-436.48 401.44,-430.24 401.77,-424.5 402.18,-417.18 402.18,-415.32 401.77,-408 401.44,-402.26 400.81,-396.02 400.15,-390.41"/>
<text text-anchor="middle" x="415.95" y="-411.2" font-family="Times New Roman,serif" font-size="14.00">1unit</text>
</g>
<!-- 200 mm lid polished -->
<g id="node3" class="node">
<title>200 mm lid polished</title>
<ellipse fill="lightblue" stroke="black" cx="236.77" cy="-283.5" rx="88.71" ry="18"/>
<text text-anchor="middle" x="236.77" y="-278.45" font-family="Times New Roman,serif" font-size="14.00">200 mm lid polished</text>
</g>
<!-- 200 mm lid with handle&#45;&#45;200 mm lid polished -->
<g id="edge3" class="edge">
<title>200 mm lid with handle&#45;&#45;200 mm lid polished</title>
<path fill="none" stroke="black" d="M353.65,-355.4C339.71,-349.9 324.45,-343.25 311.02,-336 292.38,-325.94 272.75,-312.17 258.36,-301.4"/>
<text text-anchor="middle" x="324.89" y="-322.7" font-family="Times New Roman,serif" font-size="14.00">1unit</text>
</g>
<!-- 200 mm lid with handle&#45;&#45;200 mm lid polished -->
<g id="edge4" class="edge">
<title>200 mm lid with handle&#45;&#45;200 mm lid polished</title>
<path fill="none" stroke="black" d="M381.58,-353.76C370.43,-342.71 354.78,-328.75 338.77,-319.5 323.61,-310.74 305.92,-303.71 289.57,-298.32"/>
<text text-anchor="middle" x="375.4" y="-322.7" font-family="Times New Roman,serif" font-size="14.00">1unit</text>
</g>
<!-- Screw M6 35 mm -->
<g id="node8" class="node">
<title>Screw M6 35 mm</title>
<polygon fill="lightyellow" stroke="black" points="527.57,-283.5 481.67,-301.5 389.87,-301.5 343.97,-283.5 389.87,-265.5 481.67,-265.5 527.57,-283.5"/>
<text text-anchor="middle" x="435.77" y="-278.45" font-family="Times New Roman,serif" font-size="14.00">Screw M6 35 mm</text>
</g>
<!-- 200 mm lid with handle&#45;&#45;Screw M6 35 mm -->
<g id="edge5" class="edge">
<title>200 mm lid with handle&#45;&#45;Screw M6 35 mm</title>
<path fill="none" stroke="black" d="M405.27,-353.91C411.89,-338.84 421.49,-316.99 428.14,-301.85"/>
<text text-anchor="middle" x="434.04" y="-322.7" font-family="Times New Roman,serif" font-size="14.00">3unit</text>
</g>
<!-- Stainless steel handle model R11 -->
<g id="node9" class="node">
<title>Stainless steel handle model R11</title>
<polygon fill="lightyellow" stroke="black" points="855.8,-283.5 778.28,-301.5 623.25,-301.5 545.73,-283.5 623.25,-265.5 778.28,-265.5 855.8,-283.5"/>
<text text-anchor="middle" x="700.77" y="-278.45" font-family="Times New Roman,serif" font-size="14.00">Stainless steel handle model R11</text>
</g>
<!-- 200 mm lid with handle&#45;&#45;Stainless steel handle model R11 -->
<g id="edge6" class="edge">
<title>200 mm lid with handle&#45;&#45;Stainless steel handle model R11</title>
<path fill="none" stroke="black" d="M449.85,-356.13C502.56,-341.08 584.01,-317.83 639.72,-301.93"/>
<text text-anchor="middle" x="590.28" y="-322.7" font-family="Times New Roman,serif" font-size="14.00">1unit</text>
</g>
<!-- 200 mm lid pressed -->
<g id="node4" class="node">
<title>200 mm lid pressed</title>
<ellipse fill="lightblue" stroke="black" cx="236.77" cy="-195" rx="85.13" ry="18"/>
<text text-anchor="middle" x="236.77" y="-189.95" font-family="Times New Roman,serif" font-size="14.00">200 mm lid pressed</text>
</g>
<!-- 200 mm lid polished&#45;&#45;200 mm lid pressed -->
<g id="edge7" class="edge">
<title>200 mm lid polished&#45;&#45;200 mm lid pressed</title>
<path fill="none" stroke="black" d="M222.21,-265.4C218.47,-260.02 214.96,-253.82 213.02,-247.5 210.86,-240.49 210.86,-238.01 213.02,-231 214.96,-224.68 218.47,-218.48 222.21,-213.1"/>
<text text-anchor="middle" x="226.89" y="-234.2" font-family="Times New Roman,serif" font-size="14.00">1unit</text>
</g>
<!-- 200 mm lid polished&#45;&#45;200 mm lid pressed -->
<g id="edge8" class="edge">
<title>200 mm lid polished&#45;&#45;200 mm lid pressed</title>
<path fill="none" stroke="black" d="M239.15,-265.09C239.81,-259.48 240.44,-253.24 240.77,-247.5 241.18,-240.18 241.18,-238.32 240.77,-231 240.44,-225.26 239.81,-219.02 239.15,-213.41"/>
<text text-anchor="middle" x="254.95" y="-234.2" font-family="Times New Roman,serif" font-size="14.00">1unit</text>
</g>
<!-- 250 mm 1 mm stailess steel disc -->
<g id="node5" class="node">
<title>250 mm 1 mm stailess steel disc</title>
<ellipse fill="lightblue" stroke="black" cx="185.77" cy="-106.5" rx="133.75" ry="18"/>
<text text-anchor="middle" x="185.77" y="-101.45" font-family="Times New Roman,serif" font-size="14.00">250 mm 1 mm stailess steel disc</text>
</g>
<!-- 200 mm lid pressed&#45;&#45;250 mm 1 mm stailess steel disc -->
<g id="edge9" class="edge">
<title>200 mm lid pressed&#45;&#45;250 mm 1 mm stailess steel disc</title>
<path fill="none" stroke="black" d="M186.54,-180.05C176.82,-175.01 167.86,-168.19 162.02,-159 155.15,-148.2 161.38,-135.09 169.18,-124.8"/>
<text text-anchor="middle" x="175.89" y="-145.7" font-family="Times New Roman,serif" font-size="14.00">1unit</text>
</g>
<!-- 200 mm lid pressed&#45;&#45;250 mm 1 mm stailess steel disc -->
<g id="edge10" class="edge">
<title>200 mm lid pressed&#45;&#45;250 mm 1 mm stailess steel disc</title>
<path fill="none" stroke="black" d="M224.54,-176.8C220.72,-171.21 216.57,-164.92 213.02,-159 206.34,-147.9 199.53,-135.03 194.39,-124.93"/>
<text text-anchor="middle" x="226.89" y="-145.7" font-family="Times New Roman,serif" font-size="14.00">1unit</text>
</g>
<!-- 200 mm lid pressed&#45;&#45;250 mm 1 mm stailess steel disc -->
<g id="edge11" class="edge">
<title>200 mm lid pressed&#45;&#45;250 mm 1 mm stailess steel disc</title>
<path fill="none" stroke="black" d="M242.68,-176.76C245.22,-166.24 246.46,-152.88 240.77,-142.5 236.68,-135.06 230.27,-128.97 223.24,-124.09"/>
<text text-anchor="middle" x="258.66" y="-145.7" font-family="Times New Roman,serif" font-size="14.00">1unit</text>
</g>
<!-- Coo lube 2210XP -->
<g id="node7" class="node">
<title>Coo lube 2210XP</title>
<polygon fill="lightyellow" stroke="black" points="516.2,-106.5 471.48,-124.5 382.05,-124.5 337.33,-106.5 382.05,-88.5 471.48,-88.5 516.2,-106.5"/>
<text text-anchor="middle" x="426.77" y="-101.45" font-family="Times New Roman,serif" font-size="14.00">Coo lube 2210XP</text>
</g>
<!-- 200 mm lid pressed&#45;&#45;Coo lube 2210XP -->
<g id="edge12" class="edge">
<title>200 mm lid pressed&#45;&#45;Coo lube 2210XP</title>
<path fill="none" stroke="black" d="M271.62,-178.13C304.72,-163.06 354.38,-140.46 388.55,-124.9"/>
<text text-anchor="middle" x="359.66" y="-145.7" font-family="Times New Roman,serif" font-size="14.00">5ml</text>
</g>
<!-- 300x300 mm 1 mm stainless steel sheet -->
<g id="node6" class="node">
<title>300x300 mm 1 mm stainless steel sheet</title>
<polygon fill="lightyellow" stroke="black" points="371.53,-18 278.65,-36 92.88,-36 0,-18 92.88,0 278.65,0 371.53,-18"/>
<text text-anchor="middle" x="185.77" y="-12.95" font-family="Times New Roman,serif" font-size="14.00">300x300 mm 1 mm stainless steel sheet</text>
</g>
<!-- 250 mm 1 mm stailess steel disc&#45;&#45;300x300 mm 1 mm stainless steel sheet -->
<g id="edge13" class="edge">
<title>250 mm 1 mm stailess steel disc&#45;&#45;300x300 mm 1 mm stainless steel sheet</title>
<path fill="none" stroke="black" d="M185.77,-88.41C185.77,-73.34 185.77,-51.49 185.77,-36.35"/>
<text text-anchor="middle" x="199.64" y="-57.2" font-family="Times New Roman,serif" font-size="14.00">1unit</text>
</g>
</g>
</svg>
