<svg width="793px" height="577px"
 viewBox="0.00 0.00 793.29 576.80" xmlns="http://www.w3.org/2000/svg" xmlns:xlink="http://www.w3.org/1999/xlink">
<g id="graph0" class="graph" transform="scale(1.0 1.0) rotate(0.0) translate(4.0 572.8)">
<title>Product Structure Graph</title>
<polygon fill="white" stroke="transparent" points="-4,4 -4,-572.8 789.29,-572.8 789.29,4 -4,4"/>
<!-- finished bench -->
<g id="node1" class="node">
<title>finished bench</title>
<ellipse fill="none" stroke="black" cx="428.66" cy="-550.8" rx="67.74" ry="18"/>
<text text-anchor="middle" x="428.66" y="-546.6" font-family="Times,serif" font-size="14.00">finished bench</text>
</g>
<!-- finished bench&#45;&#45;finished bench -->
<g id="edge3" class="edge">
<title>finished bench&#45;&#45;finished bench</title>
<path fill="none" stroke="black" d="M489.07,-558.9C503.55,-558.27 514.28,-555.57 514.28,-550.8 514.28,-546.03 503.55,-543.33 489.07,-542.7"/>
<text text-anchor="middle" x="517.78" y="-546.6" font-family="Times,serif" font-size="14.00">1</text>
</g>
<!-- raw bench -->
<g id="node2" class="node">
<title>raw bench</title>
<ellipse fill="none" stroke="black" cx="370.66" cy="-462" rx="50.96" ry="18"/>
<text text-anchor="middle" x="370.66" y="-457.8" font-family="Times,serif" font-size="14.00">raw bench</text>
</g>
<!-- finished bench&#45;&#45;raw bench -->
<g id="edge1" class="edge">
<title>finished bench&#45;&#45;raw bench</title>
<path fill="none" stroke="black" d="M417.2,-532.65C406.97,-517.34 392.06,-495.03 381.9,-479.82"/>
<text text-anchor="middle" x="409.16" y="-502.2" font-family="Times,serif" font-size="14.00">1</text>
</g>
<!-- varnish -->
<g id="node16" class="node">
<title>varnish</title>
<polygon fill="none" stroke="black" points="531.3,-462 508.48,-480 462.84,-480 440.02,-462 462.84,-444 508.48,-444 531.3,-462"/>
<text text-anchor="middle" x="485.66" y="-457.8" font-family="Times,serif" font-size="14.00">varnish</text>
</g>
<!-- finished bench&#45;&#45;varnish -->
<g id="edge2" class="edge">
<title>finished bench&#45;&#45;varnish</title>
<path fill="none" stroke="black" d="M439.92,-532.65C449.91,-517.43 464.44,-495.32 474.42,-480.11"/>
<text text-anchor="middle" x="478.41" y="-502.2" font-family="Times,serif" font-size="14.00">0.125</text>
</g>
<!-- bench seat w/nut -->
<g id="node3" class="node">
<title>bench seat w/nut</title>
<ellipse fill="none" stroke="black" cx="286.66" cy="-373.2" rx="75.86" ry="18"/>
<text text-anchor="middle" x="286.66" y="-369" font-family="Times,serif" font-size="14.00">bench seat w/nut</text>
</g>
<!-- raw bench&#45;&#45;bench seat w/nut -->
<g id="edge4" class="edge">
<title>raw bench&#45;&#45;bench seat w/nut</title>
<path fill="none" stroke="black" d="M354.86,-444.67C340.03,-429.35 317.95,-406.53 302.96,-391.05"/>
<text text-anchor="middle" x="340.16" y="-413.4" font-family="Times,serif" font-size="14.00">1</text>
</g>
<!-- bench leg w/bolt -->
<g id="node10" class="node">
<title>bench leg w/bolt</title>
<ellipse fill="none" stroke="black" cx="502.66" cy="-373.2" rx="75.3" ry="18"/>
<text text-anchor="middle" x="502.66" y="-369" font-family="Times,serif" font-size="14.00">bench leg w/bolt</text>
</g>
<!-- raw bench&#45;&#45;bench leg w/bolt -->
<g id="edge5" class="edge">
<title>raw bench&#45;&#45;bench leg w/bolt</title>
<path fill="none" stroke="black" d="M393.65,-445.88C417.29,-430.34 453.96,-406.22 478.14,-390.32"/>
<text text-anchor="middle" x="452.16" y="-413.4" font-family="Times,serif" font-size="14.00">1</text>
</g>
<!-- bench seat w/holes -->
<g id="node4" class="node">
<title>bench seat w/holes</title>
<ellipse fill="none" stroke="black" cx="86.66" cy="-284.4" rx="83.95" ry="18"/>
<text text-anchor="middle" x="86.66" y="-280.2" font-family="Times,serif" font-size="14.00">bench seat w/holes</text>
</g>
<!-- bench seat w/nut&#45;&#45;bench seat w/holes -->
<g id="edge6" class="edge">
<title>bench seat w/nut&#45;&#45;bench seat w/holes</title>
<path fill="none" stroke="black" d="M251.82,-357.08C215.45,-341.29 158.7,-316.67 122.11,-300.78"/>
<text text-anchor="middle" x="208.16" y="-324.6" font-family="Times,serif" font-size="14.00">1</text>
</g>
<!-- nut M16 -->
<g id="node8" class="node">
<title>nut M16</title>
<polygon fill="none" stroke="black" points="290.35,-284.4 265,-302.4 214.32,-302.4 188.97,-284.4 214.32,-266.4 265,-266.4 290.35,-284.4"/>
<text text-anchor="middle" x="239.66" y="-280.2" font-family="Times,serif" font-size="14.00">nut M16</text>
</g>
<!-- bench seat w/nut&#45;&#45;nut M16 -->
<g id="edge7" class="edge">
<title>bench seat w/nut&#45;&#45;nut M16</title>
<path fill="none" stroke="black" d="M277.37,-355.05C269.13,-339.83 257.16,-317.72 248.93,-302.51"/>
<text text-anchor="middle" x="271.16" y="-324.6" font-family="Times,serif" font-size="14.00">4</text>
</g>
<!-- bolt M6 -->
<g id="node9" class="node">
<title>bolt M6</title>
<polygon fill="none" stroke="black" points="404.9,-284.4 380.78,-302.4 332.54,-302.4 308.42,-284.4 332.54,-266.4 380.78,-266.4 404.9,-284.4"/>
<text text-anchor="middle" x="356.66" y="-280.2" font-family="Times,serif" font-size="14.00">bolt M6</text>
</g>
<!-- bench seat w/nut&#45;&#45;bolt M6 -->
<g id="edge8" class="edge">
<title>bench seat w/nut&#45;&#45;bolt M6</title>
<path fill="none" stroke="black" d="M300.16,-355.46C312.39,-340.29 330.35,-318.02 342.73,-302.68"/>
<text text-anchor="middle" x="335.66" y="-324.6" font-family="Times,serif" font-size="14.00">12</text>
</g>
<!-- polished bench seat -->
<g id="node5" class="node">
<title>polished bench seat</title>
<ellipse fill="none" stroke="black" cx="86.66" cy="-195.6" rx="86.82" ry="18"/>
<text text-anchor="middle" x="86.66" y="-191.4" font-family="Times,serif" font-size="14.00">polished bench seat</text>
</g>
<!-- bench seat w/holes&#45;&#45;polished bench seat -->
<g id="edge9" class="edge">
<title>bench seat w/holes&#45;&#45;polished bench seat</title>
<path fill="none" stroke="black" d="M86.66,-266.25C86.66,-251.03 86.66,-228.92 86.66,-213.71"/>
<text text-anchor="middle" x="90.16" y="-235.8" font-family="Times,serif" font-size="14.00">1</text>
</g>
<!-- raw bench seat -->
<g id="node6" class="node">
<title>raw bench seat</title>
<ellipse fill="none" stroke="black" cx="86.66" cy="-106.8" rx="68.32" ry="18"/>
<text text-anchor="middle" x="86.66" y="-102.6" font-family="Times,serif" font-size="14.00">raw bench seat</text>
</g>
<!-- polished bench seat&#45;&#45;raw bench seat -->
<g id="edge10" class="edge">
<title>polished bench seat&#45;&#45;raw bench seat</title>
<path fill="none" stroke="black" d="M86.66,-177.45C86.66,-162.23 86.66,-140.12 86.66,-124.91"/>
<text text-anchor="middle" x="90.16" y="-147" font-family="Times,serif" font-size="14.00">1</text>
</g>
<!-- wood 3cm -->
<g id="node7" class="node">
<title>wood 3cm</title>
<polygon fill="none" stroke="black" points="146.17,-18 116.42,-36 56.9,-36 27.15,-18 56.9,0 116.42,0 146.17,-18"/>
<text text-anchor="middle" x="86.66" y="-13.8" font-family="Times,serif" font-size="14.00">wood 3cm</text>
</g>
<!-- raw bench seat&#45;&#45;wood 3cm -->
<g id="edge11" class="edge">
<title>raw bench seat&#45;&#45;wood 3cm</title>
<path fill="none" stroke="black" d="M86.66,-88.65C86.66,-73.43 86.66,-51.32 86.66,-36.11"/>
<text text-anchor="middle" x="105.91" y="-58.2" font-family="Times,serif" font-size="14.00">0.0576</text>
</g>
<!-- bench leg &#160;w/hole -->
<g id="node11" class="node">
<title>bench leg &#160;w/hole</title>
<ellipse fill="none" stroke="black" cx="502.66" cy="-284.4" rx="79.34" ry="18"/>
<text text-anchor="middle" x="502.66" y="-280.2" font-family="Times,serif" font-size="14.00">bench leg &#160;w/hole</text>
</g>
<!-- bench leg w/bolt&#45;&#45;bench leg &#160;w/hole -->
<g id="edge12" class="edge">
<title>bench leg w/bolt&#45;&#45;bench leg &#160;w/hole</title>
<path fill="none" stroke="black" d="M502.66,-355.05C502.66,-339.83 502.66,-317.72 502.66,-302.51"/>
<text text-anchor="middle" x="506.16" y="-324.6" font-family="Times,serif" font-size="14.00">1</text>
</g>
<!-- threaded rod M16 -->
<g id="node15" class="node">
<title>threaded rod M16</title>
<polygon fill="none" stroke="black" points="785.42,-284.4 739.04,-302.4 646.28,-302.4 599.9,-284.4 646.28,-266.4 739.04,-266.4 785.42,-284.4"/>
<text text-anchor="middle" x="692.66" y="-280.2" font-family="Times,serif" font-size="14.00">threaded rod M16</text>
</g>
<!-- bench leg w/bolt&#45;&#45;threaded rod M16 -->
<g id="edge13" class="edge">
<title>bench leg w/bolt&#45;&#45;threaded rod M16</title>
<path fill="none" stroke="black" d="M536.19,-356.88C569.54,-341.65 620.59,-318.33 655.23,-302.5"/>
<text text-anchor="middle" x="618.16" y="-324.6" font-family="Times,serif" font-size="14.00">1</text>
</g>
<!-- polished bench leg -->
<g id="node12" class="node">
<title>polished bench leg</title>
<ellipse fill="none" stroke="black" cx="502.66" cy="-195.6" rx="83.39" ry="18"/>
<text text-anchor="middle" x="502.66" y="-191.4" font-family="Times,serif" font-size="14.00">polished bench leg</text>
</g>
<!-- bench leg &#160;w/hole&#45;&#45;polished bench leg -->
<g id="edge14" class="edge">
<title>bench leg &#160;w/hole&#45;&#45;polished bench leg</title>
<path fill="none" stroke="black" d="M502.66,-266.25C502.66,-251.03 502.66,-228.92 502.66,-213.71"/>
<text text-anchor="middle" x="506.16" y="-235.8" font-family="Times,serif" font-size="14.00">1</text>
</g>
<!-- raw bench leg -->
<g id="node13" class="node">
<title>raw bench leg</title>
<ellipse fill="none" stroke="black" cx="502.66" cy="-106.8" rx="65.39" ry="18"/>
<text text-anchor="middle" x="502.66" y="-102.6" font-family="Times,serif" font-size="14.00">raw bench leg</text>
</g>
<!-- polished bench leg&#45;&#45;raw bench leg -->
<g id="edge15" class="edge">
<title>polished bench leg&#45;&#45;raw bench leg</title>
<path fill="none" stroke="black" d="M502.66,-177.45C502.66,-162.23 502.66,-140.12 502.66,-124.91"/>
<text text-anchor="middle" x="506.16" y="-147" font-family="Times,serif" font-size="14.00">1</text>
</g>
<!-- wood pole 4cm -->
<g id="node14" class="node">
<title>wood pole 4cm</title>
<polygon fill="none" stroke="black" points="584.15,-18 543.4,-36 461.92,-36 421.17,-18 461.92,0 543.4,0 584.15,-18"/>
<text text-anchor="middle" x="502.66" y="-13.8" font-family="Times,serif" font-size="14.00">wood pole 4cm</text>
</g>
<!-- raw bench leg&#45;&#45;wood pole 4cm -->
<g id="edge16" class="edge">
<title>raw bench leg&#45;&#45;wood pole 4cm</title>
<path fill="none" stroke="black" d="M502.66,-88.65C502.66,-73.43 502.66,-51.32 502.66,-36.11"/>
<text text-anchor="middle" x="514.91" y="-58.2" font-family="Times,serif" font-size="14.00">0.28</text>
</g>
</g>
</svg>
