<svg width="1109px" height="577px"
 viewBox="0.00 0.00 1108.74 576.80" xmlns="http://www.w3.org/2000/svg" xmlns:xlink="http://www.w3.org/1999/xlink">
<g id="graph0" class="graph" transform="scale(1.0 1.0) rotate(0.0) translate(4.0 572.8)">
<title>Operation Structure</title>
<polygon fill="white" stroke="transparent" points="-4,4 -4,-572.8 1104.74,-572.8 1104.74,4 -4,4"/>
<!-- finished bench -->
<g id="node1" class="node">
<title>finished bench</title>
<ellipse fill="none" stroke="black" cx="197.25" cy="-462" rx="67.74" ry="18"/>
<text text-anchor="middle" x="197.25" y="-457.8" font-family="Times,serif" font-size="14.00">finished bench</text>
</g>
<!-- varnish bench -->
<g id="node2" class="node">
<title>varnish bench</title>
<polygon fill="none" stroke="black" points="382.39,-568.8 288.11,-568.8 288.11,-532.8 382.39,-532.8 382.39,-568.8"/>
<text text-anchor="middle" x="335.25" y="-546.6" font-family="Times,serif" font-size="14.00">varnish bench</text>
</g>
<!-- varnish bench&#45;&#45;finished bench -->
<g id="edge1" class="edge">
<title>varnish bench&#45;&#45;finished bench</title>
<path fill="none" stroke="black" d="M307.98,-532.65C283.16,-517.04 246.8,-494.17 222.59,-478.94"/>
<text text-anchor="middle" x="282.75" y="-502.2" font-family="Times,serif" font-size="14.00">1</text>
</g>
<!-- assemble bench -->
<g id="node3" class="node">
<title>assemble bench</title>
<polygon fill="none" stroke="black" points="387.49,-480 283,-480 283,-444 387.49,-444 387.49,-480"/>
<text text-anchor="middle" x="335.25" y="-457.8" font-family="Times,serif" font-size="14.00">assemble bench</text>
</g>
<!-- varnish bench&#45;&#45;assemble bench -->
<g id="edge2" class="edge">
<title>varnish bench&#45;&#45;assemble bench</title>
<path fill="none" stroke="black" d="M335.25,-532.65C335.25,-517.43 335.25,-495.32 335.25,-480.11"/>
<text text-anchor="middle" x="338.75" y="-502.2" font-family="Times,serif" font-size="14.00">1</text>
</g>
<!-- varnish -->
<g id="node26" class="node">
<title>varnish</title>
<polygon fill="none" stroke="black" points="496.88,-462 474.07,-480 428.43,-480 405.61,-462 428.43,-444 474.07,-444 496.88,-462"/>
<text text-anchor="middle" x="451.25" y="-457.8" font-family="Times,serif" font-size="14.00">varnish</text>
</g>
<!-- varnish bench&#45;&#45;varnish -->
<g id="edge3" class="edge">
<title>varnish bench&#45;&#45;varnish</title>
<path fill="none" stroke="black" d="M358.17,-532.65C378.5,-517.43 408.06,-495.32 428.38,-480.11"/>
<text text-anchor="middle" x="420" y="-502.2" font-family="Times,serif" font-size="14.00">0,125</text>
</g>
<!-- raw bench -->
<g id="node4" class="node">
<title>raw bench</title>
<ellipse fill="none" stroke="black" cx="216.25" cy="-373.2" rx="50.96" ry="18"/>
<text text-anchor="middle" x="216.25" y="-369" font-family="Times,serif" font-size="14.00">raw bench</text>
</g>
<!-- assemble bench&#45;&#45;raw bench -->
<g id="edge4" class="edge">
<title>assemble bench&#45;&#45;raw bench</title>
<path fill="none" stroke="black" d="M311.74,-443.85C290.2,-428.14 258.58,-405.08 237.71,-389.85"/>
<text text-anchor="middle" x="290.75" y="-413.4" font-family="Times,serif" font-size="14.00">1</text>
</g>
<!-- fix nut M16 21 -->
<g id="node5" class="node">
<title>fix nut M16 21</title>
<polygon fill="none" stroke="black" points="385.64,-391.2 284.86,-391.2 284.86,-355.2 385.64,-355.2 385.64,-391.2"/>
<text text-anchor="middle" x="335.25" y="-369" font-family="Times,serif" font-size="14.00">fix nut M16 21</text>
</g>
<!-- assemble bench&#45;&#45;fix nut M16 21 -->
<g id="edge5" class="edge">
<title>assemble bench&#45;&#45;fix nut M16 21</title>
<path fill="none" stroke="black" d="M335.25,-443.85C335.25,-428.63 335.25,-406.52 335.25,-391.31"/>
<text text-anchor="middle" x="338.75" y="-413.4" font-family="Times,serif" font-size="14.00">1</text>
</g>
<!-- fix bolt M16 22 -->
<g id="node16" class="node">
<title>fix bolt M16 22</title>
<polygon fill="none" stroke="black" points="686.53,-391.2 581.97,-391.2 581.97,-355.2 686.53,-355.2 686.53,-391.2"/>
<text text-anchor="middle" x="634.25" y="-369" font-family="Times,serif" font-size="14.00">fix bolt M16 22</text>
</g>
<!-- assemble bench&#45;&#45;fix bolt M16 22 -->
<g id="edge6" class="edge">
<title>assemble bench&#45;&#45;fix bolt M16 22</title>
<path fill="none" stroke="black" d="M387.67,-445.78C442.27,-429.93 527.31,-405.25 581.88,-389.4"/>
<text text-anchor="middle" x="515.75" y="-413.4" font-family="Times,serif" font-size="14.00">4</text>
</g>
<!-- bench seat wnut -->
<g id="node6" class="node">
<title>bench seat wnut</title>
<ellipse fill="none" stroke="black" cx="73.25" cy="-284.4" rx="73.5" ry="18"/>
<text text-anchor="middle" x="73.25" y="-280.2" font-family="Times,serif" font-size="14.00">bench seat wnut</text>
</g>
<!-- fix nut M16 21&#45;&#45;bench seat wnut -->
<g id="edge7" class="edge">
<title>fix nut M16 21&#45;&#45;bench seat wnut</title>
<path fill="none" stroke="black" d="M285.04,-355.57C235.71,-339.22 161.3,-314.57 115.08,-299.26"/>
<text text-anchor="middle" x="231.75" y="-324.6" font-family="Times,serif" font-size="14.00">1</text>
</g>
<!-- drill bench seat -->
<g id="node7" class="node">
<title>drill bench seat</title>
<polygon fill="none" stroke="black" points="265.78,-302.4 164.72,-302.4 164.72,-266.4 265.78,-266.4 265.78,-302.4"/>
<text text-anchor="middle" x="215.25" y="-280.2" font-family="Times,serif" font-size="14.00">drill bench seat</text>
</g>
<!-- fix nut M16 21&#45;&#45;drill bench seat -->
<g id="edge8" class="edge">
<title>fix nut M16 21&#45;&#45;drill bench seat</title>
<path fill="none" stroke="black" d="M311.54,-355.05C290.5,-339.83 259.93,-317.72 238.91,-302.51"/>
<text text-anchor="middle" x="289.75" y="-324.6" font-family="Times,serif" font-size="14.00">1</text>
</g>
<!-- nut M16 -->
<g id="node14" class="node">
<title>nut M16</title>
<polygon fill="none" stroke="black" points="385.94,-284.4 360.59,-302.4 309.9,-302.4 284.56,-284.4 309.9,-266.4 360.59,-266.4 385.94,-284.4"/>
<text text-anchor="middle" x="335.25" y="-280.2" font-family="Times,serif" font-size="14.00">nut M16</text>
</g>
<!-- fix nut M16 21&#45;&#45;nut M16 -->
<g id="edge9" class="edge">
<title>fix nut M16 21&#45;&#45;nut M16</title>
<path fill="none" stroke="black" d="M335.25,-355.05C335.25,-339.83 335.25,-317.72 335.25,-302.51"/>
<text text-anchor="middle" x="338.75" y="-324.6" font-family="Times,serif" font-size="14.00">4</text>
</g>
<!-- bolt M6 -->
<g id="node15" class="node">
<title>bolt M6</title>
<polygon fill="none" stroke="black" points="500.48,-284.4 476.37,-302.4 428.13,-302.4 404.01,-284.4 428.13,-266.4 476.37,-266.4 500.48,-284.4"/>
<text text-anchor="middle" x="452.25" y="-280.2" font-family="Times,serif" font-size="14.00">bolt M6</text>
</g>
<!-- fix nut M16 21&#45;&#45;bolt M6 -->
<g id="edge10" class="edge">
<title>fix nut M16 21&#45;&#45;bolt M6</title>
<path fill="none" stroke="black" d="M358.36,-355.05C378.88,-339.83 408.68,-317.72 429.18,-302.51"/>
<text text-anchor="middle" x="411.25" y="-324.6" font-family="Times,serif" font-size="14.00">12</text>
</g>
<!-- bench seat wholes -->
<g id="node8" class="node">
<title>bench seat wholes</title>
<ellipse fill="none" stroke="black" cx="168.25" cy="-195.6" rx="81.08" ry="18"/>
<text text-anchor="middle" x="168.25" y="-191.4" font-family="Times,serif" font-size="14.00">bench seat wholes</text>
</g>
<!-- drill bench seat&#45;&#45;bench seat wholes -->
<g id="edge11" class="edge">
<title>drill bench seat&#45;&#45;bench seat wholes</title>
<path fill="none" stroke="black" d="M205.96,-266.25C197.72,-251.03 185.75,-228.92 177.51,-213.71"/>
<text text-anchor="middle" x="199.75" y="-235.8" font-family="Times,serif" font-size="14.00">1</text>
</g>
<!-- polish bench seat -->
<g id="node9" class="node">
<title>polish bench seat</title>
<polygon fill="none" stroke="black" points="380.67,-213.6 267.83,-213.6 267.83,-177.6 380.67,-177.6 380.67,-213.6"/>
<text text-anchor="middle" x="324.25" y="-191.4" font-family="Times,serif" font-size="14.00">polish bench seat</text>
</g>
<!-- drill bench seat&#45;&#45;polish bench seat -->
<g id="edge12" class="edge">
<title>drill bench seat&#45;&#45;polish bench seat</title>
<path fill="none" stroke="black" d="M236.78,-266.25C255.89,-251.03 283.66,-228.92 302.76,-213.71"/>
<text text-anchor="middle" x="283.75" y="-235.8" font-family="Times,serif" font-size="14.00">1</text>
</g>
<!-- polished bench seat -->
<g id="node10" class="node">
<title>polished bench seat</title>
<ellipse fill="none" stroke="black" cx="278.25" cy="-106.8" rx="86.82" ry="18"/>
<text text-anchor="middle" x="278.25" y="-102.6" font-family="Times,serif" font-size="14.00">polished bench seat</text>
</g>
<!-- polish bench seat&#45;&#45;polished bench seat -->
<g id="edge13" class="edge">
<title>polish bench seat&#45;&#45;polished bench seat</title>
<path fill="none" stroke="black" d="M315.16,-177.45C307.1,-162.23 295.38,-140.12 287.32,-124.91"/>
<text text-anchor="middle" x="309.75" y="-147" font-family="Times,serif" font-size="14.00">1</text>
</g>
<!-- cut bench seat -->
<g id="node11" class="node">
<title>cut bench seat</title>
<polygon fill="none" stroke="black" points="478.05,-124.8 382.45,-124.8 382.45,-88.8 478.05,-88.8 478.05,-124.8"/>
<text text-anchor="middle" x="430.25" y="-102.6" font-family="Times,serif" font-size="14.00">cut bench seat</text>
</g>
<!-- polish bench seat&#45;&#45;cut bench seat -->
<g id="edge14" class="edge">
<title>polish bench seat&#45;&#45;cut bench seat</title>
<path fill="none" stroke="black" d="M345.19,-177.45C363.77,-162.23 390.78,-140.12 409.35,-124.91"/>
<text text-anchor="middle" x="390.75" y="-147" font-family="Times,serif" font-size="14.00">1</text>
</g>
<!-- raw bench seat -->
<g id="node12" class="node">
<title>raw bench seat</title>
<ellipse fill="none" stroke="black" cx="339.25" cy="-18" rx="68.32" ry="18"/>
<text text-anchor="middle" x="339.25" y="-13.8" font-family="Times,serif" font-size="14.00">raw bench seat</text>
</g>
<!-- cut bench seat&#45;&#45;raw bench seat -->
<g id="edge15" class="edge">
<title>cut bench seat&#45;&#45;raw bench seat</title>
<path fill="none" stroke="black" d="M412.27,-88.65C396.11,-73.24 372.53,-50.74 356.57,-35.52"/>
<text text-anchor="middle" x="396.75" y="-58.2" font-family="Times,serif" font-size="14.00">1</text>
</g>
<!-- wood 3cm -->
<g id="node13" class="node">
<title>wood 3cm</title>
<polygon fill="none" stroke="black" points="544.76,-18 515.01,-36 455.49,-36 425.73,-18 455.49,0 515.01,0 544.76,-18"/>
<text text-anchor="middle" x="485.25" y="-13.8" font-family="Times,serif" font-size="14.00">wood 3cm</text>
</g>
<!-- cut bench seat&#45;&#45;wood 3cm -->
<g id="edge16" class="edge">
<title>cut bench seat&#45;&#45;wood 3cm</title>
<path fill="none" stroke="black" d="M441.11,-88.65C450.76,-73.43 464.77,-51.32 474.4,-36.11"/>
<text text-anchor="middle" x="482.5" y="-58.2" font-family="Times,serif" font-size="14.00">0,0576</text>
</g>
<!-- bench leg wbolt -->
<g id="node17" class="node">
<title>bench leg wbolt</title>
<ellipse fill="none" stroke="black" cx="591.25" cy="-284.4" rx="72.94" ry="18"/>
<text text-anchor="middle" x="591.25" y="-280.2" font-family="Times,serif" font-size="14.00">bench leg wbolt</text>
</g>
<!-- fix bolt M16 22&#45;&#45;bench leg wbolt -->
<g id="edge17" class="edge">
<title>fix bolt M16 22&#45;&#45;bench leg wbolt</title>
<path fill="none" stroke="black" d="M625.75,-355.05C618.21,-339.83 607.26,-317.72 599.73,-302.51"/>
<text text-anchor="middle" x="620.75" y="-324.6" font-family="Times,serif" font-size="14.00">1</text>
</g>
<!-- drill bench leg -->
<g id="node18" class="node">
<title>drill bench leg</title>
<polygon fill="none" stroke="black" points="778.62,-302.4 681.88,-302.4 681.88,-266.4 778.62,-266.4 778.62,-302.4"/>
<text text-anchor="middle" x="730.25" y="-280.2" font-family="Times,serif" font-size="14.00">drill bench leg</text>
</g>
<!-- fix bolt M16 22&#45;&#45;drill bench leg -->
<g id="edge18" class="edge">
<title>fix bolt M16 22&#45;&#45;drill bench leg</title>
<path fill="none" stroke="black" d="M653.21,-355.05C670.05,-339.83 694.5,-317.72 711.32,-302.51"/>
<text text-anchor="middle" x="694.75" y="-324.6" font-family="Times,serif" font-size="14.00">1</text>
</g>
<!-- threaded rod M16 -->
<g id="node25" class="node">
<title>threaded rod M16</title>
<polygon fill="none" stroke="black" points="982.01,-284.4 935.63,-302.4 842.87,-302.4 796.48,-284.4 842.87,-266.4 935.63,-266.4 982.01,-284.4"/>
<text text-anchor="middle" x="889.25" y="-280.2" font-family="Times,serif" font-size="14.00">threaded rod M16</text>
</g>
<!-- fix bolt M16 22&#45;&#45;threaded rod M16 -->
<g id="edge19" class="edge">
<title>fix bolt M16 22&#45;&#45;threaded rod M16</title>
<path fill="none" stroke="black" d="M684.32,-355.15C729.72,-339.7 796.2,-317.07 841.02,-301.82"/>
<text text-anchor="middle" x="787.75" y="-324.6" font-family="Times,serif" font-size="14.00">1</text>
</g>
<!-- bench leg &#160;whole -->
<g id="node19" class="node">
<title>bench leg &#160;whole</title>
<ellipse fill="none" stroke="black" cx="685.25" cy="-195.6" rx="76.97" ry="18"/>
<text text-anchor="middle" x="685.25" y="-191.4" font-family="Times,serif" font-size="14.00">bench leg &#160;whole</text>
</g>
<!-- drill bench leg&#45;&#45;bench leg &#160;whole -->
<g id="edge20" class="edge">
<title>drill bench leg&#45;&#45;bench leg &#160;whole</title>
<path fill="none" stroke="black" d="M721.36,-266.25C713.47,-251.03 702,-228.92 694.12,-213.71"/>
<text text-anchor="middle" x="715.75" y="-235.8" font-family="Times,serif" font-size="14.00">1</text>
</g>
<!-- polish bench leg -->
<g id="node20" class="node">
<title>polish bench leg</title>
<polygon fill="none" stroke="black" points="888.01,-213.6 780.49,-213.6 780.49,-177.6 888.01,-177.6 888.01,-213.6"/>
<text text-anchor="middle" x="834.25" y="-191.4" font-family="Times,serif" font-size="14.00">polish bench leg</text>
</g>
<!-- drill bench leg&#45;&#45;polish bench leg -->
<g id="edge21" class="edge">
<title>drill bench leg&#45;&#45;polish bench leg</title>
<path fill="none" stroke="black" d="M750.8,-266.25C769.03,-251.03 795.52,-228.92 813.74,-213.71"/>
<text text-anchor="middle" x="794.75" y="-235.8" font-family="Times,serif" font-size="14.00">1</text>
</g>
<!-- polished bench leg -->
<g id="node21" class="node">
<title>polished bench leg</title>
<ellipse fill="none" stroke="black" cx="790.25" cy="-106.8" rx="83.39" ry="18"/>
<text text-anchor="middle" x="790.25" y="-102.6" font-family="Times,serif" font-size="14.00">polished bench leg</text>
</g>
<!-- polish bench leg&#45;&#45;polished bench leg -->
<g id="edge22" class="edge">
<title>polish bench leg&#45;&#45;polished bench leg</title>
<path fill="none" stroke="black" d="M825.56,-177.45C817.84,-162.23 806.63,-140.12 798.92,-124.91"/>
<text text-anchor="middle" x="818.75" y="-147" font-family="Times,serif" font-size="14.00">1</text>
</g>
<!-- cut bench leg -->
<g id="node22" class="node">
<title>cut bench leg</title>
<polygon fill="none" stroke="black" points="982.39,-124.8 892.11,-124.8 892.11,-88.8 982.39,-88.8 982.39,-124.8"/>
<text text-anchor="middle" x="937.25" y="-102.6" font-family="Times,serif" font-size="14.00">cut bench leg</text>
</g>
<!-- polish bench leg&#45;&#45;cut bench leg -->
<g id="edge23" class="edge">
<title>polish bench leg&#45;&#45;cut bench leg</title>
<path fill="none" stroke="black" d="M854.6,-177.45C872.66,-162.23 898.9,-140.12 916.94,-124.91"/>
<text text-anchor="middle" x="897.75" y="-147" font-family="Times,serif" font-size="14.00">1</text>
</g>
<!-- raw bench leg -->
<g id="node23" class="node">
<title>raw bench leg</title>
<ellipse fill="none" stroke="black" cx="854.25" cy="-18" rx="65.39" ry="18"/>
<text text-anchor="middle" x="854.25" y="-13.8" font-family="Times,serif" font-size="14.00">raw bench leg</text>
</g>
<!-- cut bench leg&#45;&#45;raw bench leg -->
<g id="edge24" class="edge">
<title>cut bench leg&#45;&#45;raw bench leg</title>
<path fill="none" stroke="black" d="M920.85,-88.65C906.11,-73.24 884.6,-50.74 870.05,-35.52"/>
<text text-anchor="middle" x="905.75" y="-58.2" font-family="Times,serif" font-size="14.00">1</text>
</g>
<!-- wood pole 4cm -->
<g id="node24" class="node">
<title>wood pole 4cm</title>
<polygon fill="none" stroke="black" points="1100.74,-18 1059.99,-36 978.5,-36 937.76,-18 978.5,0 1059.99,0 1100.74,-18"/>
<text text-anchor="middle" x="1019.25" y="-13.8" font-family="Times,serif" font-size="14.00">wood pole 4cm</text>
</g>
<!-- cut bench leg&#45;&#45;wood pole 4cm -->
<g id="edge25" class="edge">
<title>cut bench leg&#45;&#45;wood pole 4cm</title>
<path fill="none" stroke="black" d="M953.45,-88.65C967.82,-73.43 988.72,-51.32 1003.08,-36.11"/>
<text text-anchor="middle" x="997.5" y="-58.2" font-family="Times,serif" font-size="14.00">0,28</text>
</g>
</g>
</svg>
