<svg width="842px" height="1021px"
 viewBox="0.00 0.00 842.09 1020.80" xmlns="http://www.w3.org/2000/svg" xmlns:xlink="http://www.w3.org/1999/xlink">
<g id="graph0" class="graph" transform="scale(1.0 1.0) rotate(0.0) translate(4.0 1016.8)">
<title>Operation Structure</title>
<polygon fill="white" stroke="transparent" points="-4,4 -4,-1016.8 838.09,-1016.8 838.09,4 -4,4"/>
<!-- varnish bench -->
<g id="node1" class="node">
<title>varnish bench</title>
<polygon fill="none" stroke="black" points="472.51,-1012.8 378.23,-1012.8 378.23,-976.8 472.51,-976.8 472.51,-1012.8"/>
<text text-anchor="middle" x="425.37" y="-990.6" font-family="Times,serif" font-size="14.00">varnish bench</text>
</g>
<!-- finished bench -->
<g id="node2" class="node">
<title>finished bench</title>
<ellipse fill="none" stroke="black" cx="321.37" cy="-906" rx="67.74" ry="18"/>
<text text-anchor="middle" x="321.37" y="-901.8" font-family="Times,serif" font-size="14.00">finished bench</text>
</g>
<!-- varnish bench&#45;&#45;finished bench -->
<g id="edge1" class="edge">
<title>varnish bench&#45;&#45;finished bench</title>
<path fill="none" stroke="black" d="M404.82,-976.65C386.35,-961.24 359.4,-938.74 341.17,-923.52"/>
<text text-anchor="middle" x="386.87" y="-946.2" font-family="Times,serif" font-size="14.00">1</text>
</g>
<!-- assemble bench -->
<g id="node3" class="node">
<title>assemble bench</title>
<polygon fill="none" stroke="black" points="425.61,-835.2 321.12,-835.2 321.12,-799.2 425.61,-799.2 425.61,-835.2"/>
<text text-anchor="middle" x="373.37" y="-813" font-family="Times,serif" font-size="14.00">assemble bench</text>
</g>
<!-- varnish bench&#45;&#45;assemble bench -->
<g id="edge2" class="edge">
<title>varnish bench&#45;&#45;assemble bench</title>
<path fill="none" stroke="black" d="M421.47,-976.44C416.61,-955.36 407.8,-918.82 398.37,-888 392.79,-869.78 385.31,-849.3 379.99,-835.26"/>
<text text-anchor="middle" x="411.87" y="-901.8" font-family="Times,serif" font-size="14.00">1</text>
</g>
<!-- varnish -->
<g id="node26" class="node">
<title>varnish</title>
<polygon fill="none" stroke="black" points="542,-906 519.19,-924 473.55,-924 450.73,-906 473.55,-888 519.19,-888 542,-906"/>
<text text-anchor="middle" x="496.37" y="-901.8" font-family="Times,serif" font-size="14.00">varnish</text>
</g>
<!-- varnish bench&#45;&#45;varnish -->
<g id="edge3" class="edge">
<title>varnish bench&#45;&#45;varnish</title>
<path fill="none" stroke="black" d="M439.39,-976.65C451.84,-961.43 469.93,-939.32 482.37,-924.11"/>
<text text-anchor="middle" x="482.12" y="-946.2" font-family="Times,serif" font-size="14.00">0,125</text>
</g>
<!-- finished bench&#45;&#45;assemble bench -->
<g id="edge4" class="edge">
<title>finished bench&#45;&#45;assemble bench</title>
<path fill="none" stroke="black" d="M331.64,-887.85C340.76,-872.63 354.01,-850.52 363.12,-835.31"/>
<text text-anchor="middle" x="355.87" y="-857.4" font-family="Times,serif" font-size="14.00">1</text>
</g>
<!-- raw bench -->
<g id="node4" class="node">
<title>raw bench</title>
<ellipse fill="none" stroke="black" cx="373.37" cy="-728.4" rx="50.96" ry="18"/>
<text text-anchor="middle" x="373.37" y="-724.2" font-family="Times,serif" font-size="14.00">raw bench</text>
</g>
<!-- assemble bench&#45;&#45;raw bench -->
<g id="edge5" class="edge">
<title>assemble bench&#45;&#45;raw bench</title>
<path fill="none" stroke="black" d="M373.37,-799.05C373.37,-783.83 373.37,-761.72 373.37,-746.51"/>
<text text-anchor="middle" x="376.87" y="-768.6" font-family="Times,serif" font-size="14.00">1</text>
</g>
<!-- fix nut M16 21 -->
<g id="node5" class="node">
<title>fix nut M16 21</title>
<polygon fill="none" stroke="black" points="347.75,-657.6 246.98,-657.6 246.98,-621.6 347.75,-621.6 347.75,-657.6"/>
<text text-anchor="middle" x="297.37" y="-635.4" font-family="Times,serif" font-size="14.00">fix nut M16 21</text>
</g>
<!-- assemble bench&#45;&#45;fix nut M16 21 -->
<g id="edge6" class="edge">
<title>assemble bench&#45;&#45;fix nut M16 21</title>
<path fill="none" stroke="black" d="M350.21,-799.12C334.92,-786.42 315.99,-767.67 306.37,-746.4 293.3,-717.51 293.73,-679.68 295.42,-657.97"/>
<text text-anchor="middle" x="309.87" y="-724.2" font-family="Times,serif" font-size="14.00">1</text>
</g>
<!-- fix bolt M16 22 -->
<g id="node16" class="node">
<title>fix bolt M16 22</title>
<polygon fill="none" stroke="black" points="512.64,-657.6 408.09,-657.6 408.09,-621.6 512.64,-621.6 512.64,-657.6"/>
<text text-anchor="middle" x="460.37" y="-635.4" font-family="Times,serif" font-size="14.00">fix bolt M16 22</text>
</g>
<!-- assemble bench&#45;&#45;fix bolt M16 22 -->
<g id="edge7" class="edge">
<title>assemble bench&#45;&#45;fix bolt M16 22</title>
<path fill="none" stroke="black" d="M392.23,-798.98C405.58,-785.8 422.89,-766.53 433.37,-746.4 448.42,-717.48 455.44,-679.66 458.42,-657.96"/>
<text text-anchor="middle" x="450.87" y="-724.2" font-family="Times,serif" font-size="14.00">4</text>
</g>
<!-- raw bench&#45;&#45;fix nut M16 21 -->
<g id="edge8" class="edge">
<title>raw bench&#45;&#45;fix nut M16 21</title>
<path fill="none" stroke="black" d="M359.07,-711.07C345.74,-695.85 325.93,-673.23 312.38,-657.74"/>
<text text-anchor="middle" x="345.87" y="-679.8" font-family="Times,serif" font-size="14.00">1</text>
</g>
<!-- raw bench&#45;&#45;fix bolt M16 22 -->
<g id="edge9" class="edge">
<title>raw bench&#45;&#45;fix bolt M16 22</title>
<path fill="none" stroke="black" d="M389.73,-711.07C404.99,-695.85 427.67,-673.23 443.18,-657.74"/>
<text text-anchor="middle" x="428.87" y="-679.8" font-family="Times,serif" font-size="14.00">4</text>
</g>
<!-- bench seat wnut -->
<g id="node6" class="node">
<title>bench seat wnut</title>
<ellipse fill="none" stroke="black" cx="188.37" cy="-550.8" rx="73.5" ry="18"/>
<text text-anchor="middle" x="188.37" y="-546.6" font-family="Times,serif" font-size="14.00">bench seat wnut</text>
</g>
<!-- fix nut M16 21&#45;&#45;bench seat wnut -->
<g id="edge10" class="edge">
<title>fix nut M16 21&#45;&#45;bench seat wnut</title>
<path fill="none" stroke="black" d="M275.83,-621.45C256.48,-606.04 228.23,-583.54 209.12,-568.32"/>
<text text-anchor="middle" x="256.87" y="-591" font-family="Times,serif" font-size="14.00">1</text>
</g>
<!-- drill bench seat -->
<g id="node7" class="node">
<title>drill bench seat</title>
<polygon fill="none" stroke="black" points="289.89,-480 188.84,-480 188.84,-444 289.89,-444 289.89,-480"/>
<text text-anchor="middle" x="239.37" y="-457.8" font-family="Times,serif" font-size="14.00">drill bench seat</text>
</g>
<!-- fix nut M16 21&#45;&#45;drill bench seat -->
<g id="edge11" class="edge">
<title>fix nut M16 21&#45;&#45;drill bench seat</title>
<path fill="none" stroke="black" d="M293.93,-621.48C289.47,-600.34 280.99,-563.43 270.37,-532.8 263.98,-514.39 254.71,-494.1 247.97,-480.17"/>
<text text-anchor="middle" x="284.87" y="-546.6" font-family="Times,serif" font-size="14.00">1</text>
</g>
<!-- nut M16 -->
<g id="node14" class="node">
<title>nut M16</title>
<polygon fill="none" stroke="black" points="424.06,-550.8 398.71,-568.8 348.02,-568.8 322.68,-550.8 348.02,-532.8 398.71,-532.8 424.06,-550.8"/>
<text text-anchor="middle" x="373.37" y="-546.6" font-family="Times,serif" font-size="14.00">nut M16</text>
</g>
<!-- fix nut M16 21&#45;&#45;nut M16 -->
<g id="edge12" class="edge">
<title>fix nut M16 21&#45;&#45;nut M16</title>
<path fill="none" stroke="black" d="M312.38,-621.45C325.71,-606.23 345.07,-584.12 358.38,-568.91"/>
<text text-anchor="middle" x="345.87" y="-591" font-family="Times,serif" font-size="14.00">4</text>
</g>
<!-- bolt M6 -->
<g id="node15" class="node">
<title>bolt M6</title>
<polygon fill="none" stroke="black" points="96.6,-550.8 72.49,-568.8 24.25,-568.8 0.13,-550.8 24.25,-532.8 72.49,-532.8 96.6,-550.8"/>
<text text-anchor="middle" x="48.37" y="-546.6" font-family="Times,serif" font-size="14.00">bolt M6</text>
</g>
<!-- fix nut M16 21&#45;&#45;bolt M6 -->
<g id="edge13" class="edge">
<title>fix nut M16 21&#45;&#45;bolt M6</title>
<path fill="none" stroke="black" d="M248.47,-621.55C198.76,-604.23 123.16,-577.87 80.54,-563.01"/>
<text text-anchor="middle" x="202.37" y="-591" font-family="Times,serif" font-size="14.00">12</text>
</g>
<!-- bench seat wnut&#45;&#45;drill bench seat -->
<g id="edge14" class="edge">
<title>bench seat wnut&#45;&#45;drill bench seat</title>
<path fill="none" stroke="black" d="M198.44,-532.65C207.38,-517.43 220.38,-495.32 229.31,-480.11"/>
<text text-anchor="middle" x="222.87" y="-502.2" font-family="Times,serif" font-size="14.00">1</text>
</g>
<!-- bench seat wholes -->
<g id="node8" class="node">
<title>bench seat wholes</title>
<ellipse fill="none" stroke="black" cx="203.37" cy="-373.2" rx="81.08" ry="18"/>
<text text-anchor="middle" x="203.37" y="-369" font-family="Times,serif" font-size="14.00">bench seat wholes</text>
</g>
<!-- drill bench seat&#45;&#45;bench seat wholes -->
<g id="edge15" class="edge">
<title>drill bench seat&#45;&#45;bench seat wholes</title>
<path fill="none" stroke="black" d="M232.26,-443.85C225.94,-428.63 216.77,-406.52 210.47,-391.31"/>
<text text-anchor="middle" x="228.87" y="-413.4" font-family="Times,serif" font-size="14.00">1</text>
</g>
<!-- polish bench seat -->
<g id="node9" class="node">
<title>polish bench seat</title>
<polygon fill="none" stroke="black" points="333.79,-302.4 220.95,-302.4 220.95,-266.4 333.79,-266.4 333.79,-302.4"/>
<text text-anchor="middle" x="277.37" y="-280.2" font-family="Times,serif" font-size="14.00">polish bench seat</text>
</g>
<!-- drill bench seat&#45;&#45;polish bench seat -->
<g id="edge16" class="edge">
<title>drill bench seat&#45;&#45;polish bench seat</title>
<path fill="none" stroke="black" d="M258.04,-443.77C270.71,-430.74 286.38,-411.64 293.37,-391.2 303.64,-361.14 293.05,-324.03 284.88,-302.7"/>
<text text-anchor="middle" x="301.87" y="-369" font-family="Times,serif" font-size="14.00">1</text>
</g>
<!-- bench seat wholes&#45;&#45;polish bench seat -->
<g id="edge17" class="edge">
<title>bench seat wholes&#45;&#45;polish bench seat</title>
<path fill="none" stroke="black" d="M217.64,-355.46C230.57,-340.29 249.56,-318.02 262.64,-302.68"/>
<text text-anchor="middle" x="250.87" y="-324.6" font-family="Times,serif" font-size="14.00">1</text>
</g>
<!-- polished bench seat -->
<g id="node10" class="node">
<title>polished bench seat</title>
<ellipse fill="none" stroke="black" cx="213.37" cy="-195.6" rx="86.82" ry="18"/>
<text text-anchor="middle" x="213.37" y="-191.4" font-family="Times,serif" font-size="14.00">polished bench seat</text>
</g>
<!-- polish bench seat&#45;&#45;polished bench seat -->
<g id="edge18" class="edge">
<title>polish bench seat&#45;&#45;polished bench seat</title>
<path fill="none" stroke="black" d="M264.72,-266.25C253.43,-250.94 236.99,-228.63 225.77,-213.42"/>
<text text-anchor="middle" x="254.87" y="-235.8" font-family="Times,serif" font-size="14.00">1</text>
</g>
<!-- cut bench seat -->
<g id="node11" class="node">
<title>cut bench seat</title>
<polygon fill="none" stroke="black" points="347.17,-124.8 251.57,-124.8 251.57,-88.8 347.17,-88.8 347.17,-124.8"/>
<text text-anchor="middle" x="299.37" y="-102.6" font-family="Times,serif" font-size="14.00">cut bench seat</text>
</g>
<!-- polish bench seat&#45;&#45;cut bench seat -->
<g id="edge19" class="edge">
<title>polish bench seat&#45;&#45;cut bench seat</title>
<path fill="none" stroke="black" d="M287.72,-266.35C295.39,-252.64 305.22,-232.62 309.37,-213.6 316.1,-182.78 309.37,-145.93 304.17,-124.85"/>
<text text-anchor="middle" x="315.87" y="-191.4" font-family="Times,serif" font-size="14.00">1</text>
</g>
<!-- polished bench seat&#45;&#45;cut bench seat -->
<g id="edge20" class="edge">
<title>polished bench seat&#45;&#45;cut bench seat</title>
<path fill="none" stroke="black" d="M229.95,-177.86C244.98,-162.69 267.05,-140.42 282.25,-125.08"/>
<text text-anchor="middle" x="267.87" y="-147" font-family="Times,serif" font-size="14.00">1</text>
</g>
<!-- raw bench seat -->
<g id="node12" class="node">
<title>raw bench seat</title>
<ellipse fill="none" stroke="black" cx="259.37" cy="-18" rx="68.32" ry="18"/>
<text text-anchor="middle" x="259.37" y="-13.8" font-family="Times,serif" font-size="14.00">raw bench seat</text>
</g>
<!-- cut bench seat&#45;&#45;raw bench seat -->
<g id="edge21" class="edge">
<title>cut bench seat&#45;&#45;raw bench seat</title>
<path fill="none" stroke="black" d="M291.46,-88.65C284.45,-73.43 274.26,-51.32 267.25,-36.11"/>
<text text-anchor="middle" x="286.87" y="-58.2" font-family="Times,serif" font-size="14.00">1</text>
</g>
<!-- wood 3cm -->
<g id="node13" class="node">
<title>wood 3cm</title>
<polygon fill="none" stroke="black" points="464.88,-18 435.12,-36 375.61,-36 345.85,-18 375.61,0 435.12,0 464.88,-18"/>
<text text-anchor="middle" x="405.37" y="-13.8" font-family="Times,serif" font-size="14.00">wood 3cm</text>
</g>
<!-- cut bench seat&#45;&#45;wood 3cm -->
<g id="edge22" class="edge">
<title>cut bench seat&#45;&#45;wood 3cm</title>
<path fill="none" stroke="black" d="M320.31,-88.65C338.89,-73.43 365.9,-51.32 384.47,-36.11"/>
<text text-anchor="middle" x="381.62" y="-58.2" font-family="Times,serif" font-size="14.00">0,0576</text>
</g>
<!-- bench leg wbolt -->
<g id="node17" class="node">
<title>bench leg wbolt</title>
<ellipse fill="none" stroke="black" cx="761.37" cy="-550.8" rx="72.94" ry="18"/>
<text text-anchor="middle" x="761.37" y="-546.6" font-family="Times,serif" font-size="14.00">bench leg wbolt</text>
</g>
<!-- fix bolt M16 22&#45;&#45;bench leg wbolt -->
<g id="edge23" class="edge">
<title>fix bolt M16 22&#45;&#45;bench leg wbolt</title>
<path fill="none" stroke="black" d="M512.8,-623.48C570.23,-606.92 661.42,-580.62 715.93,-564.9"/>
<text text-anchor="middle" x="640.87" y="-591" font-family="Times,serif" font-size="14.00">1</text>
</g>
<!-- drill bench leg -->
<g id="node18" class="node">
<title>drill bench leg</title>
<polygon fill="none" stroke="black" points="566.73,-480 470,-480 470,-444 566.73,-444 566.73,-480"/>
<text text-anchor="middle" x="518.37" y="-457.8" font-family="Times,serif" font-size="14.00">drill bench leg</text>
</g>
<!-- fix bolt M16 22&#45;&#45;drill bench leg -->
<g id="edge24" class="edge">
<title>fix bolt M16 22&#45;&#45;drill bench leg</title>
<path fill="none" stroke="black" d="M459.14,-621.53C458.2,-600.12 458.54,-562.6 469.37,-532.8 476.6,-512.9 491.04,-493.45 502.38,-480.16"/>
<text text-anchor="middle" x="472.87" y="-546.6" font-family="Times,serif" font-size="14.00">1</text>
</g>
<!-- threaded rod M16 -->
<g id="node25" class="node">
<title>threaded rod M16</title>
<polygon fill="none" stroke="black" points="671.13,-550.8 624.75,-568.8 531.99,-568.8 485.6,-550.8 531.99,-532.8 624.75,-532.8 671.13,-550.8"/>
<text text-anchor="middle" x="578.37" y="-546.6" font-family="Times,serif" font-size="14.00">threaded rod M16</text>
</g>
<!-- fix bolt M16 22&#45;&#45;threaded rod M16 -->
<g id="edge25" class="edge">
<title>fix bolt M16 22&#45;&#45;threaded rod M16</title>
<path fill="none" stroke="black" d="M483.68,-621.45C504.37,-606.23 534.43,-584.12 555.1,-568.91"/>
<text text-anchor="middle" x="532.87" y="-591" font-family="Times,serif" font-size="14.00">1</text>
</g>
<!-- bench leg wbolt&#45;&#45;drill bench leg -->
<g id="edge26" class="edge">
<title>bench leg wbolt&#45;&#45;drill bench leg</title>
<path fill="none" stroke="black" d="M721.78,-535.66C679.29,-520.48 611.76,-496.36 566.29,-480.12"/>
<text text-anchor="middle" x="664.87" y="-502.2" font-family="Times,serif" font-size="14.00">1</text>
</g>
<!-- bench leg &#160;whole -->
<g id="node19" class="node">
<title>bench leg &#160;whole</title>
<ellipse fill="none" stroke="black" cx="483.37" cy="-373.2" rx="76.97" ry="18"/>
<text text-anchor="middle" x="483.37" y="-369" font-family="Times,serif" font-size="14.00">bench leg &#160;whole</text>
</g>
<!-- drill bench leg&#45;&#45;bench leg &#160;whole -->
<g id="edge27" class="edge">
<title>drill bench leg&#45;&#45;bench leg &#160;whole</title>
<path fill="none" stroke="black" d="M511.45,-443.85C505.32,-428.63 496.4,-406.52 490.27,-391.31"/>
<text text-anchor="middle" x="506.87" y="-413.4" font-family="Times,serif" font-size="14.00">1</text>
</g>
<!-- polish bench leg -->
<g id="node20" class="node">
<title>polish bench leg</title>
<polygon fill="none" stroke="black" points="626.13,-302.4 518.61,-302.4 518.61,-266.4 626.13,-266.4 626.13,-302.4"/>
<text text-anchor="middle" x="572.37" y="-280.2" font-family="Times,serif" font-size="14.00">polish bench leg</text>
</g>
<!-- drill bench leg&#45;&#45;polish bench leg -->
<g id="edge28" class="edge">
<title>drill bench leg&#45;&#45;polish bench leg</title>
<path fill="none" stroke="black" d="M535.6,-443.8C547.53,-430.63 562.47,-411.36 569.37,-391.2 579.6,-361.3 577.44,-323.82 574.92,-302.44"/>
<text text-anchor="middle" x="578.87" y="-369" font-family="Times,serif" font-size="14.00">1</text>
</g>
<!-- bench leg &#160;whole&#45;&#45;polish bench leg -->
<g id="edge29" class="edge">
<title>bench leg &#160;whole&#45;&#45;polish bench leg</title>
<path fill="none" stroke="black" d="M500.53,-355.46C516.09,-340.29 538.92,-318.02 554.65,-302.68"/>
<text text-anchor="middle" x="538.87" y="-324.6" font-family="Times,serif" font-size="14.00">1</text>
</g>
<!-- polished bench leg -->
<g id="node21" class="node">
<title>polished bench leg</title>
<ellipse fill="none" stroke="black" cx="489.37" cy="-195.6" rx="83.39" ry="18"/>
<text text-anchor="middle" x="489.37" y="-191.4" font-family="Times,serif" font-size="14.00">polished bench leg</text>
</g>
<!-- polish bench leg&#45;&#45;polished bench leg -->
<g id="edge30" class="edge">
<title>polish bench leg&#45;&#45;polished bench leg</title>
<path fill="none" stroke="black" d="M555.97,-266.25C541.32,-250.94 520,-228.63 505.45,-213.42"/>
<text text-anchor="middle" x="540.87" y="-235.8" font-family="Times,serif" font-size="14.00">1</text>
</g>
<!-- cut bench leg -->
<g id="node22" class="node">
<title>cut bench leg</title>
<polygon fill="none" stroke="black" points="638.51,-124.8 548.23,-124.8 548.23,-88.8 638.51,-88.8 638.51,-124.8"/>
<text text-anchor="middle" x="593.37" y="-102.6" font-family="Times,serif" font-size="14.00">cut bench leg</text>
</g>
<!-- polish bench leg&#45;&#45;cut bench leg -->
<g id="edge31" class="edge">
<title>polish bench leg&#45;&#45;cut bench leg</title>
<path fill="none" stroke="black" d="M574.66,-266.2C576.52,-252.08 579.19,-231.55 581.37,-213.6 585.15,-182.4 589.2,-145.98 591.49,-125.04"/>
<text text-anchor="middle" x="588.87" y="-191.4" font-family="Times,serif" font-size="14.00">1</text>
</g>
<!-- polished bench leg&#45;&#45;cut bench leg -->
<g id="edge32" class="edge">
<title>polished bench leg&#45;&#45;cut bench leg</title>
<path fill="none" stroke="black" d="M509.42,-177.86C527.6,-162.69 554.29,-140.42 572.67,-125.08"/>
<text text-anchor="middle" x="553.87" y="-147" font-family="Times,serif" font-size="14.00">1</text>
</g>
<!-- raw bench leg -->
<g id="node23" class="node">
<title>raw bench leg</title>
<ellipse fill="none" stroke="black" cx="578.37" cy="-18" rx="65.39" ry="18"/>
<text text-anchor="middle" x="578.37" y="-13.8" font-family="Times,serif" font-size="14.00">raw bench leg</text>
</g>
<!-- cut bench leg&#45;&#45;raw bench leg -->
<g id="edge33" class="edge">
<title>cut bench leg&#45;&#45;raw bench leg</title>
<path fill="none" stroke="black" d="M590.4,-88.65C587.77,-73.43 583.95,-51.32 581.32,-36.11"/>
<text text-anchor="middle" x="589.87" y="-58.2" font-family="Times,serif" font-size="14.00">1</text>
</g>
<!-- wood pole 4cm -->
<g id="node24" class="node">
<title>wood pole 4cm</title>
<polygon fill="none" stroke="black" points="824.86,-18 784.11,-36 702.62,-36 661.88,-18 702.62,0 784.11,0 824.86,-18"/>
<text text-anchor="middle" x="743.37" y="-13.8" font-family="Times,serif" font-size="14.00">wood pole 4cm</text>
</g>
<!-- cut bench leg&#45;&#45;wood pole 4cm -->
<g id="edge34" class="edge">
<title>cut bench leg&#45;&#45;wood pole 4cm</title>
<path fill="none" stroke="black" d="M623,-88.65C649.3,-73.43 687.52,-51.32 713.79,-36.11"/>
<text text-anchor="middle" x="693.62" y="-58.2" font-family="Times,serif" font-size="14.00">0,28</text>
</g>
</g>
</svg>
