<svg width="283px" height="1052px"
 viewBox="0.00 0.00 283.49 1052.00" xmlns="http://www.w3.org/2000/svg" xmlns:xlink="http://www.w3.org/1999/xlink">
<g id="graph0" class="graph" transform="scale(1.0 1.0) rotate(0.0) translate(4.0 1048.0)">
<title>PERT_CPM</title>
<polygon fill="white" stroke="none" points="-4,4 -4,-1048 279.49,-1048 279.49,4 -4,4"/>
<!-- START -->
<g id="node1" class="node">
<title>START</title>
<ellipse fill="none" stroke="black" cx="177" cy="-1026" rx="39.07" ry="18"/>
<text text-anchor="middle" x="177" y="-1020.95" font-family="Times New Roman,serif" font-size="14.00">START</text>
</g>
<!-- A (5) -->
<g id="node2" class="node">
<title>A (5)</title>
<ellipse fill="none" stroke="black" cx="119" cy="-954" rx="30.37" ry="18"/>
<text text-anchor="middle" x="119" y="-948.95" font-family="Times New Roman,serif" font-size="14.00">A (5)</text>
</g>
<!-- START&#45;&gt;A (5) -->
<g id="edge1" class="edge">
<title>START&#45;&gt;A (5)</title>
<path fill="none" stroke="black" d="M163.55,-1008.76C156.35,-1000.07 147.33,-989.19 139.29,-979.49"/>
<polygon fill="black" stroke="black" points="142.02,-977.3 132.95,-971.83 136.63,-981.76 142.02,-977.3"/>
</g>
<!-- L (5) -->
<g id="node3" class="node">
<title>L (5)</title>
<ellipse fill="none" stroke="black" cx="177" cy="-594" rx="29.86" ry="18"/>
<text text-anchor="middle" x="177" y="-588.95" font-family="Times New Roman,serif" font-size="14.00">L (5)</text>
</g>
<!-- START&#45;&gt;L (5) -->
<g id="edge2" class="edge">
<title>START&#45;&gt;L (5)</title>
<path fill="none" stroke="black" d="M177,-1007.51C177,-980.71 177,-927.87 177,-883 177,-883 177,-883 177,-737 177,-697.74 177,-652.38 177,-623.69"/>
<polygon fill="black" stroke="black" points="180.5,-624 177,-614 173.5,-624 180.5,-624"/>
</g>
<!-- Q (10) -->
<g id="node4" class="node">
<title>Q (10)</title>
<ellipse fill="none" stroke="black" cx="240" cy="-954" rx="35.49" ry="18"/>
<text text-anchor="middle" x="240" y="-948.95" font-family="Times New Roman,serif" font-size="14.00">Q (10)</text>
</g>
<!-- START&#45;&gt;Q (10) -->
<g id="edge3" class="edge">
<title>START&#45;&gt;Q (10)</title>
<path fill="none" stroke="black" d="M191.3,-1009.12C199.27,-1000.26 209.37,-989.04 218.3,-979.12"/>
<polygon fill="black" stroke="black" points="220.66,-981.72 224.75,-971.95 215.46,-977.04 220.66,-981.72"/>
</g>
<!-- B (8) -->
<g id="node5" class="node">
<title>B (8)</title>
<ellipse fill="none" stroke="black" cx="119" cy="-882" rx="30.37" ry="18"/>
<text text-anchor="middle" x="119" y="-876.95" font-family="Times New Roman,serif" font-size="14.00">B (8)</text>
</g>
<!-- A (5)&#45;&gt;B (8) -->
<g id="edge4" class="edge">
<title>A (5)&#45;&gt;B (8)</title>
<path fill="none" stroke="black" d="M119,-935.7C119,-928.41 119,-919.73 119,-911.54"/>
<polygon fill="black" stroke="black" points="122.5,-911.62 119,-901.62 115.5,-911.62 122.5,-911.62"/>
</g>
<!-- M (2) -->
<g id="node6" class="node">
<title>M (2)</title>
<ellipse fill="none" stroke="black" cx="179" cy="-162" rx="32.93" ry="18"/>
<text text-anchor="middle" x="179" y="-156.95" font-family="Times New Roman,serif" font-size="14.00">M (2)</text>
</g>
<!-- L (5)&#45;&gt;M (2) -->
<g id="edge5" class="edge">
<title>L (5)&#45;&gt;M (2)</title>
<path fill="none" stroke="black" d="M177,-575.51C177,-548.71 177,-495.87 177,-451 177,-451 177,-451 177,-305 177,-265.74 177.77,-220.37 178.36,-191.69"/>
<polygon fill="black" stroke="black" points="181.85,-192.07 178.56,-182 174.85,-191.92 181.85,-192.07"/>
</g>
<!-- R (5) -->
<g id="node7" class="node">
<title>R (5)</title>
<ellipse fill="none" stroke="black" cx="240" cy="-882" rx="30.37" ry="18"/>
<text text-anchor="middle" x="240" y="-876.95" font-family="Times New Roman,serif" font-size="14.00">R (5)</text>
</g>
<!-- Q (10)&#45;&gt;R (5) -->
<g id="edge6" class="edge">
<title>Q (10)&#45;&gt;R (5)</title>
<path fill="none" stroke="black" d="M240,-935.7C240,-928.41 240,-919.73 240,-911.54"/>
<polygon fill="black" stroke="black" points="243.5,-911.62 240,-901.62 236.5,-911.62 243.5,-911.62"/>
</g>
<!-- C (6) -->
<g id="node8" class="node">
<title>C (6)</title>
<ellipse fill="none" stroke="black" cx="119" cy="-810" rx="30.37" ry="18"/>
<text text-anchor="middle" x="119" y="-804.95" font-family="Times New Roman,serif" font-size="14.00">C (6)</text>
</g>
<!-- B (8)&#45;&gt;C (6) -->
<g id="edge7" class="edge">
<title>B (8)&#45;&gt;C (6)</title>
<path fill="none" stroke="black" d="M119,-863.7C119,-856.41 119,-847.73 119,-839.54"/>
<polygon fill="black" stroke="black" points="122.5,-839.62 119,-829.62 115.5,-839.62 122.5,-839.62"/>
</g>
<!-- P (3) -->
<g id="node20" class="node">
<title>P (3)</title>
<ellipse fill="none" stroke="black" cx="118" cy="-90" rx="29.34" ry="18"/>
<text text-anchor="middle" x="118" y="-84.95" font-family="Times New Roman,serif" font-size="14.00">P (3)</text>
</g>
<!-- M (2)&#45;&gt;P (3) -->
<g id="edge24" class="edge">
<title>M (2)&#45;&gt;P (3)</title>
<path fill="none" stroke="black" d="M165.46,-145.46C157.64,-136.49 147.64,-125.02 138.84,-114.92"/>
<polygon fill="black" stroke="black" points="141.7,-112.87 132.49,-107.63 136.43,-117.47 141.7,-112.87"/>
</g>
<!-- S (15) -->
<g id="node21" class="node">
<title>S (15)</title>
<ellipse fill="none" stroke="black" cx="240" cy="-810" rx="33.95" ry="18"/>
<text text-anchor="middle" x="240" y="-804.95" font-family="Times New Roman,serif" font-size="14.00">S (15)</text>
</g>
<!-- R (5)&#45;&gt;S (15) -->
<g id="edge26" class="edge">
<title>R (5)&#45;&gt;S (15)</title>
<path fill="none" stroke="black" d="M240,-863.7C240,-856.41 240,-847.73 240,-839.54"/>
<polygon fill="black" stroke="black" points="243.5,-839.62 240,-829.62 236.5,-839.62 243.5,-839.62"/>
</g>
<!-- D (3) -->
<g id="node9" class="node">
<title>D (3)</title>
<ellipse fill="none" stroke="black" cx="114" cy="-738" rx="30.88" ry="18"/>
<text text-anchor="middle" x="114" y="-732.95" font-family="Times New Roman,serif" font-size="14.00">D (3)</text>
</g>
<!-- C (6)&#45;&gt;D (3) -->
<g id="edge8" class="edge">
<title>C (6)&#45;&gt;D (3)</title>
<path fill="none" stroke="black" d="M117.76,-791.7C117.24,-784.41 116.62,-775.73 116.04,-767.54"/>
<polygon fill="black" stroke="black" points="119.53,-767.34 115.33,-757.61 112.55,-767.84 119.53,-767.34"/>
</g>
<!-- E (5) -->
<g id="node10" class="node">
<title>E (5)</title>
<ellipse fill="none" stroke="black" cx="105" cy="-666" rx="29.86" ry="18"/>
<text text-anchor="middle" x="105" y="-660.95" font-family="Times New Roman,serif" font-size="14.00">E (5)</text>
</g>
<!-- D (3)&#45;&gt;E (5) -->
<g id="edge9" class="edge">
<title>D (3)&#45;&gt;E (5)</title>
<path fill="none" stroke="black" d="M111.78,-719.7C110.83,-712.32 109.7,-703.52 108.63,-695.25"/>
<polygon fill="black" stroke="black" points="112.14,-695.08 107.39,-685.61 105.2,-695.97 112.14,-695.08"/>
</g>
<!-- F (3) -->
<g id="node11" class="node">
<title>F (3)</title>
<ellipse fill="none" stroke="black" cx="99" cy="-594" rx="29.34" ry="18"/>
<text text-anchor="middle" x="99" y="-588.95" font-family="Times New Roman,serif" font-size="14.00">F (3)</text>
</g>
<!-- E (5)&#45;&gt;F (3) -->
<g id="edge10" class="edge">
<title>E (5)&#45;&gt;F (3)</title>
<path fill="none" stroke="black" d="M103.52,-647.7C102.89,-640.41 102.15,-631.73 101.45,-623.54"/>
<polygon fill="black" stroke="black" points="104.94,-623.28 100.6,-613.61 97.96,-623.87 104.94,-623.28"/>
</g>
<!-- G (10) -->
<g id="node12" class="node">
<title>G (10)</title>
<ellipse fill="none" stroke="black" cx="99" cy="-522" rx="35.49" ry="18"/>
<text text-anchor="middle" x="99" y="-516.95" font-family="Times New Roman,serif" font-size="14.00">G (10)</text>
</g>
<!-- F (3)&#45;&gt;G (10) -->
<g id="edge11" class="edge">
<title>F (3)&#45;&gt;G (10)</title>
<path fill="none" stroke="black" d="M99,-575.7C99,-568.41 99,-559.73 99,-551.54"/>
<polygon fill="black" stroke="black" points="102.5,-551.62 99,-541.62 95.5,-551.62 102.5,-551.62"/>
</g>
<!-- N (4) -->
<g id="node13" class="node">
<title>N (4)</title>
<ellipse fill="none" stroke="black" cx="36" cy="-450" rx="30.88" ry="18"/>
<text text-anchor="middle" x="36" y="-444.95" font-family="Times New Roman,serif" font-size="14.00">N (4)</text>
</g>
<!-- F (3)&#45;&gt;N (4) -->
<g id="edge12" class="edge">
<title>F (3)&#45;&gt;N (4)</title>
<path fill="none" stroke="black" d="M83.74,-578.63C74.07,-568.68 62.1,-554.63 55,-540 45.77,-520.97 41,-497.5 38.54,-479.44"/>
<polygon fill="black" stroke="black" points="42.04,-479.21 37.39,-469.69 35.09,-480.03 42.04,-479.21"/>
</g>
<!-- G (10)&#45;&gt;N (4) -->
<g id="edge14" class="edge">
<title>G (10)&#45;&gt;N (4)</title>
<path fill="none" stroke="black" d="M84.7,-505.12C76.62,-496.13 66.35,-484.72 57.33,-474.7"/>
<polygon fill="black" stroke="black" points="60.11,-472.56 50.82,-467.47 54.91,-477.24 60.11,-472.56"/>
</g>
<!-- H (4) -->
<g id="node14" class="node">
<title>H (4)</title>
<ellipse fill="none" stroke="black" cx="116" cy="-450" rx="30.88" ry="18"/>
<text text-anchor="middle" x="116" y="-444.95" font-family="Times New Roman,serif" font-size="14.00">H (4)</text>
</g>
<!-- G (10)&#45;&gt;H (4) -->
<g id="edge13" class="edge">
<title>G (10)&#45;&gt;H (4)</title>
<path fill="none" stroke="black" d="M103.2,-503.7C104.99,-496.32 107.13,-487.52 109.14,-479.25"/>
<polygon fill="black" stroke="black" points="112.53,-480.12 111.49,-469.58 105.73,-478.47 112.53,-480.12"/>
</g>
<!-- END -->
<g id="node15" class="node">
<title>END</title>
<ellipse fill="none" stroke="black" cx="118" cy="-18" rx="29.86" ry="18"/>
<text text-anchor="middle" x="118" y="-12.95" font-family="Times New Roman,serif" font-size="14.00">END</text>
</g>
<!-- N (4)&#45;&gt;END -->
<g id="edge15" class="edge">
<title>N (4)&#45;&gt;END</title>
<path fill="none" stroke="black" d="M28.89,-432.3C18.4,-406.11 0,-353.54 0,-307 0,-307 0,-307 0,-161 0,-106.06 52.89,-61.04 87.85,-37.28"/>
<polygon fill="black" stroke="black" points="89.48,-40.4 95.91,-31.98 85.63,-34.55 89.48,-40.4"/>
</g>
<!-- I (5) -->
<g id="node16" class="node">
<title>I (5)</title>
<ellipse fill="none" stroke="black" cx="116" cy="-378" rx="27.3" ry="18"/>
<text text-anchor="middle" x="116" y="-372.95" font-family="Times New Roman,serif" font-size="14.00">I (5)</text>
</g>
<!-- H (4)&#45;&gt;I (5) -->
<g id="edge16" class="edge">
<title>H (4)&#45;&gt;I (5)</title>
<path fill="none" stroke="black" d="M116,-431.7C116,-424.41 116,-415.73 116,-407.54"/>
<polygon fill="black" stroke="black" points="119.5,-407.62 116,-397.62 112.5,-407.62 119.5,-407.62"/>
</g>
<!-- J (2) -->
<g id="node17" class="node">
<title>J (2)</title>
<ellipse fill="none" stroke="black" cx="117" cy="-306" rx="27.81" ry="18"/>
<text text-anchor="middle" x="117" y="-300.95" font-family="Times New Roman,serif" font-size="14.00">J (2)</text>
</g>
<!-- I (5)&#45;&gt;J (2) -->
<g id="edge17" class="edge">
<title>I (5)&#45;&gt;J (2)</title>
<path fill="none" stroke="black" d="M116.25,-359.7C116.35,-352.41 116.48,-343.73 116.59,-335.54"/>
<polygon fill="black" stroke="black" points="120.09,-335.67 116.73,-325.62 113.09,-335.57 120.09,-335.67"/>
</g>
<!-- O (2) -->
<g id="node18" class="node">
<title>O (2)</title>
<ellipse fill="none" stroke="black" cx="59" cy="-162" rx="30.88" ry="18"/>
<text text-anchor="middle" x="59" y="-156.95" font-family="Times New Roman,serif" font-size="14.00">O (2)</text>
</g>
<!-- I (5)&#45;&gt;O (2) -->
<g id="edge18" class="edge">
<title>I (5)&#45;&gt;O (2)</title>
<path fill="none" stroke="black" d="M102.87,-361.85C94.91,-351.8 85.3,-337.93 80,-324 63.22,-279.84 59.41,-224.5 58.78,-191.54"/>
<polygon fill="black" stroke="black" points="62.28,-191.56 58.69,-181.59 55.28,-191.62 62.28,-191.56"/>
</g>
<!-- K (3) -->
<g id="node19" class="node">
<title>K (3)</title>
<ellipse fill="none" stroke="black" cx="118" cy="-234" rx="30.88" ry="18"/>
<text text-anchor="middle" x="118" y="-228.95" font-family="Times New Roman,serif" font-size="14.00">K (3)</text>
</g>
<!-- J (2)&#45;&gt;K (3) -->
<g id="edge19" class="edge">
<title>J (2)&#45;&gt;K (3)</title>
<path fill="none" stroke="black" d="M117.25,-287.7C117.35,-280.41 117.48,-271.73 117.59,-263.54"/>
<polygon fill="black" stroke="black" points="121.09,-263.67 117.73,-253.62 114.09,-263.57 121.09,-263.67"/>
</g>
<!-- O (2)&#45;&gt;P (3) -->
<g id="edge20" class="edge">
<title>O (2)&#45;&gt;P (3)</title>
<path fill="none" stroke="black" d="M72.09,-145.46C79.58,-136.58 89.13,-125.25 97.58,-115.22"/>
<polygon fill="black" stroke="black" points="100.2,-117.55 103.97,-107.65 94.85,-113.04 100.2,-117.55"/>
</g>
<!-- K (3)&#45;&gt;M (2) -->
<g id="edge21" class="edge">
<title>K (3)&#45;&gt;M (2)</title>
<path fill="none" stroke="black" d="M131.54,-217.46C139.36,-208.49 149.36,-197.02 158.16,-186.92"/>
<polygon fill="black" stroke="black" points="160.57,-189.47 164.51,-179.63 155.3,-184.87 160.57,-189.47"/>
</g>
<!-- K (3)&#45;&gt;O (2) -->
<g id="edge22" class="edge">
<title>K (3)&#45;&gt;O (2)</title>
<path fill="none" stroke="black" d="M104.91,-217.46C97.42,-208.58 87.87,-197.25 79.42,-187.22"/>
<polygon fill="black" stroke="black" points="82.15,-185.04 73.03,-179.65 76.8,-189.55 82.15,-185.04"/>
</g>
<!-- K (3)&#45;&gt;P (3) -->
<g id="edge23" class="edge">
<title>K (3)&#45;&gt;P (3)</title>
<path fill="none" stroke="black" d="M118,-215.59C118,-191.61 118,-148.14 118,-119.42"/>
<polygon fill="black" stroke="black" points="121.5,-119.62 118,-109.62 114.5,-119.62 121.5,-119.62"/>
</g>
<!-- P (3)&#45;&gt;END -->
<g id="edge25" class="edge">
<title>P (3)&#45;&gt;END</title>
<path fill="none" stroke="black" d="M118,-71.7C118,-64.41 118,-55.73 118,-47.54"/>
<polygon fill="black" stroke="black" points="121.5,-47.62 118,-37.62 114.5,-47.62 121.5,-47.62"/>
</g>
<!-- T (7) -->
<g id="node22" class="node">
<title>T (7)</title>
<ellipse fill="none" stroke="black" cx="240" cy="-738" rx="29.86" ry="18"/>
<text text-anchor="middle" x="240" y="-732.95" font-family="Times New Roman,serif" font-size="14.00">T (7)</text>
</g>
<!-- S (15)&#45;&gt;T (7) -->
<g id="edge27" class="edge">
<title>S (15)&#45;&gt;T (7)</title>
<path fill="none" stroke="black" d="M240,-791.7C240,-784.41 240,-775.73 240,-767.54"/>
<polygon fill="black" stroke="black" points="243.5,-767.62 240,-757.62 236.5,-767.62 243.5,-767.62"/>
</g>
<!-- U (10) -->
<g id="node23" class="node">
<title>U (10)</title>
<ellipse fill="none" stroke="black" cx="240" cy="-522" rx="35.49" ry="18"/>
<text text-anchor="middle" x="240" y="-516.95" font-family="Times New Roman,serif" font-size="14.00">U (10)</text>
</g>
<!-- T (7)&#45;&gt;U (10) -->
<g id="edge28" class="edge">
<title>T (7)&#45;&gt;U (10)</title>
<path fill="none" stroke="black" d="M240,-719.85C240,-683.14 240,-596.66 240,-551.53"/>
<polygon fill="black" stroke="black" points="243.5,-551.75 240,-541.75 236.5,-551.75 243.5,-551.75"/>
</g>
<!-- U (10)&#45;&gt;END -->
<g id="edge29" class="edge">
<title>U (10)&#45;&gt;END</title>
<path fill="none" stroke="black" d="M240,-503.51C240,-476.71 240,-423.87 240,-379 240,-379 240,-379 240,-161 240,-105.3 185.32,-60.53 149.17,-37.03"/>
<polygon fill="black" stroke="black" points="151.14,-34.13 140.81,-31.78 147.42,-40.06 151.14,-34.13"/>
</g>
</g>
</svg>
