<svg width="470px" height="476px"
 viewBox="0.00 0.00 470.17 476.00" xmlns="http://www.w3.org/2000/svg" xmlns:xlink="http://www.w3.org/1999/xlink">
<g id="graph0" class="graph" transform="scale(1.0 1.0) rotate(0.0) translate(4.0 472.0)">
<title>PERT_CPM</title>
<polygon fill="white" stroke="none" points="-4,4 -4,-472 466.17,-472 466.17,4 -4,4"/>
<!-- START -->
<g id="node1" class="node">
<title>START</title>
<ellipse fill="none" stroke="black" cx="287.3" cy="-450" rx="39.07" ry="18"/>
<text text-anchor="middle" x="287.3" y="-444.95" font-family="Times New Roman,serif" font-size="14.00">START</text>
</g>
<!-- A (1 week) -->
<g id="node2" class="node">
<title>A (1 week)</title>
<ellipse fill="none" stroke="black" cx="226.3" cy="-378" rx="52.38" ry="18"/>
<text text-anchor="middle" x="226.3" y="-372.95" font-family="Times New Roman,serif" font-size="14.00">A (1 week)</text>
</g>
<!-- START&#45;&gt;A (1 week) -->
<g id="edge1" class="edge">
<title>START&#45;&gt;A (1 week)</title>
<path fill="none" stroke="black" d="M273.16,-432.76C265.79,-424.32 256.63,-413.8 248.36,-404.31"/>
<polygon fill="black" stroke="black" points="251,-402.01 241.79,-396.77 245.72,-406.61 251,-402.01"/>
</g>
<!-- B (4 week) -->
<g id="node3" class="node">
<title>B (4 week)</title>
<ellipse fill="none" stroke="black" cx="349.3" cy="-378" rx="52.38" ry="18"/>
<text text-anchor="middle" x="349.3" y="-372.95" font-family="Times New Roman,serif" font-size="14.00">B (4 week)</text>
</g>
<!-- START&#45;&gt;B (4 week) -->
<g id="edge2" class="edge">
<title>START&#45;&gt;B (4 week)</title>
<path fill="none" stroke="black" d="M301.37,-433.12C309.03,-424.47 318.68,-413.58 327.31,-403.83"/>
<polygon fill="black" stroke="black" points="329.85,-406.25 333.86,-396.44 324.61,-401.61 329.85,-406.25"/>
</g>
<!-- D (3 week) -->
<g id="node4" class="node">
<title>D (3 week)</title>
<ellipse fill="none" stroke="black" cx="226.3" cy="-306" rx="52.89" ry="18"/>
<text text-anchor="middle" x="226.3" y="-300.95" font-family="Times New Roman,serif" font-size="14.00">D (3 week)</text>
</g>
<!-- A (1 week)&#45;&gt;D (3 week) -->
<g id="edge3" class="edge">
<title>A (1 week)&#45;&gt;D (3 week)</title>
<path fill="none" stroke="black" d="M226.3,-359.7C226.3,-352.41 226.3,-343.73 226.3,-335.54"/>
<polygon fill="black" stroke="black" points="229.8,-335.62 226.3,-325.62 222.8,-335.62 229.8,-335.62"/>
</g>
<!-- C (2 week) -->
<g id="node5" class="node">
<title>C (2 week)</title>
<ellipse fill="none" stroke="black" cx="349.3" cy="-306" rx="52.38" ry="18"/>
<text text-anchor="middle" x="349.3" y="-300.95" font-family="Times New Roman,serif" font-size="14.00">C (2 week)</text>
</g>
<!-- B (4 week)&#45;&gt;C (2 week) -->
<g id="edge4" class="edge">
<title>B (4 week)&#45;&gt;C (2 week)</title>
<path fill="none" stroke="black" d="M349.3,-359.7C349.3,-352.41 349.3,-343.73 349.3,-335.54"/>
<polygon fill="black" stroke="black" points="352.8,-335.62 349.3,-325.62 345.8,-335.62 352.8,-335.62"/>
</g>
<!-- E (2 week) -->
<g id="node6" class="node">
<title>E (2 week)</title>
<ellipse fill="none" stroke="black" cx="226.3" cy="-234" rx="51.86" ry="18"/>
<text text-anchor="middle" x="226.3" y="-228.95" font-family="Times New Roman,serif" font-size="14.00">E (2 week)</text>
</g>
<!-- D (3 week)&#45;&gt;E (2 week) -->
<g id="edge5" class="edge">
<title>D (3 week)&#45;&gt;E (2 week)</title>
<path fill="none" stroke="black" d="M226.3,-287.7C226.3,-280.41 226.3,-271.73 226.3,-263.54"/>
<polygon fill="black" stroke="black" points="229.8,-263.62 226.3,-253.62 222.8,-263.62 229.8,-263.62"/>
</g>
<!-- F (4 week) -->
<g id="node7" class="node">
<title>F (4 week)</title>
<ellipse fill="none" stroke="black" cx="364.3" cy="-234" rx="51.35" ry="18"/>
<text text-anchor="middle" x="364.3" y="-228.95" font-family="Times New Roman,serif" font-size="14.00">F (4 week)</text>
</g>
<!-- C (2 week)&#45;&gt;F (4 week) -->
<g id="edge6" class="edge">
<title>C (2 week)&#45;&gt;F (4 week)</title>
<path fill="none" stroke="black" d="M353.01,-287.7C354.59,-280.32 356.48,-271.52 358.25,-263.25"/>
<polygon fill="black" stroke="black" points="361.65,-264.1 360.32,-253.58 354.8,-262.63 361.65,-264.1"/>
</g>
<!-- G (3 week) -->
<g id="node9" class="node">
<title>G (3 week)</title>
<ellipse fill="none" stroke="black" cx="226.3" cy="-162" rx="52.89" ry="18"/>
<text text-anchor="middle" x="226.3" y="-156.95" font-family="Times New Roman,serif" font-size="14.00">G (3 week)</text>
</g>
<!-- E (2 week)&#45;&gt;G (3 week) -->
<g id="edge8" class="edge">
<title>E (2 week)&#45;&gt;G (3 week)</title>
<path fill="none" stroke="black" d="M226.3,-215.7C226.3,-208.41 226.3,-199.73 226.3,-191.54"/>
<polygon fill="black" stroke="black" points="229.8,-191.62 226.3,-181.62 222.8,-191.62 229.8,-191.62"/>
</g>
<!-- H (2 week) -->
<g id="node8" class="node">
<title>H (2 week)</title>
<ellipse fill="none" stroke="black" cx="380.3" cy="-162" rx="52.89" ry="18"/>
<text text-anchor="middle" x="380.3" y="-156.95" font-family="Times New Roman,serif" font-size="14.00">H (2 week)</text>
</g>
<!-- F (4 week)&#45;&gt;H (2 week) -->
<g id="edge7" class="edge">
<title>F (4 week)&#45;&gt;H (2 week)</title>
<path fill="none" stroke="black" d="M368.26,-215.7C369.94,-208.32 371.96,-199.52 373.85,-191.25"/>
<polygon fill="black" stroke="black" points="377.24,-192.11 376.06,-181.58 370.42,-190.55 377.24,-192.11"/>
</g>
<!-- L (2 week) -->
<g id="node13" class="node">
<title>L (2 week)</title>
<ellipse fill="none" stroke="black" cx="410.3" cy="-90" rx="51.86" ry="18"/>
<text text-anchor="middle" x="410.3" y="-84.95" font-family="Times New Roman,serif" font-size="14.00">L (2 week)</text>
</g>
<!-- H (2 week)&#45;&gt;L (2 week) -->
<g id="edge12" class="edge">
<title>H (2 week)&#45;&gt;L (2 week)</title>
<path fill="none" stroke="black" d="M387.72,-143.7C390.95,-136.15 394.82,-127.12 398.44,-118.68"/>
<polygon fill="black" stroke="black" points="401.66,-120.07 402.38,-109.5 395.22,-117.31 401.66,-120.07"/>
</g>
<!-- I (1 week) -->
<g id="node10" class="node">
<title>I (1 week)</title>
<ellipse fill="none" stroke="black" cx="49.3" cy="-90" rx="49.3" ry="18"/>
<text text-anchor="middle" x="49.3" y="-84.95" font-family="Times New Roman,serif" font-size="14.00">I (1 week)</text>
</g>
<!-- G (3 week)&#45;&gt;I (1 week) -->
<g id="edge9" class="edge">
<title>G (3 week)&#45;&gt;I (1 week)</title>
<path fill="none" stroke="black" d="M192.6,-147.67C164.15,-136.42 123.26,-120.25 92.44,-108.06"/>
<polygon fill="black" stroke="black" points="93.98,-104.91 83.4,-104.48 91.41,-111.42 93.98,-104.91"/>
</g>
<!-- J (1 week) -->
<g id="node11" class="node">
<title>J (1 week)</title>
<ellipse fill="none" stroke="black" cx="166.3" cy="-90" rx="49.82" ry="18"/>
<text text-anchor="middle" x="166.3" y="-84.95" font-family="Times New Roman,serif" font-size="14.00">J (1 week)</text>
</g>
<!-- G (3 week)&#45;&gt;J (1 week) -->
<g id="edge10" class="edge">
<title>G (3 week)&#45;&gt;J (1 week)</title>
<path fill="none" stroke="black" d="M212.09,-144.41C204.84,-135.95 195.87,-125.49 187.8,-116.08"/>
<polygon fill="black" stroke="black" points="190.57,-113.93 181.41,-108.62 185.26,-118.49 190.57,-113.93"/>
</g>
<!-- K (1 week) -->
<g id="node12" class="node">
<title>K (1 week)</title>
<ellipse fill="none" stroke="black" cx="287.3" cy="-90" rx="52.89" ry="18"/>
<text text-anchor="middle" x="287.3" y="-84.95" font-family="Times New Roman,serif" font-size="14.00">K (1 week)</text>
</g>
<!-- G (3 week)&#45;&gt;K (1 week) -->
<g id="edge11" class="edge">
<title>G (3 week)&#45;&gt;K (1 week)</title>
<path fill="none" stroke="black" d="M240.76,-144.41C248.13,-135.95 257.24,-125.49 265.45,-116.08"/>
<polygon fill="black" stroke="black" points="268.03,-118.45 271.96,-108.61 262.75,-113.85 268.03,-118.45"/>
</g>
<!-- END -->
<g id="node14" class="node">
<title>END</title>
<ellipse fill="none" stroke="black" cx="226.3" cy="-18" rx="29.86" ry="18"/>
<text text-anchor="middle" x="226.3" y="-12.95" font-family="Times New Roman,serif" font-size="14.00">END</text>
</g>
<!-- I (1 week)&#45;&gt;END -->
<g id="edge13" class="edge">
<title>I (1 week)&#45;&gt;END</title>
<path fill="none" stroke="black" d="M81.77,-76.16C112.75,-63.91 159.29,-45.5 191.13,-32.91"/>
<polygon fill="black" stroke="black" points="192.32,-36.21 200.33,-29.27 189.74,-29.7 192.32,-36.21"/>
</g>
<!-- J (1 week)&#45;&gt;END -->
<g id="edge14" class="edge">
<title>J (1 week)&#45;&gt;END</title>
<path fill="none" stroke="black" d="M180.52,-72.41C188.06,-63.62 197.45,-52.66 205.76,-42.96"/>
<polygon fill="black" stroke="black" points="208.17,-45.53 212.02,-35.66 202.86,-40.97 208.17,-45.53"/>
</g>
<!-- K (1 week)&#45;&gt;END -->
<g id="edge15" class="edge">
<title>K (1 week)&#45;&gt;END</title>
<path fill="none" stroke="black" d="M272.85,-72.41C265.19,-63.62 255.64,-52.66 247.19,-42.96"/>
<polygon fill="black" stroke="black" points="250.02,-40.89 240.82,-35.65 244.75,-45.49 250.02,-40.89"/>
</g>
<!-- L (2 week)&#45;&gt;END -->
<g id="edge16" class="edge">
<title>L (2 week)&#45;&gt;END</title>
<path fill="none" stroke="black" d="M376.13,-76C343.54,-63.6 294.67,-45.01 261.69,-32.46"/>
<polygon fill="black" stroke="black" points="263.17,-29.28 252.58,-28.99 260.68,-35.82 263.17,-29.28"/>
</g>
</g>
</svg>
