<svg width="544px" height="1052px"
 viewBox="0.00 0.00 543.93 1052.00" xmlns="http://www.w3.org/2000/svg" xmlns:xlink="http://www.w3.org/1999/xlink">
<g id="graph0" class="graph" transform="scale(1.0 1.0) rotate(0.0) translate(4.0 1048.0)">
<title>PERT_CPM</title>
<polygon fill="white" stroke="none" points="-4,4 -4,-1048 539.93,-1048 539.93,4 -4,4"/>
<!-- START -->
<g id="node1" class="node">
<title>START</title>
<ellipse fill="none" stroke="black" cx="398" cy="-1026" rx="39.07" ry="18"/>
<text text-anchor="middle" x="398" y="-1020.95" font-family="Times New Roman,serif" font-size="14.00">START</text>
</g>
<!-- A (5 days) -->
<g id="node2" class="node">
<title>A (5 days)</title>
<ellipse fill="none" stroke="black" cx="320" cy="-954" rx="49.82" ry="18"/>
<text text-anchor="middle" x="320" y="-948.95" font-family="Times New Roman,serif" font-size="14.00">A (5 days)</text>
</g>
<!-- START&#45;&gt;A (5 days) -->
<g id="edge1" class="edge">
<title>START&#45;&gt;A (5 days)</title>
<path fill="none" stroke="black" d="M380.69,-1009.46C370.6,-1000.41 357.68,-988.82 346.35,-978.65"/>
<polygon fill="black" stroke="black" points="348.98,-976.31 339.2,-972.23 344.31,-981.52 348.98,-976.31"/>
</g>
<!-- L (5 days) -->
<g id="node3" class="node">
<title>L (5 days)</title>
<ellipse fill="none" stroke="black" cx="398" cy="-594" rx="49.3" ry="18"/>
<text text-anchor="middle" x="398" y="-588.95" font-family="Times New Roman,serif" font-size="14.00">L (5 days)</text>
</g>
<!-- START&#45;&gt;L (5 days) -->
<g id="edge2" class="edge">
<title>START&#45;&gt;L (5 days)</title>
<path fill="none" stroke="black" d="M398,-1007.51C398,-980.71 398,-927.87 398,-883 398,-883 398,-883 398,-737 398,-697.74 398,-652.38 398,-623.69"/>
<polygon fill="black" stroke="black" points="401.5,-624 398,-614 394.5,-624 401.5,-624"/>
</g>
<!-- Q (10 days) -->
<g id="node4" class="node">
<title>Q (10 days)</title>
<ellipse fill="none" stroke="black" cx="481" cy="-954" rx="54.93" ry="18"/>
<text text-anchor="middle" x="481" y="-948.95" font-family="Times New Roman,serif" font-size="14.00">Q (10 days)</text>
</g>
<!-- START&#45;&gt;Q (10 days) -->
<g id="edge3" class="edge">
<title>START&#45;&gt;Q (10 days)</title>
<path fill="none" stroke="black" d="M416.01,-1009.81C426.91,-1000.62 441.02,-988.72 453.31,-978.35"/>
<polygon fill="black" stroke="black" points="455.33,-981.23 460.71,-972.11 450.81,-975.88 455.33,-981.23"/>
</g>
<!-- B (8 days) -->
<g id="node5" class="node">
<title>B (8 days)</title>
<ellipse fill="none" stroke="black" cx="320" cy="-882" rx="49.82" ry="18"/>
<text text-anchor="middle" x="320" y="-876.95" font-family="Times New Roman,serif" font-size="14.00">B (8 days)</text>
</g>
<!-- A (5 days)&#45;&gt;B (8 days) -->
<g id="edge4" class="edge">
<title>A (5 days)&#45;&gt;B (8 days)</title>
<path fill="none" stroke="black" d="M320,-935.7C320,-928.41 320,-919.73 320,-911.54"/>
<polygon fill="black" stroke="black" points="323.5,-911.62 320,-901.62 316.5,-911.62 323.5,-911.62"/>
</g>
<!-- M (2 days) -->
<g id="node6" class="node">
<title>M (2 days)</title>
<ellipse fill="none" stroke="black" cx="401" cy="-162" rx="52.38" ry="18"/>
<text text-anchor="middle" x="401" y="-156.95" font-family="Times New Roman,serif" font-size="14.00">M (2 days)</text>
</g>
<!-- L (5 days)&#45;&gt;M (2 days) -->
<g id="edge5" class="edge">
<title>L (5 days)&#45;&gt;M (2 days)</title>
<path fill="none" stroke="black" d="M398,-575.51C398,-548.71 398,-495.87 398,-451 398,-451 398,-451 398,-305 398,-265.73 399.16,-220.37 400.04,-191.69"/>
<polygon fill="black" stroke="black" points="403.53,-192.1 400.35,-182 396.53,-191.88 403.53,-192.1"/>
</g>
<!-- R (5 days) -->
<g id="node7" class="node">
<title>R (5 days)</title>
<ellipse fill="none" stroke="black" cx="481" cy="-882" rx="49.82" ry="18"/>
<text text-anchor="middle" x="481" y="-876.95" font-family="Times New Roman,serif" font-size="14.00">R (5 days)</text>
</g>
<!-- Q (10 days)&#45;&gt;R (5 days) -->
<g id="edge6" class="edge">
<title>Q (10 days)&#45;&gt;R (5 days)</title>
<path fill="none" stroke="black" d="M481,-935.7C481,-928.41 481,-919.73 481,-911.54"/>
<polygon fill="black" stroke="black" points="484.5,-911.62 481,-901.62 477.5,-911.62 484.5,-911.62"/>
</g>
<!-- C (6 days) -->
<g id="node8" class="node">
<title>C (6 days)</title>
<ellipse fill="none" stroke="black" cx="320" cy="-810" rx="49.82" ry="18"/>
<text text-anchor="middle" x="320" y="-804.95" font-family="Times New Roman,serif" font-size="14.00">C (6 days)</text>
</g>
<!-- B (8 days)&#45;&gt;C (6 days) -->
<g id="edge7" class="edge">
<title>B (8 days)&#45;&gt;C (6 days)</title>
<path fill="none" stroke="black" d="M320,-863.7C320,-856.41 320,-847.73 320,-839.54"/>
<polygon fill="black" stroke="black" points="323.5,-839.62 320,-829.62 316.5,-839.62 323.5,-839.62"/>
</g>
<!-- P (3 days) -->
<g id="node21" class="node">
<title>P (3 days)</title>
<ellipse fill="none" stroke="black" cx="206" cy="-90" rx="48.79" ry="18"/>
<text text-anchor="middle" x="206" y="-84.95" font-family="Times New Roman,serif" font-size="14.00">P (3 days)</text>
</g>
<!-- M (2 days)&#45;&gt;P (3 days) -->
<g id="edge27" class="edge">
<title>M (2 days)&#45;&gt;P (3 days)</title>
<path fill="none" stroke="black" d="M365.69,-148.32C333.36,-136.72 285.38,-119.5 250.46,-106.96"/>
<polygon fill="black" stroke="black" points="252.09,-103.83 241.49,-103.74 249.72,-110.41 252.09,-103.83"/>
</g>
<!-- S (15 days) -->
<g id="node22" class="node">
<title>S (15 days)</title>
<ellipse fill="none" stroke="black" cx="481" cy="-810" rx="53.4" ry="18"/>
<text text-anchor="middle" x="481" y="-804.95" font-family="Times New Roman,serif" font-size="14.00">S (15 days)</text>
</g>
<!-- R (5 days)&#45;&gt;S (15 days) -->
<g id="edge29" class="edge">
<title>R (5 days)&#45;&gt;S (15 days)</title>
<path fill="none" stroke="black" d="M481,-863.7C481,-856.41 481,-847.73 481,-839.54"/>
<polygon fill="black" stroke="black" points="484.5,-839.62 481,-829.62 477.5,-839.62 484.5,-839.62"/>
</g>
<!-- D (3 days) -->
<g id="node9" class="node">
<title>D (3 days)</title>
<ellipse fill="none" stroke="black" cx="276" cy="-738" rx="50.33" ry="18"/>
<text text-anchor="middle" x="276" y="-732.95" font-family="Times New Roman,serif" font-size="14.00">D (3 days)</text>
</g>
<!-- C (6 days)&#45;&gt;D (3 days) -->
<g id="edge8" class="edge">
<title>C (6 days)&#45;&gt;D (3 days)</title>
<path fill="none" stroke="black" d="M309.35,-792.05C304.32,-784.06 298.21,-774.33 292.59,-765.4"/>
<polygon fill="black" stroke="black" points="295.64,-763.67 287.36,-757.07 289.72,-767.4 295.64,-763.67"/>
</g>
<!-- E (5 days) -->
<g id="node10" class="node">
<title>E (5 days)</title>
<ellipse fill="none" stroke="black" cx="188" cy="-666" rx="49.3" ry="18"/>
<text text-anchor="middle" x="188" y="-660.95" font-family="Times New Roman,serif" font-size="14.00">E (5 days)</text>
</g>
<!-- D (3 days)&#45;&gt;E (5 days) -->
<g id="edge9" class="edge">
<title>D (3 days)&#45;&gt;E (5 days)</title>
<path fill="none" stroke="black" d="M256.03,-721.12C244.44,-711.9 229.65,-700.13 216.81,-689.92"/>
<polygon fill="black" stroke="black" points="219.08,-687.25 209.07,-683.76 214.72,-692.73 219.08,-687.25"/>
</g>
<!-- F (3 days) -->
<g id="node11" class="node">
<title>F (3 days)</title>
<ellipse fill="none" stroke="black" cx="161" cy="-594" rx="48.79" ry="18"/>
<text text-anchor="middle" x="161" y="-588.95" font-family="Times New Roman,serif" font-size="14.00">F (3 days)</text>
</g>
<!-- E (5 days)&#45;&gt;F (3 days) -->
<g id="edge10" class="edge">
<title>E (5 days)&#45;&gt;F (3 days)</title>
<path fill="none" stroke="black" d="M181.33,-647.7C178.42,-640.15 174.93,-631.12 171.68,-622.68"/>
<polygon fill="black" stroke="black" points="175.01,-621.59 168.14,-613.52 168.48,-624.11 175.01,-621.59"/>
</g>
<!-- G (10 days) -->
<g id="node12" class="node">
<title>G (10 days)</title>
<ellipse fill="none" stroke="black" cx="161" cy="-522" rx="54.93" ry="18"/>
<text text-anchor="middle" x="161" y="-516.95" font-family="Times New Roman,serif" font-size="14.00">G (10 days)</text>
</g>
<!-- F (3 days)&#45;&gt;G (10 days) -->
<g id="edge11" class="edge">
<title>F (3 days)&#45;&gt;G (10 days)</title>
<path fill="none" stroke="black" d="M161,-575.7C161,-568.41 161,-559.73 161,-551.54"/>
<polygon fill="black" stroke="black" points="164.5,-551.62 161,-541.62 157.5,-551.62 164.5,-551.62"/>
</g>
<!-- N (4 days) -->
<g id="node13" class="node">
<title>N (4 days)</title>
<ellipse fill="none" stroke="black" cx="51" cy="-450" rx="50.33" ry="18"/>
<text text-anchor="middle" x="51" y="-444.95" font-family="Times New Roman,serif" font-size="14.00">N (4 days)</text>
</g>
<!-- F (3 days)&#45;&gt;N (4 days) -->
<g id="edge12" class="edge">
<title>F (3 days)&#45;&gt;N (4 days)</title>
<path fill="none" stroke="black" d="M138.3,-577.74C125.08,-568.04 108.76,-554.61 97,-540 82.02,-521.4 69.88,-497.16 61.84,-478.67"/>
<polygon fill="black" stroke="black" points="65.16,-477.54 58.07,-469.67 58.7,-480.24 65.16,-477.54"/>
</g>
<!-- G (10 days)&#45;&gt;N (4 days) -->
<g id="edge14" class="edge">
<title>G (10 days)&#45;&gt;N (4 days)</title>
<path fill="none" stroke="black" d="M136.59,-505.46C121.24,-495.7 101.24,-482.97 84.43,-472.28"/>
<polygon fill="black" stroke="black" points="86.56,-469.48 76.24,-467.06 82.8,-475.39 86.56,-469.48"/>
</g>
<!-- H (4 days) -->
<g id="node14" class="node">
<title>H (4 days)</title>
<ellipse fill="none" stroke="black" cx="170" cy="-450" rx="50.33" ry="18"/>
<text text-anchor="middle" x="170" y="-444.95" font-family="Times New Roman,serif" font-size="14.00">H (4 days)</text>
</g>
<!-- G (10 days)&#45;&gt;H (4 days) -->
<g id="edge13" class="edge">
<title>G (10 days)&#45;&gt;H (4 days)</title>
<path fill="none" stroke="black" d="M163.22,-503.7C164.17,-496.32 165.3,-487.52 166.37,-479.25"/>
<polygon fill="black" stroke="black" points="169.8,-479.97 167.61,-469.61 162.86,-479.08 169.8,-479.97"/>
</g>
<!-- END -->
<g id="node15" class="node">
<title>END</title>
<ellipse fill="none" stroke="black" cx="206" cy="-18" rx="29.86" ry="18"/>
<text text-anchor="middle" x="206" y="-12.95" font-family="Times New Roman,serif" font-size="14.00">END</text>
</g>
<!-- N (4 days)&#45;&gt;END -->
<g id="edge15" class="edge">
<title>N (4 days)&#45;&gt;END</title>
<path fill="none" stroke="black" d="M40.68,-432.21C25.78,-406.33 0,-354.67 0,-307 0,-307 0,-307 0,-161 0,-80.81 107.12,-42.43 166.87,-27.26"/>
<polygon fill="black" stroke="black" points="167.42,-30.73 176.32,-24.97 165.77,-23.93 167.42,-30.73"/>
</g>
<!-- I (5 days) -->
<g id="node16" class="node">
<title>I (5 days)</title>
<ellipse fill="none" stroke="black" cx="170" cy="-378" rx="46.75" ry="18"/>
<text text-anchor="middle" x="170" y="-372.95" font-family="Times New Roman,serif" font-size="14.00">I (5 days)</text>
</g>
<!-- H (4 days)&#45;&gt;I (5 days) -->
<g id="edge16" class="edge">
<title>H (4 days)&#45;&gt;I (5 days)</title>
<path fill="none" stroke="black" d="M170,-431.7C170,-424.41 170,-415.73 170,-407.54"/>
<polygon fill="black" stroke="black" points="173.5,-407.62 170,-397.62 166.5,-407.62 173.5,-407.62"/>
</g>
<!-- J (2 days) -->
<g id="node17" class="node">
<title>J (2 days)</title>
<ellipse fill="none" stroke="black" cx="170" cy="-306" rx="47.26" ry="18"/>
<text text-anchor="middle" x="170" y="-300.95" font-family="Times New Roman,serif" font-size="14.00">J (2 days)</text>
</g>
<!-- I (5 days)&#45;&gt;J (2 days) -->
<g id="edge17" class="edge">
<title>I (5 days)&#45;&gt;J (2 days)</title>
<path fill="none" stroke="black" d="M170,-359.7C170,-352.41 170,-343.73 170,-335.54"/>
<polygon fill="black" stroke="black" points="173.5,-335.62 170,-325.62 166.5,-335.62 173.5,-335.62"/>
</g>
<!-- O (2 days) -->
<g id="node18" class="node">
<title>O (2 days)</title>
<ellipse fill="none" stroke="black" cx="78" cy="-162" rx="50.33" ry="18"/>
<text text-anchor="middle" x="78" y="-156.95" font-family="Times New Roman,serif" font-size="14.00">O (2 days)</text>
</g>
<!-- I (5 days)&#45;&gt;O (2 days) -->
<g id="edge18" class="edge">
<title>I (5 days)&#45;&gt;O (2 days)</title>
<path fill="none" stroke="black" d="M148.35,-361.67C136.46,-352.15 122.46,-338.9 114,-324 90.07,-281.85 82.04,-225.08 79.36,-191.43"/>
<polygon fill="black" stroke="black" points="82.86,-191.4 78.69,-181.66 75.88,-191.87 82.86,-191.4"/>
</g>
<!-- O (100002 days) -->
<g id="node19" class="node">
<title>O (100002 days)</title>
<ellipse fill="none" stroke="black" cx="257" cy="-162" rx="73.36" ry="18"/>
<text text-anchor="middle" x="257" y="-156.95" font-family="Times New Roman,serif" font-size="14.00">O (100002 days)</text>
</g>
<!-- I (5 days)&#45;&gt;O (100002 days) -->
<g id="edge19" class="edge">
<title>I (5 days)&#45;&gt;O (100002 days)</title>
<path fill="none" stroke="black" d="M191.82,-361.77C203.76,-352.27 217.76,-339.02 226,-324 249.16,-281.77 255.25,-225.02 256.71,-191.4"/>
<polygon fill="black" stroke="black" points="260.2,-191.75 257.02,-181.64 253.21,-191.53 260.2,-191.75"/>
</g>
<!-- K (3 days) -->
<g id="node20" class="node">
<title>K (3 days)</title>
<ellipse fill="none" stroke="black" cx="170" cy="-234" rx="50.33" ry="18"/>
<text text-anchor="middle" x="170" y="-228.95" font-family="Times New Roman,serif" font-size="14.00">K (3 days)</text>
</g>
<!-- J (2 days)&#45;&gt;K (3 days) -->
<g id="edge20" class="edge">
<title>J (2 days)&#45;&gt;K (3 days)</title>
<path fill="none" stroke="black" d="M170,-287.7C170,-280.41 170,-271.73 170,-263.54"/>
<polygon fill="black" stroke="black" points="173.5,-263.62 170,-253.62 166.5,-263.62 173.5,-263.62"/>
</g>
<!-- O (2 days)&#45;&gt;P (3 days) -->
<g id="edge21" class="edge">
<title>O (2 days)&#45;&gt;P (3 days)</title>
<path fill="none" stroke="black" d="M104.83,-146.33C123.65,-136.04 149.02,-122.16 169.65,-110.88"/>
<polygon fill="black" stroke="black" points="171.22,-114.01 178.31,-106.14 167.86,-107.87 171.22,-114.01"/>
</g>
<!-- O (100002 days)&#45;&gt;P (3 days) -->
<g id="edge22" class="edge">
<title>O (100002 days)&#45;&gt;P (3 days)</title>
<path fill="none" stroke="black" d="M244.65,-144.05C238.7,-135.89 231.44,-125.91 224.81,-116.82"/>
<polygon fill="black" stroke="black" points="227.84,-115.03 219.12,-109.01 222.18,-119.16 227.84,-115.03"/>
</g>
<!-- K (3 days)&#45;&gt;M (2 days) -->
<g id="edge23" class="edge">
<title>K (3 days)&#45;&gt;M (2 days)</title>
<path fill="none" stroke="black" d="M207.63,-221.6C246.91,-209.69 308.68,-190.97 351.81,-177.91"/>
<polygon fill="black" stroke="black" points="352.61,-181.32 361.17,-175.07 350.58,-174.62 352.61,-181.32"/>
</g>
<!-- K (3 days)&#45;&gt;O (2 days) -->
<g id="edge24" class="edge">
<title>K (3 days)&#45;&gt;O (2 days)</title>
<path fill="none" stroke="black" d="M149.58,-217.46C137.28,-208.11 121.4,-196.02 107.72,-185.62"/>
<polygon fill="black" stroke="black" points="109.96,-182.92 99.88,-179.65 105.72,-188.49 109.96,-182.92"/>
</g>
<!-- K (3 days)&#45;&gt;O (100002 days) -->
<g id="edge26" class="edge">
<title>K (3 days)&#45;&gt;O (100002 days)</title>
<path fill="none" stroke="black" d="M189.74,-217.12C200.96,-208.09 215.21,-196.62 227.71,-186.57"/>
<polygon fill="black" stroke="black" points="229.65,-189.5 235.25,-180.5 225.26,-184.04 229.65,-189.5"/>
</g>
<!-- K (3 days)&#45;&gt;P (3 days) -->
<g id="edge25" class="edge">
<title>K (3 days)&#45;&gt;P (3 days)</title>
<path fill="none" stroke="black" d="M168.6,-215.52C167.69,-197.27 167.77,-168 175,-144 177.77,-134.81 182.42,-125.54 187.29,-117.37"/>
<polygon fill="black" stroke="black" points="190.22,-119.29 192.64,-108.98 184.31,-115.53 190.22,-119.29"/>
</g>
<!-- P (3 days)&#45;&gt;END -->
<g id="edge28" class="edge">
<title>P (3 days)&#45;&gt;END</title>
<path fill="none" stroke="black" d="M206,-71.7C206,-64.41 206,-55.73 206,-47.54"/>
<polygon fill="black" stroke="black" points="209.5,-47.62 206,-37.62 202.5,-47.62 209.5,-47.62"/>
</g>
<!-- T (7 days) -->
<g id="node23" class="node">
<title>T (7 days)</title>
<ellipse fill="none" stroke="black" cx="481" cy="-738" rx="49.3" ry="18"/>
<text text-anchor="middle" x="481" y="-732.95" font-family="Times New Roman,serif" font-size="14.00">T (7 days)</text>
</g>
<!-- S (15 days)&#45;&gt;T (7 days) -->
<g id="edge30" class="edge">
<title>S (15 days)&#45;&gt;T (7 days)</title>
<path fill="none" stroke="black" d="M481,-791.7C481,-784.41 481,-775.73 481,-767.54"/>
<polygon fill="black" stroke="black" points="484.5,-767.62 481,-757.62 477.5,-767.62 484.5,-767.62"/>
</g>
<!-- U (10 days) -->
<g id="node24" class="node">
<title>U (10 days)</title>
<ellipse fill="none" stroke="black" cx="481" cy="-522" rx="54.93" ry="18"/>
<text text-anchor="middle" x="481" y="-516.95" font-family="Times New Roman,serif" font-size="14.00">U (10 days)</text>
</g>
<!-- T (7 days)&#45;&gt;U (10 days) -->
<g id="edge31" class="edge">
<title>T (7 days)&#45;&gt;U (10 days)</title>
<path fill="none" stroke="black" d="M481,-719.85C481,-683.14 481,-596.66 481,-551.53"/>
<polygon fill="black" stroke="black" points="484.5,-551.75 481,-541.75 477.5,-551.75 484.5,-551.75"/>
</g>
<!-- U (10 days)&#45;&gt;END -->
<g id="edge32" class="edge">
<title>U (10 days)&#45;&gt;END</title>
<path fill="none" stroke="black" d="M481,-503.51C481,-476.71 481,-423.87 481,-379 481,-379 481,-379 481,-161 481,-56.99 323.78,-29.09 247.09,-21.66"/>
<polygon fill="black" stroke="black" points="247.73,-18.2 237.46,-20.8 247.11,-25.18 247.73,-18.2"/>
</g>
</g>
</svg>
