<svg width="405px" height="1052px"
 viewBox="0.00 0.00 405.42 1052.00" xmlns="http://www.w3.org/2000/svg" xmlns:xlink="http://www.w3.org/1999/xlink">
<g id="graph0" class="graph" transform="scale(1.0 1.0) rotate(0.0) translate(4.0 1048.0)">
<title>PERT_CPM</title>
<polygon fill="white" stroke="transparent" points="-4,4 -4,-1048 401.42,-1048 401.42,4 -4,4"/>
<!-- START -->
<g id="node1" class="node">
<title>START</title>
<ellipse fill="none" stroke="black" cx="255.79" cy="-1026" rx="41.73" ry="18"/>
<text text-anchor="middle" x="255.79" y="-1021.8" font-family="Times,serif" font-size="14.00">START</text>
</g>
<!-- A (5 days) -->
<g id="node2" class="node">
<title>A (5 days)</title>
<ellipse fill="none" stroke="black" cx="174.79" cy="-954" rx="51.59" ry="18"/>
<text text-anchor="middle" x="174.79" y="-949.8" font-family="Times,serif" font-size="14.00">A (5 days)</text>
</g>
<!-- START&#45;&gt;A (5 days) -->
<g id="edge1" class="edge">
<title>START&#45;&gt;A (5 days)</title>
<path fill="none" stroke="black" d="M237.82,-1009.46C226.96,-1000.08 212.93,-987.96 200.87,-977.54"/>
<polygon fill="black" stroke="black" points="203.14,-974.87 193.28,-970.98 198.56,-980.16 203.14,-974.87"/>
</g>
<!-- L (5 days) -->
<g id="node3" class="node">
<title>L (5 days)</title>
<ellipse fill="none" stroke="black" cx="255.79" cy="-594" rx="50.94" ry="18"/>
<text text-anchor="middle" x="255.79" y="-589.8" font-family="Times,serif" font-size="14.00">L (5 days)</text>
</g>
<!-- START&#45;&gt;L (5 days) -->
<g id="edge2" class="edge">
<title>START&#45;&gt;L (5 days)</title>
<path fill="none" stroke="black" d="M255.79,-1007.95C255.79,-981.29 255.79,-928.11 255.79,-883 255.79,-883 255.79,-883 255.79,-737 255.79,-697 255.79,-650.65 255.79,-622.08"/>
<polygon fill="black" stroke="black" points="259.29,-622.05 255.79,-612.05 252.29,-622.05 259.29,-622.05"/>
</g>
<!-- Q (10 days) -->
<g id="node4" class="node">
<title>Q (10 days)</title>
<ellipse fill="none" stroke="black" cx="340.79" cy="-954" rx="56.74" ry="18"/>
<text text-anchor="middle" x="340.79" y="-949.8" font-family="Times,serif" font-size="14.00">Q (10 days)</text>
</g>
<!-- START&#45;&gt;Q (10 days) -->
<g id="edge3" class="edge">
<title>START&#45;&gt;Q (10 days)</title>
<path fill="none" stroke="black" d="M274.24,-1009.81C285.61,-1000.44 300.42,-988.25 313.17,-977.75"/>
<polygon fill="black" stroke="black" points="315.71,-980.19 321.2,-971.13 311.26,-974.79 315.71,-980.19"/>
</g>
<!-- B (8 days) -->
<g id="node5" class="node">
<title>B (8 days)</title>
<ellipse fill="none" stroke="black" cx="172.79" cy="-882" rx="51.03" ry="18"/>
<text text-anchor="middle" x="172.79" y="-877.8" font-family="Times,serif" font-size="14.00">B (8 days)</text>
</g>
<!-- A (5 days)&#45;&gt;B (8 days) -->
<g id="edge4" class="edge">
<title>A (5 days)&#45;&gt;B (8 days)</title>
<path fill="none" stroke="black" d="M174.3,-935.7C174.08,-927.98 173.81,-918.71 173.57,-910.11"/>
<polygon fill="black" stroke="black" points="177.07,-910 173.28,-900.1 170.07,-910.2 177.07,-910"/>
</g>
<!-- M (2 days) -->
<g id="node6" class="node">
<title>M (2 days)</title>
<ellipse fill="none" stroke="black" cx="256.79" cy="-162" rx="53.31" ry="18"/>
<text text-anchor="middle" x="256.79" y="-157.8" font-family="Times,serif" font-size="14.00">M (2 days)</text>
</g>
<!-- L (5 days)&#45;&gt;M (2 days) -->
<g id="edge5" class="edge">
<title>L (5 days)&#45;&gt;M (2 days)</title>
<path fill="none" stroke="black" d="M255.79,-575.95C255.79,-549.29 255.79,-496.11 255.79,-451 255.79,-451 255.79,-451 255.79,-305 255.79,-265 256.2,-218.65 256.49,-190.08"/>
<polygon fill="black" stroke="black" points="259.99,-190.09 256.6,-180.05 252.99,-190.01 259.99,-190.09"/>
</g>
<!-- R (5 days) -->
<g id="node7" class="node">
<title>R (5 days)</title>
<ellipse fill="none" stroke="black" cx="340.79" cy="-882" rx="51.03" ry="18"/>
<text text-anchor="middle" x="340.79" y="-877.8" font-family="Times,serif" font-size="14.00">R (5 days)</text>
</g>
<!-- Q (10 days)&#45;&gt;R (5 days) -->
<g id="edge6" class="edge">
<title>Q (10 days)&#45;&gt;R (5 days)</title>
<path fill="none" stroke="black" d="M340.79,-935.7C340.79,-927.98 340.79,-918.71 340.79,-910.11"/>
<polygon fill="black" stroke="black" points="344.29,-910.1 340.79,-900.1 337.29,-910.1 344.29,-910.1"/>
</g>
<!-- C (6 days) -->
<g id="node8" class="node">
<title>C (6 days)</title>
<ellipse fill="none" stroke="black" cx="167.79" cy="-810" rx="51.03" ry="18"/>
<text text-anchor="middle" x="167.79" y="-805.8" font-family="Times,serif" font-size="14.00">C (6 days)</text>
</g>
<!-- B (8 days)&#45;&gt;C (6 days) -->
<g id="edge7" class="edge">
<title>B (8 days)&#45;&gt;C (6 days)</title>
<path fill="none" stroke="black" d="M171.56,-863.7C171.01,-855.98 170.34,-846.71 169.73,-838.11"/>
<polygon fill="black" stroke="black" points="173.22,-837.83 169.02,-828.1 166.24,-838.33 173.22,-837.83"/>
</g>
<!-- P (3 days) -->
<g id="node20" class="node">
<title>P (3 days)</title>
<ellipse fill="none" stroke="black" cx="175.79" cy="-90" rx="50.38" ry="18"/>
<text text-anchor="middle" x="175.79" y="-85.8" font-family="Times,serif" font-size="14.00">P (3 days)</text>
</g>
<!-- M (2 days)&#45;&gt;P (3 days) -->
<g id="edge24" class="edge">
<title>M (2 days)&#45;&gt;P (3 days)</title>
<path fill="none" stroke="black" d="M238.01,-144.76C227.3,-135.51 213.72,-123.77 201.97,-113.63"/>
<polygon fill="black" stroke="black" points="204.05,-110.8 194.2,-106.91 199.48,-116.09 204.05,-110.8"/>
</g>
<!-- S (15 days) -->
<g id="node21" class="node">
<title>S (15 days)</title>
<ellipse fill="none" stroke="black" cx="340.79" cy="-810" rx="55.04" ry="18"/>
<text text-anchor="middle" x="340.79" y="-805.8" font-family="Times,serif" font-size="14.00">S (15 days)</text>
</g>
<!-- R (5 days)&#45;&gt;S (15 days) -->
<g id="edge26" class="edge">
<title>R (5 days)&#45;&gt;S (15 days)</title>
<path fill="none" stroke="black" d="M340.79,-863.7C340.79,-855.98 340.79,-846.71 340.79,-838.11"/>
<polygon fill="black" stroke="black" points="344.29,-838.1 340.79,-828.1 337.29,-838.1 344.29,-838.1"/>
</g>
<!-- D (3 days) -->
<g id="node9" class="node">
<title>D (3 days)</title>
<ellipse fill="none" stroke="black" cx="157.79" cy="-738" rx="51.59" ry="18"/>
<text text-anchor="middle" x="157.79" y="-733.8" font-family="Times,serif" font-size="14.00">D (3 days)</text>
</g>
<!-- C (6 days)&#45;&gt;D (3 days) -->
<g id="edge8" class="edge">
<title>C (6 days)&#45;&gt;D (3 days)</title>
<path fill="none" stroke="black" d="M165.32,-791.7C164.22,-783.98 162.9,-774.71 161.67,-766.11"/>
<polygon fill="black" stroke="black" points="165.12,-765.51 160.24,-756.1 158.19,-766.5 165.12,-765.51"/>
</g>
<!-- E (5 days) -->
<g id="node10" class="node">
<title>E (5 days)</title>
<ellipse fill="none" stroke="black" cx="138.79" cy="-666" rx="50.94" ry="18"/>
<text text-anchor="middle" x="138.79" y="-661.8" font-family="Times,serif" font-size="14.00">E (5 days)</text>
</g>
<!-- D (3 days)&#45;&gt;E (5 days) -->
<g id="edge9" class="edge">
<title>D (3 days)&#45;&gt;E (5 days)</title>
<path fill="none" stroke="black" d="M153.19,-720.05C151.08,-712.26 148.52,-702.82 146.14,-694.08"/>
<polygon fill="black" stroke="black" points="149.48,-693.01 143.48,-684.28 142.72,-694.84 149.48,-693.01"/>
</g>
<!-- F (3 days) -->
<g id="node11" class="node">
<title>F (3 days)</title>
<ellipse fill="none" stroke="black" cx="136.79" cy="-594" rx="50.38" ry="18"/>
<text text-anchor="middle" x="136.79" y="-589.8" font-family="Times,serif" font-size="14.00">F (3 days)</text>
</g>
<!-- E (5 days)&#45;&gt;F (3 days) -->
<g id="edge10" class="edge">
<title>E (5 days)&#45;&gt;F (3 days)</title>
<path fill="none" stroke="black" d="M138.3,-647.7C138.08,-639.98 137.81,-630.71 137.57,-622.11"/>
<polygon fill="black" stroke="black" points="141.07,-622 137.28,-612.1 134.07,-622.2 141.07,-622"/>
</g>
<!-- G (10 days) -->
<g id="node12" class="node">
<title>G (10 days)</title>
<ellipse fill="none" stroke="black" cx="136.79" cy="-522" rx="56.74" ry="18"/>
<text text-anchor="middle" x="136.79" y="-517.8" font-family="Times,serif" font-size="14.00">G (10 days)</text>
</g>
<!-- F (3 days)&#45;&gt;G (10 days) -->
<g id="edge11" class="edge">
<title>F (3 days)&#45;&gt;G (10 days)</title>
<path fill="none" stroke="black" d="M136.79,-575.7C136.79,-567.98 136.79,-558.71 136.79,-550.11"/>
<polygon fill="black" stroke="black" points="140.29,-550.1 136.79,-540.1 133.29,-550.1 140.29,-550.1"/>
</g>
<!-- N (4 days) -->
<g id="node13" class="node">
<title>N (4 days)</title>
<ellipse fill="none" stroke="black" cx="51.79" cy="-450" rx="51.59" ry="18"/>
<text text-anchor="middle" x="51.79" y="-445.8" font-family="Times,serif" font-size="14.00">N (4 days)</text>
</g>
<!-- F (3 days)&#45;&gt;N (4 days) -->
<g id="edge12" class="edge">
<title>F (3 days)&#45;&gt;N (4 days)</title>
<path fill="none" stroke="black" d="M111.19,-578.51C97.16,-569.26 80.66,-556.01 70.79,-540 59.36,-521.45 54.73,-497.05 52.89,-478.49"/>
<polygon fill="black" stroke="black" points="56.37,-478.03 52.1,-468.33 49.39,-478.57 56.37,-478.03"/>
</g>
<!-- G (10 days)&#45;&gt;N (4 days) -->
<g id="edge14" class="edge">
<title>G (10 days)&#45;&gt;N (4 days)</title>
<path fill="none" stroke="black" d="M117.08,-504.76C105.73,-495.42 91.31,-483.55 78.91,-473.33"/>
<polygon fill="black" stroke="black" points="81.05,-470.56 71.11,-466.91 76.6,-475.96 81.05,-470.56"/>
</g>
<!-- H (4 days) -->
<g id="node14" class="node">
<title>H (4 days)</title>
<ellipse fill="none" stroke="black" cx="173.79" cy="-450" rx="51.59" ry="18"/>
<text text-anchor="middle" x="173.79" y="-445.8" font-family="Times,serif" font-size="14.00">H (4 days)</text>
</g>
<!-- G (10 days)&#45;&gt;H (4 days) -->
<g id="edge13" class="edge">
<title>G (10 days)&#45;&gt;H (4 days)</title>
<path fill="none" stroke="black" d="M145.75,-504.05C150.07,-495.89 155.34,-485.91 160.14,-476.82"/>
<polygon fill="black" stroke="black" points="163.34,-478.27 164.92,-467.79 157.15,-474.99 163.34,-478.27"/>
</g>
<!-- END -->
<g id="node15" class="node">
<title>END</title>
<ellipse fill="none" stroke="black" cx="175.79" cy="-18" rx="30.76" ry="18"/>
<text text-anchor="middle" x="175.79" y="-13.8" font-family="Times,serif" font-size="14.00">END</text>
</g>
<!-- N (4 days)&#45;&gt;END -->
<g id="edge15" class="edge">
<title>N (4 days)&#45;&gt;END</title>
<path fill="none" stroke="black" d="M44.51,-431.87C33.99,-405.53 15.79,-353.29 15.79,-307 15.79,-307 15.79,-307 15.79,-161 15.79,-94.77 93.42,-51.91 140.54,-32"/>
<polygon fill="black" stroke="black" points="142.15,-35.12 150.09,-28.1 139.51,-28.64 142.15,-35.12"/>
</g>
<!-- I (5 days) -->
<g id="node16" class="node">
<title>I (5 days)</title>
<ellipse fill="none" stroke="black" cx="173.79" cy="-378" rx="48.07" ry="18"/>
<text text-anchor="middle" x="173.79" y="-373.8" font-family="Times,serif" font-size="14.00">I (5 days)</text>
</g>
<!-- H (4 days)&#45;&gt;I (5 days) -->
<g id="edge16" class="edge">
<title>H (4 days)&#45;&gt;I (5 days)</title>
<path fill="none" stroke="black" d="M173.79,-431.7C173.79,-423.98 173.79,-414.71 173.79,-406.11"/>
<polygon fill="black" stroke="black" points="177.29,-406.1 173.79,-396.1 170.29,-406.1 177.29,-406.1"/>
</g>
<!-- J (2 days) -->
<g id="node17" class="node">
<title>J (2 days)</title>
<ellipse fill="none" stroke="black" cx="174.79" cy="-306" rx="48.66" ry="18"/>
<text text-anchor="middle" x="174.79" y="-301.8" font-family="Times,serif" font-size="14.00">J (2 days)</text>
</g>
<!-- I (5 days)&#45;&gt;J (2 days) -->
<g id="edge17" class="edge">
<title>I (5 days)&#45;&gt;J (2 days)</title>
<path fill="none" stroke="black" d="M174.04,-359.7C174.15,-351.98 174.28,-342.71 174.41,-334.11"/>
<polygon fill="black" stroke="black" points="177.91,-334.15 174.55,-324.1 170.91,-334.05 177.91,-334.15"/>
</g>
<!-- O (2 days) -->
<g id="node18" class="node">
<title>O (2 days)</title>
<ellipse fill="none" stroke="black" cx="95.79" cy="-162" rx="51.59" ry="18"/>
<text text-anchor="middle" x="95.79" y="-157.8" font-family="Times,serif" font-size="14.00">O (2 days)</text>
</g>
<!-- I (5 days)&#45;&gt;O (2 days) -->
<g id="edge18" class="edge">
<title>I (5 days)&#45;&gt;O (2 days)</title>
<path fill="none" stroke="black" d="M151.23,-362.03C138.97,-352.63 124.72,-339.38 116.79,-324 94.76,-281.22 92.77,-223.91 93.89,-190.46"/>
<polygon fill="black" stroke="black" points="97.41,-190.24 94.37,-180.09 90.42,-189.92 97.41,-190.24"/>
</g>
<!-- K (3 days) -->
<g id="node19" class="node">
<title>K (3 days)</title>
<ellipse fill="none" stroke="black" cx="175.79" cy="-234" rx="51.59" ry="18"/>
<text text-anchor="middle" x="175.79" y="-229.8" font-family="Times,serif" font-size="14.00">K (3 days)</text>
</g>
<!-- J (2 days)&#45;&gt;K (3 days) -->
<g id="edge19" class="edge">
<title>J (2 days)&#45;&gt;K (3 days)</title>
<path fill="none" stroke="black" d="M175.04,-287.7C175.15,-279.98 175.28,-270.71 175.41,-262.11"/>
<polygon fill="black" stroke="black" points="178.91,-262.15 175.55,-252.1 171.91,-262.05 178.91,-262.15"/>
</g>
<!-- O (2 days)&#45;&gt;P (3 days) -->
<g id="edge20" class="edge">
<title>O (2 days)&#45;&gt;P (3 days)</title>
<path fill="none" stroke="black" d="M113.95,-145.12C124.58,-135.81 138.2,-123.9 149.94,-113.62"/>
<polygon fill="black" stroke="black" points="152.49,-116.04 157.71,-106.82 147.88,-110.77 152.49,-116.04"/>
</g>
<!-- K (3 days)&#45;&gt;M (2 days) -->
<g id="edge21" class="edge">
<title>K (3 days)&#45;&gt;M (2 days)</title>
<path fill="none" stroke="black" d="M194.17,-217.12C204.87,-207.87 218.53,-196.07 230.37,-185.84"/>
<polygon fill="black" stroke="black" points="232.93,-188.25 238.21,-179.06 228.35,-182.95 232.93,-188.25"/>
</g>
<!-- K (3 days)&#45;&gt;O (2 days) -->
<g id="edge22" class="edge">
<title>K (3 days)&#45;&gt;O (2 days)</title>
<path fill="none" stroke="black" d="M157.64,-217.12C147.08,-207.87 133.58,-196.07 121.9,-185.84"/>
<polygon fill="black" stroke="black" points="123.98,-183.01 114.15,-179.06 119.37,-188.28 123.98,-183.01"/>
</g>
<!-- K (3 days)&#45;&gt;P (3 days) -->
<g id="edge23" class="edge">
<title>K (3 days)&#45;&gt;P (3 days)</title>
<path fill="none" stroke="black" d="M175.79,-215.87C175.79,-191.67 175.79,-147.21 175.79,-118.39"/>
<polygon fill="black" stroke="black" points="179.29,-118.19 175.79,-108.19 172.29,-118.19 179.29,-118.19"/>
</g>
<!-- P (3 days)&#45;&gt;END -->
<g id="edge25" class="edge">
<title>P (3 days)&#45;&gt;END</title>
<path fill="none" stroke="black" d="M175.79,-71.7C175.79,-63.98 175.79,-54.71 175.79,-46.11"/>
<polygon fill="black" stroke="black" points="179.29,-46.1 175.79,-36.1 172.29,-46.1 179.29,-46.1"/>
</g>
<!-- T (7 days) -->
<g id="node22" class="node">
<title>T (7 days)</title>
<ellipse fill="none" stroke="black" cx="340.79" cy="-738" rx="50.94" ry="18"/>
<text text-anchor="middle" x="340.79" y="-733.8" font-family="Times,serif" font-size="14.00">T (7 days)</text>
</g>
<!-- S (15 days)&#45;&gt;T (7 days) -->
<g id="edge27" class="edge">
<title>S (15 days)&#45;&gt;T (7 days)</title>
<path fill="none" stroke="black" d="M340.79,-791.7C340.79,-783.98 340.79,-774.71 340.79,-766.11"/>
<polygon fill="black" stroke="black" points="344.29,-766.1 340.79,-756.1 337.29,-766.1 344.29,-766.1"/>
</g>
<!-- U (10 days) -->
<g id="node23" class="node">
<title>U (10 days)</title>
<ellipse fill="none" stroke="black" cx="340.79" cy="-522" rx="56.74" ry="18"/>
<text text-anchor="middle" x="340.79" y="-517.8" font-family="Times,serif" font-size="14.00">U (10 days)</text>
</g>
<!-- T (7 days)&#45;&gt;U (10 days) -->
<g id="edge28" class="edge">
<title>T (7 days)&#45;&gt;U (10 days)</title>
<path fill="none" stroke="black" d="M340.79,-719.85C340.79,-682.83 340.79,-595.18 340.79,-550.39"/>
<polygon fill="black" stroke="black" points="344.29,-550.23 340.79,-540.23 337.29,-550.23 344.29,-550.23"/>
</g>
<!-- U (10 days)&#45;&gt;END -->
<g id="edge29" class="edge">
<title>U (10 days)&#45;&gt;END</title>
<path fill="none" stroke="black" d="M340.6,-503.95C340.3,-477.29 339.79,-424.12 339.79,-379 339.79,-379 339.79,-379 339.79,-161 339.79,-93.53 259.47,-50.95 211.25,-31.46"/>
<polygon fill="black" stroke="black" points="212.37,-28.14 201.78,-27.77 209.82,-34.66 212.37,-28.14"/>
</g>
</g>
</svg>
