<?xml version="1.0" encoding="UTF-8" standalone="no"?>
<!DOCTYPE svg PUBLIC "-//W3C//DTD SVG 1.1//EN"
 "http://www.w3.org/Graphics/SVG/1.1/DTD/svg11.dtd">
<!-- Generated by graphviz version 12.1.2 (20240928.0832)
 -->
<!-- Title: PERT_CPM Pages: 1 -->
<svg width="330pt" height="548pt"
 viewBox="0.00 0.00 329.70 548.00" xmlns="http://www.w3.org/2000/svg" xmlns:xlink="http://www.w3.org/1999/xlink">
<g id="graph0" class="graph" transform="scale(1 1) rotate(0) translate(4 544)">
<title>PERT_CPM</title>
<polygon fill="white" stroke="none" points="-4,4 -4,-544 325.7,-544 325.7,4 -4,4"/>
<!-- START -->
<g id="node1" class="node">
<title>START</title>
<ellipse fill="none" stroke="black" cx="187.82" cy="-522" rx="39.07" ry="18"/>
<text text-anchor="middle" x="187.82" y="-516.95" font-family="Times New Roman,serif" font-size="14.00">START</text>
</g>
<!-- A (1 week) -->
<g id="node2" class="node">
<title>A (1 week)</title>
<ellipse fill="none" stroke="black" cx="126.82" cy="-450" rx="52.38" ry="18"/>
<text text-anchor="middle" x="126.82" y="-444.95" font-family="Times New Roman,serif" font-size="14.00">A (1 week)</text>
</g>
<!-- START&#45;&gt;A (1 week) -->
<g id="edge1" class="edge">
<title>START&#45;&gt;A (1 week)</title>
<path fill="none" stroke="black" d="M173.67,-504.76C166.31,-496.32 157.14,-485.8 148.87,-476.31"/>
<polygon fill="black" stroke="black" points="151.51,-474.01 142.31,-468.77 146.24,-478.61 151.51,-474.01"/>
</g>
<!-- B (4 week) -->
<g id="node3" class="node">
<title>B (4 week)</title>
<ellipse fill="none" stroke="black" cx="249.82" cy="-450" rx="52.38" ry="18"/>
<text text-anchor="middle" x="249.82" y="-444.95" font-family="Times New Roman,serif" font-size="14.00">B (4 week)</text>
</g>
<!-- START&#45;&gt;B (4 week) -->
<g id="edge2" class="edge">
<title>START&#45;&gt;B (4 week)</title>
<path fill="none" stroke="black" d="M201.88,-505.12C209.54,-496.47 219.19,-485.58 227.82,-475.83"/>
<polygon fill="black" stroke="black" points="230.36,-478.25 234.37,-468.44 225.12,-473.61 230.36,-478.25"/>
</g>
<!-- D (3 week) -->
<g id="node4" class="node">
<title>D (3 week)</title>
<ellipse fill="none" stroke="black" cx="126.82" cy="-378" rx="52.89" ry="18"/>
<text text-anchor="middle" x="126.82" y="-372.95" font-family="Times New Roman,serif" font-size="14.00">D (3 week)</text>
</g>
<!-- A (1 week)&#45;&gt;D (3 week) -->
<g id="edge3" class="edge">
<title>A (1 week)&#45;&gt;D (3 week)</title>
<path fill="none" stroke="black" d="M126.82,-431.7C126.82,-424.41 126.82,-415.73 126.82,-407.54"/>
<polygon fill="black" stroke="black" points="130.32,-407.62 126.82,-397.62 123.32,-407.62 130.32,-407.62"/>
</g>
<!-- C (2 week) -->
<g id="node5" class="node">
<title>C (2 week)</title>
<ellipse fill="none" stroke="black" cx="249.82" cy="-378" rx="52.38" ry="18"/>
<text text-anchor="middle" x="249.82" y="-372.95" font-family="Times New Roman,serif" font-size="14.00">C (2 week)</text>
</g>
<!-- B (4 week)&#45;&gt;C (2 week) -->
<g id="edge4" class="edge">
<title>B (4 week)&#45;&gt;C (2 week)</title>
<path fill="none" stroke="black" d="M249.82,-431.7C249.82,-424.41 249.82,-415.73 249.82,-407.54"/>
<polygon fill="black" stroke="black" points="253.32,-407.62 249.82,-397.62 246.32,-407.62 253.32,-407.62"/>
</g>
<!-- E (2 week) -->
<g id="node6" class="node">
<title>E (2 week)</title>
<ellipse fill="none" stroke="black" cx="126.82" cy="-306" rx="51.86" ry="18"/>
<text text-anchor="middle" x="126.82" y="-300.95" font-family="Times New Roman,serif" font-size="14.00">E (2 week)</text>
</g>
<!-- D (3 week)&#45;&gt;E (2 week) -->
<g id="edge5" class="edge">
<title>D (3 week)&#45;&gt;E (2 week)</title>
<path fill="none" stroke="black" d="M126.82,-359.7C126.82,-352.41 126.82,-343.73 126.82,-335.54"/>
<polygon fill="black" stroke="black" points="130.32,-335.62 126.82,-325.62 123.32,-335.62 130.32,-335.62"/>
</g>
<!-- F (4 week) -->
<g id="node7" class="node">
<title>F (4 week)</title>
<ellipse fill="none" stroke="black" cx="248.82" cy="-306" rx="51.35" ry="18"/>
<text text-anchor="middle" x="248.82" y="-300.95" font-family="Times New Roman,serif" font-size="14.00">F (4 week)</text>
</g>
<!-- D (3 week)&#45;&gt;F (4 week) -->
<g id="edge6" class="edge">
<title>D (3 week)&#45;&gt;F (4 week)</title>
<path fill="none" stroke="black" d="M152.99,-361.98C170.56,-351.9 193.92,-338.5 213.18,-327.45"/>
<polygon fill="black" stroke="black" points="214.86,-330.52 221.79,-322.5 211.38,-324.45 214.86,-330.52"/>
</g>
<!-- C (2 week)&#45;&gt;F (4 week) -->
<g id="edge7" class="edge">
<title>C (2 week)&#45;&gt;F (4 week)</title>
<path fill="none" stroke="black" d="M249.57,-359.7C249.46,-352.41 249.34,-343.73 249.22,-335.54"/>
<polygon fill="black" stroke="black" points="252.72,-335.57 249.08,-325.62 245.73,-335.67 252.72,-335.57"/>
</g>
<!-- G (3 week) -->
<g id="node8" class="node">
<title>G (3 week)</title>
<ellipse fill="none" stroke="black" cx="126.82" cy="-234" rx="52.89" ry="18"/>
<text text-anchor="middle" x="126.82" y="-228.95" font-family="Times New Roman,serif" font-size="14.00">G (3 week)</text>
</g>
<!-- E (2 week)&#45;&gt;G (3 week) -->
<g id="edge10" class="edge">
<title>E (2 week)&#45;&gt;G (3 week)</title>
<path fill="none" stroke="black" d="M126.82,-287.7C126.82,-280.41 126.82,-271.73 126.82,-263.54"/>
<polygon fill="black" stroke="black" points="130.32,-263.62 126.82,-253.62 123.32,-263.62 130.32,-263.62"/>
</g>
<!-- F (4 week)&#45;&gt;G (3 week) -->
<g id="edge8" class="edge">
<title>F (4 week)&#45;&gt;G (3 week)</title>
<path fill="none" stroke="black" d="M222.94,-290.15C205.51,-280.15 182.28,-266.82 163.02,-255.77"/>
<polygon fill="black" stroke="black" points="164.8,-252.76 154.39,-250.82 161.32,-258.83 164.8,-252.76"/>
</g>
<!-- H (2 week) -->
<g id="node9" class="node">
<title>H (2 week)</title>
<ellipse fill="none" stroke="black" cx="268.82" cy="-234" rx="52.89" ry="18"/>
<text text-anchor="middle" x="268.82" y="-228.95" font-family="Times New Roman,serif" font-size="14.00">H (2 week)</text>
</g>
<!-- F (4 week)&#45;&gt;H (2 week) -->
<g id="edge9" class="edge">
<title>F (4 week)&#45;&gt;H (2 week)</title>
<path fill="none" stroke="black" d="M253.76,-287.7C255.89,-280.24 258.44,-271.32 260.83,-262.97"/>
<polygon fill="black" stroke="black" points="264.13,-264.14 263.51,-253.56 257.4,-262.21 264.13,-264.14"/>
</g>
<!-- I (1 week) -->
<g id="node10" class="node">
<title>I (1 week)</title>
<ellipse fill="none" stroke="black" cx="210.82" cy="-162" rx="49.3" ry="18"/>
<text text-anchor="middle" x="210.82" y="-156.95" font-family="Times New Roman,serif" font-size="14.00">I (1 week)</text>
</g>
<!-- G (3 week)&#45;&gt;I (1 week) -->
<g id="edge11" class="edge">
<title>G (3 week)&#45;&gt;I (1 week)</title>
<path fill="none" stroke="black" d="M145.88,-217.12C156.94,-207.9 171.06,-196.13 183.31,-185.92"/>
<polygon fill="black" stroke="black" points="185.23,-188.88 190.67,-179.79 180.74,-183.5 185.23,-188.88"/>
</g>
<!-- J (1 week) -->
<g id="node11" class="node">
<title>J (1 week)</title>
<ellipse fill="none" stroke="black" cx="49.82" cy="-90" rx="49.82" ry="18"/>
<text text-anchor="middle" x="49.82" y="-84.95" font-family="Times New Roman,serif" font-size="14.00">J (1 week)</text>
</g>
<!-- G (3 week)&#45;&gt;J (1 week) -->
<g id="edge12" class="edge">
<title>G (3 week)&#45;&gt;J (1 week)</title>
<path fill="none" stroke="black" d="M86.32,-222.07C65.23,-214.1 41.29,-200.93 28.82,-180 17.54,-161.08 24.66,-136.52 33.54,-117.99"/>
<polygon fill="black" stroke="black" points="36.6,-119.69 38.15,-109.21 30.4,-116.44 36.6,-119.69"/>
</g>
<!-- K (1 week) -->
<g id="node12" class="node">
<title>K (1 week)</title>
<ellipse fill="none" stroke="black" cx="90.82" cy="-162" rx="52.89" ry="18"/>
<text text-anchor="middle" x="90.82" y="-156.95" font-family="Times New Roman,serif" font-size="14.00">K (1 week)</text>
</g>
<!-- G (3 week)&#45;&gt;K (1 week) -->
<g id="edge13" class="edge">
<title>G (3 week)&#45;&gt;K (1 week)</title>
<path fill="none" stroke="black" d="M118.1,-216.05C114.08,-208.23 109.2,-198.75 104.69,-189.98"/>
<polygon fill="black" stroke="black" points="107.83,-188.43 100.14,-181.13 101.6,-191.63 107.83,-188.43"/>
</g>
<!-- L (2 week) -->
<g id="node13" class="node">
<title>L (2 week)</title>
<ellipse fill="none" stroke="black" cx="189.82" cy="-90" rx="51.86" ry="18"/>
<text text-anchor="middle" x="189.82" y="-84.95" font-family="Times New Roman,serif" font-size="14.00">L (2 week)</text>
</g>
<!-- H (2 week)&#45;&gt;L (2 week) -->
<g id="edge14" class="edge">
<title>H (2 week)&#45;&gt;L (2 week)</title>
<path fill="none" stroke="black" d="M273.36,-215.79C277.35,-196.97 280.81,-166.5 268.82,-144 260.92,-129.2 246.86,-117.8 232.76,-109.43"/>
<polygon fill="black" stroke="black" points="234.85,-106.59 224.4,-104.85 231.49,-112.73 234.85,-106.59"/>
</g>
<!-- I (1 week)&#45;&gt;L (2 week) -->
<g id="edge15" class="edge">
<title>I (1 week)&#45;&gt;L (2 week)</title>
<path fill="none" stroke="black" d="M205.62,-143.7C203.39,-136.24 200.71,-127.32 198.21,-118.97"/>
<polygon fill="black" stroke="black" points="201.61,-118.13 195.38,-109.55 194.9,-120.14 201.61,-118.13"/>
</g>
<!-- END -->
<g id="node14" class="node">
<title>END</title>
<ellipse fill="none" stroke="black" cx="109.82" cy="-18" rx="29.86" ry="18"/>
<text text-anchor="middle" x="109.82" y="-12.95" font-family="Times New Roman,serif" font-size="14.00">END</text>
</g>
<!-- J (1 week)&#45;&gt;END -->
<g id="edge16" class="edge">
<title>J (1 week)&#45;&gt;END</title>
<path fill="none" stroke="black" d="M64.04,-72.41C71.57,-63.62 80.96,-52.66 89.27,-42.96"/>
<polygon fill="black" stroke="black" points="91.69,-45.53 95.54,-35.66 86.37,-40.97 91.69,-45.53"/>
</g>
<!-- K (1 week)&#45;&gt;L (2 week) -->
<g id="edge17" class="edge">
<title>K (1 week)&#45;&gt;L (2 week)</title>
<path fill="none" stroke="black" d="M112.79,-145.46C126.15,-136.02 143.44,-123.79 158.25,-113.32"/>
<polygon fill="black" stroke="black" points="160.18,-116.24 166.33,-107.61 156.14,-110.52 160.18,-116.24"/>
</g>
<!-- L (2 week)&#45;&gt;END -->
<g id="edge18" class="edge">
<title>L (2 week)&#45;&gt;END</title>
<path fill="none" stroke="black" d="M171.26,-72.76C160.45,-63.3 146.66,-51.24 134.89,-40.94"/>
<polygon fill="black" stroke="black" points="137.34,-38.43 127.51,-34.48 132.73,-43.7 137.34,-38.43"/>
</g>
</g>
</svg>
