<svg width="395px" height="1052px"
 viewBox="0.00 0.00 395.26 1052.00" xmlns="http://www.w3.org/2000/svg" xmlns:xlink="http://www.w3.org/1999/xlink">
<g id="graph0" class="graph" transform="scale(1.0 1.0) rotate(0.0) translate(4.0 1048.0)">
<title>PERT_CPM</title>
<polygon fill="white" stroke="none" points="-4,4 -4,-1048 391.26,-1048 391.26,4 -4,4"/>
<!-- START -->
<g id="node1" class="node">
<title>START</title>
<ellipse fill="none" stroke="black" cx="249.33" cy="-1026" rx="39.07" ry="18"/>
<text text-anchor="middle" x="249.33" y="-1020.95" font-family="Times New Roman,serif" font-size="14.00">START</text>
</g>
<!-- A (5 days) -->
<g id="node2" class="node">
<title>A (5 days)</title>
<ellipse fill="none" stroke="black" cx="171.33" cy="-954" rx="49.82" ry="18"/>
<text text-anchor="middle" x="171.33" y="-948.95" font-family="Times New Roman,serif" font-size="14.00">A (5 days)</text>
</g>
<!-- START&#45;&gt;A (5 days) -->
<g id="edge1" class="edge">
<title>START&#45;&gt;A (5 days)</title>
<path fill="none" stroke="black" d="M232.02,-1009.46C221.93,-1000.41 209.01,-988.82 197.68,-978.65"/>
<polygon fill="black" stroke="black" points="200.31,-976.31 190.53,-972.23 195.63,-981.52 200.31,-976.31"/>
</g>
<!-- L (5 days) -->
<g id="node3" class="node">
<title>L (5 days)</title>
<ellipse fill="none" stroke="black" cx="249.33" cy="-594" rx="49.3" ry="18"/>
<text text-anchor="middle" x="249.33" y="-588.95" font-family="Times New Roman,serif" font-size="14.00">L (5 days)</text>
</g>
<!-- START&#45;&gt;L (5 days) -->
<g id="edge2" class="edge">
<title>START&#45;&gt;L (5 days)</title>
<path fill="none" stroke="black" d="M249.33,-1007.51C249.33,-980.71 249.33,-927.87 249.33,-883 249.33,-883 249.33,-883 249.33,-737 249.33,-697.74 249.33,-652.38 249.33,-623.69"/>
<polygon fill="black" stroke="black" points="252.83,-624 249.33,-614 245.83,-624 252.83,-624"/>
</g>
<!-- Q (10 days) -->
<g id="node4" class="node">
<title>Q (10 days)</title>
<ellipse fill="none" stroke="black" cx="332.33" cy="-954" rx="54.93" ry="18"/>
<text text-anchor="middle" x="332.33" y="-948.95" font-family="Times New Roman,serif" font-size="14.00">Q (10 days)</text>
</g>
<!-- START&#45;&gt;Q (10 days) -->
<g id="edge3" class="edge">
<title>START&#45;&gt;Q (10 days)</title>
<path fill="none" stroke="black" d="M267.34,-1009.81C278.23,-1000.62 292.35,-988.72 304.64,-978.35"/>
<polygon fill="black" stroke="black" points="306.65,-981.23 312.04,-972.11 302.14,-975.88 306.65,-981.23"/>
</g>
<!-- B (8 days) -->
<g id="node5" class="node">
<title>B (8 days)</title>
<ellipse fill="none" stroke="black" cx="171.33" cy="-882" rx="49.82" ry="18"/>
<text text-anchor="middle" x="171.33" y="-876.95" font-family="Times New Roman,serif" font-size="14.00">B (8 days)</text>
</g>
<!-- A (5 days)&#45;&gt;B (8 days) -->
<g id="edge4" class="edge">
<title>A (5 days)&#45;&gt;B (8 days)</title>
<path fill="none" stroke="black" d="M171.33,-935.7C171.33,-928.41 171.33,-919.73 171.33,-911.54"/>
<polygon fill="black" stroke="black" points="174.83,-911.62 171.33,-901.62 167.83,-911.62 174.83,-911.62"/>
</g>
<!-- M (2 days) -->
<g id="node6" class="node">
<title>M (2 days)</title>
<ellipse fill="none" stroke="black" cx="251.33" cy="-162" rx="52.38" ry="18"/>
<text text-anchor="middle" x="251.33" y="-156.95" font-family="Times New Roman,serif" font-size="14.00">M (2 days)</text>
</g>
<!-- L (5 days)&#45;&gt;M (2 days) -->
<g id="edge5" class="edge">
<title>L (5 days)&#45;&gt;M (2 days)</title>
<path fill="none" stroke="black" d="M249.33,-575.51C249.33,-548.71 249.33,-495.87 249.33,-451 249.33,-451 249.33,-451 249.33,-305 249.33,-265.74 250.1,-220.37 250.69,-191.69"/>
<polygon fill="black" stroke="black" points="254.18,-192.07 250.89,-182 247.18,-191.92 254.18,-192.07"/>
</g>
<!-- R (5 days) -->
<g id="node7" class="node">
<title>R (5 days)</title>
<ellipse fill="none" stroke="black" cx="332.33" cy="-882" rx="49.82" ry="18"/>
<text text-anchor="middle" x="332.33" y="-876.95" font-family="Times New Roman,serif" font-size="14.00">R (5 days)</text>
</g>
<!-- Q (10 days)&#45;&gt;R (5 days) -->
<g id="edge6" class="edge">
<title>Q (10 days)&#45;&gt;R (5 days)</title>
<path fill="none" stroke="black" d="M332.33,-935.7C332.33,-928.41 332.33,-919.73 332.33,-911.54"/>
<polygon fill="black" stroke="black" points="335.83,-911.62 332.33,-901.62 328.83,-911.62 335.83,-911.62"/>
</g>
<!-- C (6 days) -->
<g id="node8" class="node">
<title>C (6 days)</title>
<ellipse fill="none" stroke="black" cx="171.33" cy="-810" rx="49.82" ry="18"/>
<text text-anchor="middle" x="171.33" y="-804.95" font-family="Times New Roman,serif" font-size="14.00">C (6 days)</text>
</g>
<!-- B (8 days)&#45;&gt;C (6 days) -->
<g id="edge7" class="edge">
<title>B (8 days)&#45;&gt;C (6 days)</title>
<path fill="none" stroke="black" d="M171.33,-863.7C171.33,-856.41 171.33,-847.73 171.33,-839.54"/>
<polygon fill="black" stroke="black" points="174.83,-839.62 171.33,-829.62 167.83,-839.62 174.83,-839.62"/>
</g>
<!-- P (3 days) -->
<g id="node20" class="node">
<title>P (3 days)</title>
<ellipse fill="none" stroke="black" cx="171.33" cy="-90" rx="48.79" ry="18"/>
<text text-anchor="middle" x="171.33" y="-84.95" font-family="Times New Roman,serif" font-size="14.00">P (3 days)</text>
</g>
<!-- M (2 days)&#45;&gt;P (3 days) -->
<g id="edge24" class="edge">
<title>M (2 days)&#45;&gt;P (3 days)</title>
<path fill="none" stroke="black" d="M232.77,-144.76C222.58,-135.84 209.74,-124.61 198.44,-114.72"/>
<polygon fill="black" stroke="black" points="200.75,-112.1 190.92,-108.14 196.14,-117.36 200.75,-112.1"/>
</g>
<!-- S (15 days) -->
<g id="node21" class="node">
<title>S (15 days)</title>
<ellipse fill="none" stroke="black" cx="332.33" cy="-810" rx="53.4" ry="18"/>
<text text-anchor="middle" x="332.33" y="-804.95" font-family="Times New Roman,serif" font-size="14.00">S (15 days)</text>
</g>
<!-- R (5 days)&#45;&gt;S (15 days) -->
<g id="edge26" class="edge">
<title>R (5 days)&#45;&gt;S (15 days)</title>
<path fill="none" stroke="black" d="M332.33,-863.7C332.33,-856.41 332.33,-847.73 332.33,-839.54"/>
<polygon fill="black" stroke="black" points="335.83,-839.62 332.33,-829.62 328.83,-839.62 335.83,-839.62"/>
</g>
<!-- D (3 days) -->
<g id="node9" class="node">
<title>D (3 days)</title>
<ellipse fill="none" stroke="black" cx="162.33" cy="-738" rx="50.33" ry="18"/>
<text text-anchor="middle" x="162.33" y="-732.95" font-family="Times New Roman,serif" font-size="14.00">D (3 days)</text>
</g>
<!-- C (6 days)&#45;&gt;D (3 days) -->
<g id="edge8" class="edge">
<title>C (6 days)&#45;&gt;D (3 days)</title>
<path fill="none" stroke="black" d="M169.1,-791.7C168.15,-784.32 167.02,-775.52 165.96,-767.25"/>
<polygon fill="black" stroke="black" points="169.47,-767.08 164.72,-757.61 162.52,-767.97 169.47,-767.08"/>
</g>
<!-- E (5 days) -->
<g id="node10" class="node">
<title>E (5 days)</title>
<ellipse fill="none" stroke="black" cx="143.33" cy="-666" rx="49.3" ry="18"/>
<text text-anchor="middle" x="143.33" y="-660.95" font-family="Times New Roman,serif" font-size="14.00">E (5 days)</text>
</g>
<!-- D (3 days)&#45;&gt;E (5 days) -->
<g id="edge9" class="edge">
<title>D (3 days)&#45;&gt;E (5 days)</title>
<path fill="none" stroke="black" d="M157.63,-719.7C155.61,-712.24 153.19,-703.32 150.92,-694.97"/>
<polygon fill="black" stroke="black" points="154.36,-694.3 148.37,-685.57 147.61,-696.13 154.36,-694.3"/>
</g>
<!-- F (3 days) -->
<g id="node11" class="node">
<title>F (3 days)</title>
<ellipse fill="none" stroke="black" cx="133.33" cy="-594" rx="48.79" ry="18"/>
<text text-anchor="middle" x="133.33" y="-588.95" font-family="Times New Roman,serif" font-size="14.00">F (3 days)</text>
</g>
<!-- E (5 days)&#45;&gt;F (3 days) -->
<g id="edge10" class="edge">
<title>E (5 days)&#45;&gt;F (3 days)</title>
<path fill="none" stroke="black" d="M140.86,-647.7C139.8,-640.32 138.55,-631.52 137.36,-623.25"/>
<polygon fill="black" stroke="black" points="140.86,-623.01 135.99,-613.6 133.93,-624 140.86,-623.01"/>
</g>
<!-- G (10 days) -->
<g id="node12" class="node">
<title>G (10 days)</title>
<ellipse fill="none" stroke="black" cx="133.33" cy="-522" rx="54.93" ry="18"/>
<text text-anchor="middle" x="133.33" y="-516.95" font-family="Times New Roman,serif" font-size="14.00">G (10 days)</text>
</g>
<!-- F (3 days)&#45;&gt;G (10 days) -->
<g id="edge11" class="edge">
<title>F (3 days)&#45;&gt;G (10 days)</title>
<path fill="none" stroke="black" d="M133.33,-575.7C133.33,-568.41 133.33,-559.73 133.33,-551.54"/>
<polygon fill="black" stroke="black" points="136.83,-551.62 133.33,-541.62 129.83,-551.62 136.83,-551.62"/>
</g>
<!-- N (4 days) -->
<g id="node13" class="node">
<title>N (4 days)</title>
<ellipse fill="none" stroke="black" cx="50.33" cy="-450" rx="50.33" ry="18"/>
<text text-anchor="middle" x="50.33" y="-444.95" font-family="Times New Roman,serif" font-size="14.00">N (4 days)</text>
</g>
<!-- F (3 days)&#45;&gt;N (4 days) -->
<g id="edge12" class="edge">
<title>F (3 days)&#45;&gt;N (4 days)</title>
<path fill="none" stroke="black" d="M108.19,-578.13C94.65,-568.84 78.82,-555.67 69.33,-540 58.3,-521.8 53.62,-498.11 51.65,-479.75"/>
<polygon fill="black" stroke="black" points="55.14,-479.47 50.83,-469.8 48.17,-480.05 55.14,-479.47"/>
</g>
<!-- G (10 days)&#45;&gt;N (4 days) -->
<g id="edge14" class="edge">
<title>G (10 days)&#45;&gt;N (4 days)</title>
<path fill="none" stroke="black" d="M114.08,-504.76C103.32,-495.69 89.72,-484.22 77.85,-474.21"/>
<polygon fill="black" stroke="black" points="80.25,-471.65 70.34,-467.88 75.73,-477 80.25,-471.65"/>
</g>
<!-- H (4 days) -->
<g id="node14" class="node">
<title>H (4 days)</title>
<ellipse fill="none" stroke="black" cx="169.33" cy="-450" rx="50.33" ry="18"/>
<text text-anchor="middle" x="169.33" y="-444.95" font-family="Times New Roman,serif" font-size="14.00">H (4 days)</text>
</g>
<!-- G (10 days)&#45;&gt;H (4 days) -->
<g id="edge13" class="edge">
<title>G (10 days)&#45;&gt;H (4 days)</title>
<path fill="none" stroke="black" d="M142.04,-504.05C146.07,-496.23 150.94,-486.75 155.45,-477.98"/>
<polygon fill="black" stroke="black" points="158.54,-479.63 160,-469.13 152.32,-476.43 158.54,-479.63"/>
</g>
<!-- END -->
<g id="node15" class="node">
<title>END</title>
<ellipse fill="none" stroke="black" cx="171.33" cy="-18" rx="29.86" ry="18"/>
<text text-anchor="middle" x="171.33" y="-12.95" font-family="Times New Roman,serif" font-size="14.00">END</text>
</g>
<!-- N (4 days)&#45;&gt;END -->
<g id="edge15" class="edge">
<title>N (4 days)&#45;&gt;END</title>
<path fill="none" stroke="black" d="M43.25,-431.85C33.02,-405.49 15.33,-353.21 15.33,-307 15.33,-307 15.33,-307 15.33,-161 15.33,-96.24 89.75,-53.2 135.79,-32.76"/>
<polygon fill="black" stroke="black" points="137.05,-36.03 144.87,-28.88 134.3,-29.59 137.05,-36.03"/>
</g>
<!-- I (5 days) -->
<g id="node16" class="node">
<title>I (5 days)</title>
<ellipse fill="none" stroke="black" cx="169.33" cy="-378" rx="46.75" ry="18"/>
<text text-anchor="middle" x="169.33" y="-372.95" font-family="Times New Roman,serif" font-size="14.00">I (5 days)</text>
</g>
<!-- H (4 days)&#45;&gt;I (5 days) -->
<g id="edge16" class="edge">
<title>H (4 days)&#45;&gt;I (5 days)</title>
<path fill="none" stroke="black" d="M169.33,-431.7C169.33,-424.41 169.33,-415.73 169.33,-407.54"/>
<polygon fill="black" stroke="black" points="172.83,-407.62 169.33,-397.62 165.83,-407.62 172.83,-407.62"/>
</g>
<!-- J (2 days) -->
<g id="node17" class="node">
<title>J (2 days)</title>
<ellipse fill="none" stroke="black" cx="170.33" cy="-306" rx="47.26" ry="18"/>
<text text-anchor="middle" x="170.33" y="-300.95" font-family="Times New Roman,serif" font-size="14.00">J (2 days)</text>
</g>
<!-- I (5 days)&#45;&gt;J (2 days) -->
<g id="edge17" class="edge">
<title>I (5 days)&#45;&gt;J (2 days)</title>
<path fill="none" stroke="black" d="M169.57,-359.7C169.68,-352.41 169.8,-343.73 169.92,-335.54"/>
<polygon fill="black" stroke="black" points="173.42,-335.67 170.06,-325.62 166.42,-335.57 173.42,-335.67"/>
</g>
<!-- O (2 days) -->
<g id="node18" class="node">
<title>O (2 days)</title>
<ellipse fill="none" stroke="black" cx="93.33" cy="-162" rx="50.33" ry="18"/>
<text text-anchor="middle" x="93.33" y="-156.95" font-family="Times New Roman,serif" font-size="14.00">O (2 days)</text>
</g>
<!-- I (5 days)&#45;&gt;O (2 days) -->
<g id="edge18" class="edge">
<title>I (5 days)&#45;&gt;O (2 days)</title>
<path fill="none" stroke="black" d="M147.28,-361.65C135.5,-352.2 121.91,-339.04 114.33,-324 92.86,-281.4 90.6,-224.77 91.53,-191.28"/>
<polygon fill="black" stroke="black" points="95.02,-191.7 91.93,-181.56 88.02,-191.41 95.02,-191.7"/>
</g>
<!-- K (3 days) -->
<g id="node19" class="node">
<title>K (3 days)</title>
<ellipse fill="none" stroke="black" cx="171.33" cy="-234" rx="50.33" ry="18"/>
<text text-anchor="middle" x="171.33" y="-228.95" font-family="Times New Roman,serif" font-size="14.00">K (3 days)</text>
</g>
<!-- J (2 days)&#45;&gt;K (3 days) -->
<g id="edge19" class="edge">
<title>J (2 days)&#45;&gt;K (3 days)</title>
<path fill="none" stroke="black" d="M170.57,-287.7C170.68,-280.41 170.8,-271.73 170.92,-263.54"/>
<polygon fill="black" stroke="black" points="174.42,-263.67 171.06,-253.62 167.42,-263.57 174.42,-263.67"/>
</g>
<!-- O (2 days)&#45;&gt;P (3 days) -->
<g id="edge20" class="edge">
<title>O (2 days)&#45;&gt;P (3 days)</title>
<path fill="none" stroke="black" d="M111.42,-144.76C121.36,-135.84 133.88,-124.61 144.9,-114.72"/>
<polygon fill="black" stroke="black" points="147.1,-117.44 152.21,-108.16 142.43,-112.23 147.1,-117.44"/>
</g>
<!-- K (3 days)&#45;&gt;M (2 days) -->
<g id="edge21" class="edge">
<title>K (3 days)&#45;&gt;M (2 days)</title>
<path fill="none" stroke="black" d="M189.48,-217.12C199.77,-208.12 212.83,-196.68 224.3,-186.65"/>
<polygon fill="black" stroke="black" points="226.33,-189.52 231.55,-180.3 221.72,-184.25 226.33,-189.52"/>
</g>
<!-- K (3 days)&#45;&gt;O (2 days) -->
<g id="edge22" class="edge">
<title>K (3 days)&#45;&gt;O (2 days)</title>
<path fill="none" stroke="black" d="M153.24,-216.76C143.29,-207.84 130.78,-196.61 119.76,-186.72"/>
<polygon fill="black" stroke="black" points="122.23,-184.23 112.45,-180.16 117.55,-189.44 122.23,-184.23"/>
</g>
<!-- K (3 days)&#45;&gt;P (3 days) -->
<g id="edge23" class="edge">
<title>K (3 days)&#45;&gt;P (3 days)</title>
<path fill="none" stroke="black" d="M171.33,-215.59C171.33,-191.61 171.33,-148.14 171.33,-119.42"/>
<polygon fill="black" stroke="black" points="174.83,-119.62 171.33,-109.62 167.83,-119.62 174.83,-119.62"/>
</g>
<!-- P (3 days)&#45;&gt;END -->
<g id="edge25" class="edge">
<title>P (3 days)&#45;&gt;END</title>
<path fill="none" stroke="black" d="M171.33,-71.7C171.33,-64.41 171.33,-55.73 171.33,-47.54"/>
<polygon fill="black" stroke="black" points="174.83,-47.62 171.33,-37.62 167.83,-47.62 174.83,-47.62"/>
</g>
<!-- T (7 days) -->
<g id="node22" class="node">
<title>T (7 days)</title>
<ellipse fill="none" stroke="black" cx="332.33" cy="-738" rx="49.3" ry="18"/>
<text text-anchor="middle" x="332.33" y="-732.95" font-family="Times New Roman,serif" font-size="14.00">T (7 days)</text>
</g>
<!-- S (15 days)&#45;&gt;T (7 days) -->
<g id="edge27" class="edge">
<title>S (15 days)&#45;&gt;T (7 days)</title>
<path fill="none" stroke="black" d="M332.33,-791.7C332.33,-784.41 332.33,-775.73 332.33,-767.54"/>
<polygon fill="black" stroke="black" points="335.83,-767.62 332.33,-757.62 328.83,-767.62 335.83,-767.62"/>
</g>
<!-- U (10 days) -->
<g id="node23" class="node">
<title>U (10 days)</title>
<ellipse fill="none" stroke="black" cx="332.33" cy="-522" rx="54.93" ry="18"/>
<text text-anchor="middle" x="332.33" y="-516.95" font-family="Times New Roman,serif" font-size="14.00">U (10 days)</text>
</g>
<!-- T (7 days)&#45;&gt;U (10 days) -->
<g id="edge28" class="edge">
<title>T (7 days)&#45;&gt;U (10 days)</title>
<path fill="none" stroke="black" d="M332.33,-719.85C332.33,-683.14 332.33,-596.66 332.33,-551.53"/>
<polygon fill="black" stroke="black" points="335.83,-551.75 332.33,-541.75 328.83,-551.75 335.83,-551.75"/>
</g>
<!-- U (10 days)&#45;&gt;END -->
<g id="edge29" class="edge">
<title>U (10 days)&#45;&gt;END</title>
<path fill="none" stroke="black" d="M332.33,-503.51C332.33,-476.71 332.33,-423.87 332.33,-379 332.33,-379 332.33,-379 332.33,-161 332.33,-94.79 254.79,-52.09 207.33,-32.15"/>
<polygon fill="black" stroke="black" points="208.82,-28.98 198.24,-28.48 206.2,-35.47 208.82,-28.98"/>
</g>
</g>
</svg>
