<?xml version="1.0" encoding="UTF-8" standalone="no"?>
<!DOCTYPE svg PUBLIC "-//W3C//DTD SVG 1.1//EN"
 "http://www.w3.org/Graphics/SVG/1.1/DTD/svg11.dtd">
<!-- Generated by graphviz version 12.1.2 (20240928.0832)
 -->
<!-- Title: PERT_CPM Pages: 1 -->
<svg width="431pt" height="1052pt"
 viewBox="0.00 0.00 431.26 1052.00" xmlns="http://www.w3.org/2000/svg" xmlns:xlink="http://www.w3.org/1999/xlink">
<g id="graph0" class="graph" transform="scale(1 1) rotate(0) translate(4 1048)">
<title>PERT_CPM</title>
<polygon fill="white" stroke="none" points="-4,4 -4,-1048 427.26,-1048 427.26,4 -4,4"/>
<!-- START -->
<g id="node1" class="node">
<title>START</title>
<ellipse fill="none" stroke="black" cx="285.33" cy="-1026" rx="39.07" ry="18"/>
<text text-anchor="middle" x="285.33" y="-1020.95" font-family="Times New Roman,serif" font-size="14.00">START</text>
</g>
<!-- A (5 days) -->
<g id="node2" class="node">
<title>A (5 days)</title>
<ellipse fill="none" stroke="black" cx="207.33" cy="-954" rx="49.82" ry="18"/>
<text text-anchor="middle" x="207.33" y="-948.95" font-family="Times New Roman,serif" font-size="14.00">A (5 days)</text>
</g>
<!-- START&#45;&gt;A (5 days) -->
<g id="edge1" class="edge">
<title>START&#45;&gt;A (5 days)</title>
<path fill="none" stroke="black" d="M268.02,-1009.46C257.93,-1000.41 245.01,-988.82 233.68,-978.65"/>
<polygon fill="black" stroke="black" points="236.31,-976.31 226.53,-972.23 231.63,-981.52 236.31,-976.31"/>
</g>
<!-- L (5 days) -->
<g id="node3" class="node">
<title>L (5 days)</title>
<ellipse fill="none" stroke="black" cx="285.33" cy="-594" rx="49.3" ry="18"/>
<text text-anchor="middle" x="285.33" y="-588.95" font-family="Times New Roman,serif" font-size="14.00">L (5 days)</text>
</g>
<!-- START&#45;&gt;L (5 days) -->
<g id="edge2" class="edge">
<title>START&#45;&gt;L (5 days)</title>
<path fill="none" stroke="black" d="M285.33,-1007.51C285.33,-980.71 285.33,-927.87 285.33,-883 285.33,-883 285.33,-883 285.33,-737 285.33,-697.74 285.33,-652.38 285.33,-623.69"/>
<polygon fill="black" stroke="black" points="288.83,-624 285.33,-614 281.83,-624 288.83,-624"/>
</g>
<!-- Q (10 days) -->
<g id="node4" class="node">
<title>Q (10 days)</title>
<ellipse fill="none" stroke="black" cx="368.33" cy="-954" rx="54.93" ry="18"/>
<text text-anchor="middle" x="368.33" y="-948.95" font-family="Times New Roman,serif" font-size="14.00">Q (10 days)</text>
</g>
<!-- START&#45;&gt;Q (10 days) -->
<g id="edge3" class="edge">
<title>START&#45;&gt;Q (10 days)</title>
<path fill="none" stroke="black" d="M303.34,-1009.81C314.23,-1000.62 328.35,-988.72 340.64,-978.35"/>
<polygon fill="black" stroke="black" points="342.65,-981.23 348.04,-972.11 338.14,-975.88 342.65,-981.23"/>
</g>
<!-- B (8 days) -->
<g id="node5" class="node">
<title>B (8 days)</title>
<ellipse fill="none" stroke="black" cx="207.33" cy="-882" rx="49.82" ry="18"/>
<text text-anchor="middle" x="207.33" y="-876.95" font-family="Times New Roman,serif" font-size="14.00">B (8 days)</text>
</g>
<!-- A (5 days)&#45;&gt;B (8 days) -->
<g id="edge4" class="edge">
<title>A (5 days)&#45;&gt;B (8 days)</title>
<path fill="none" stroke="black" d="M207.33,-935.7C207.33,-928.41 207.33,-919.73 207.33,-911.54"/>
<polygon fill="black" stroke="black" points="210.83,-911.62 207.33,-901.62 203.83,-911.62 210.83,-911.62"/>
</g>
<!-- M (2 days) -->
<g id="node6" class="node">
<title>M (2 days)</title>
<ellipse fill="none" stroke="black" cx="286.33" cy="-162" rx="52.38" ry="18"/>
<text text-anchor="middle" x="286.33" y="-156.95" font-family="Times New Roman,serif" font-size="14.00">M (2 days)</text>
</g>
<!-- L (5 days)&#45;&gt;M (2 days) -->
<g id="edge5" class="edge">
<title>L (5 days)&#45;&gt;M (2 days)</title>
<path fill="none" stroke="black" d="M285.33,-575.51C285.33,-548.71 285.33,-495.87 285.33,-451 285.33,-451 285.33,-451 285.33,-305 285.33,-265.74 285.71,-220.37 286.01,-191.69"/>
<polygon fill="black" stroke="black" points="289.5,-192.04 286.11,-182 282.5,-191.96 289.5,-192.04"/>
</g>
<!-- R (5 days) -->
<g id="node7" class="node">
<title>R (5 days)</title>
<ellipse fill="none" stroke="black" cx="368.33" cy="-882" rx="49.82" ry="18"/>
<text text-anchor="middle" x="368.33" y="-876.95" font-family="Times New Roman,serif" font-size="14.00">R (5 days)</text>
</g>
<!-- Q (10 days)&#45;&gt;R (5 days) -->
<g id="edge6" class="edge">
<title>Q (10 days)&#45;&gt;R (5 days)</title>
<path fill="none" stroke="black" d="M368.33,-935.7C368.33,-928.41 368.33,-919.73 368.33,-911.54"/>
<polygon fill="black" stroke="black" points="371.83,-911.62 368.33,-901.62 364.83,-911.62 371.83,-911.62"/>
</g>
<!-- C (6 days) -->
<g id="node8" class="node">
<title>C (6 days)</title>
<ellipse fill="none" stroke="black" cx="130.33" cy="-810" rx="49.82" ry="18"/>
<text text-anchor="middle" x="130.33" y="-804.95" font-family="Times New Roman,serif" font-size="14.00">C (6 days)</text>
</g>
<!-- B (8 days)&#45;&gt;C (6 days) -->
<g id="edge7" class="edge">
<title>B (8 days)&#45;&gt;C (6 days)</title>
<path fill="none" stroke="black" d="M189.47,-864.76C179.65,-855.84 167.3,-844.61 156.42,-834.72"/>
<polygon fill="black" stroke="black" points="158.96,-832.3 149.21,-828.17 154.25,-837.48 158.96,-832.3"/>
</g>
<!-- P (3 days) -->
<g id="node20" class="node">
<title>P (3 days)</title>
<ellipse fill="none" stroke="black" cx="206.33" cy="-90" rx="48.79" ry="18"/>
<text text-anchor="middle" x="206.33" y="-84.95" font-family="Times New Roman,serif" font-size="14.00">P (3 days)</text>
</g>
<!-- M (2 days)&#45;&gt;P (3 days) -->
<g id="edge25" class="edge">
<title>M (2 days)&#45;&gt;P (3 days)</title>
<path fill="none" stroke="black" d="M267.77,-144.76C257.58,-135.84 244.74,-124.61 233.44,-114.72"/>
<polygon fill="black" stroke="black" points="235.75,-112.1 225.92,-108.14 231.14,-117.36 235.75,-112.1"/>
</g>
<!-- S (15 days) -->
<g id="node21" class="node">
<title>S (15 days)</title>
<ellipse fill="none" stroke="black" cx="368.33" cy="-810" rx="53.4" ry="18"/>
<text text-anchor="middle" x="368.33" y="-804.95" font-family="Times New Roman,serif" font-size="14.00">S (15 days)</text>
</g>
<!-- R (5 days)&#45;&gt;S (15 days) -->
<g id="edge27" class="edge">
<title>R (5 days)&#45;&gt;S (15 days)</title>
<path fill="none" stroke="black" d="M368.33,-863.7C368.33,-856.41 368.33,-847.73 368.33,-839.54"/>
<polygon fill="black" stroke="black" points="371.83,-839.62 368.33,-829.62 364.83,-839.62 371.83,-839.62"/>
</g>
<!-- D (3 days) -->
<g id="node9" class="node">
<title>D (3 days)</title>
<ellipse fill="none" stroke="black" cx="132.33" cy="-738" rx="50.33" ry="18"/>
<text text-anchor="middle" x="132.33" y="-732.95" font-family="Times New Roman,serif" font-size="14.00">D (3 days)</text>
</g>
<!-- C (6 days)&#45;&gt;D (3 days) -->
<g id="edge8" class="edge">
<title>C (6 days)&#45;&gt;D (3 days)</title>
<path fill="none" stroke="black" d="M130.82,-791.7C131.03,-784.41 131.28,-775.73 131.51,-767.54"/>
<polygon fill="black" stroke="black" points="135.01,-767.71 131.8,-757.62 128.01,-767.51 135.01,-767.71"/>
</g>
<!-- D (3 days)&#45;&gt;B (8 days) -->
<g id="edge9" class="edge">
<title>D (3 days)&#45;&gt;B (8 days)</title>
<path fill="none" stroke="black" d="M154.77,-754.41C166.85,-763.87 180.94,-777.03 189.33,-792 199.64,-810.41 204.09,-833.91 205.99,-852.14"/>
<polygon fill="black" stroke="black" points="202.49,-852.33 206.8,-862.01 209.47,-851.76 202.49,-852.33"/>
</g>
<!-- E (5 days) -->
<g id="node10" class="node">
<title>E (5 days)</title>
<ellipse fill="none" stroke="black" cx="132.33" cy="-666" rx="49.3" ry="18"/>
<text text-anchor="middle" x="132.33" y="-660.95" font-family="Times New Roman,serif" font-size="14.00">E (5 days)</text>
</g>
<!-- D (3 days)&#45;&gt;E (5 days) -->
<g id="edge10" class="edge">
<title>D (3 days)&#45;&gt;E (5 days)</title>
<path fill="none" stroke="black" d="M132.33,-719.7C132.33,-712.41 132.33,-703.73 132.33,-695.54"/>
<polygon fill="black" stroke="black" points="135.83,-695.62 132.33,-685.62 128.83,-695.62 135.83,-695.62"/>
</g>
<!-- F (3 days) -->
<g id="node11" class="node">
<title>F (3 days)</title>
<ellipse fill="none" stroke="black" cx="132.33" cy="-594" rx="48.79" ry="18"/>
<text text-anchor="middle" x="132.33" y="-588.95" font-family="Times New Roman,serif" font-size="14.00">F (3 days)</text>
</g>
<!-- E (5 days)&#45;&gt;F (3 days) -->
<g id="edge11" class="edge">
<title>E (5 days)&#45;&gt;F (3 days)</title>
<path fill="none" stroke="black" d="M132.33,-647.7C132.33,-640.41 132.33,-631.73 132.33,-623.54"/>
<polygon fill="black" stroke="black" points="135.83,-623.62 132.33,-613.62 128.83,-623.62 135.83,-623.62"/>
</g>
<!-- G (10 days) -->
<g id="node12" class="node">
<title>G (10 days)</title>
<ellipse fill="none" stroke="black" cx="133.33" cy="-522" rx="54.93" ry="18"/>
<text text-anchor="middle" x="133.33" y="-516.95" font-family="Times New Roman,serif" font-size="14.00">G (10 days)</text>
</g>
<!-- F (3 days)&#45;&gt;G (10 days) -->
<g id="edge12" class="edge">
<title>F (3 days)&#45;&gt;G (10 days)</title>
<path fill="none" stroke="black" d="M132.57,-575.7C132.68,-568.41 132.8,-559.73 132.92,-551.54"/>
<polygon fill="black" stroke="black" points="136.42,-551.67 133.06,-541.62 129.42,-551.57 136.42,-551.67"/>
</g>
<!-- N (4 days) -->
<g id="node13" class="node">
<title>N (4 days)</title>
<ellipse fill="none" stroke="black" cx="50.33" cy="-450" rx="50.33" ry="18"/>
<text text-anchor="middle" x="50.33" y="-444.95" font-family="Times New Roman,serif" font-size="14.00">N (4 days)</text>
</g>
<!-- F (3 days)&#45;&gt;N (4 days) -->
<g id="edge13" class="edge">
<title>F (3 days)&#45;&gt;N (4 days)</title>
<path fill="none" stroke="black" d="M107.58,-578.04C94.25,-568.73 78.67,-555.56 69.33,-540 58.37,-521.75 53.68,-498.07 51.7,-479.72"/>
<polygon fill="black" stroke="black" points="55.19,-479.45 50.86,-469.78 48.22,-480.04 55.19,-479.45"/>
</g>
<!-- G (10 days)&#45;&gt;N (4 days) -->
<g id="edge15" class="edge">
<title>G (10 days)&#45;&gt;N (4 days)</title>
<path fill="none" stroke="black" d="M114.08,-504.76C103.32,-495.69 89.72,-484.22 77.85,-474.21"/>
<polygon fill="black" stroke="black" points="80.25,-471.65 70.34,-467.88 75.73,-477 80.25,-471.65"/>
</g>
<!-- H (4 days) -->
<g id="node14" class="node">
<title>H (4 days)</title>
<ellipse fill="none" stroke="black" cx="169.33" cy="-450" rx="50.33" ry="18"/>
<text text-anchor="middle" x="169.33" y="-444.95" font-family="Times New Roman,serif" font-size="14.00">H (4 days)</text>
</g>
<!-- G (10 days)&#45;&gt;H (4 days) -->
<g id="edge14" class="edge">
<title>G (10 days)&#45;&gt;H (4 days)</title>
<path fill="none" stroke="black" d="M142.04,-504.05C146.07,-496.23 150.94,-486.75 155.45,-477.98"/>
<polygon fill="black" stroke="black" points="158.54,-479.63 160,-469.13 152.32,-476.43 158.54,-479.63"/>
</g>
<!-- END -->
<g id="node15" class="node">
<title>END</title>
<ellipse fill="none" stroke="black" cx="206.33" cy="-18" rx="29.86" ry="18"/>
<text text-anchor="middle" x="206.33" y="-12.95" font-family="Times New Roman,serif" font-size="14.00">END</text>
</g>
<!-- N (4 days)&#45;&gt;END -->
<g id="edge16" class="edge">
<title>N (4 days)&#45;&gt;END</title>
<path fill="none" stroke="black" d="M50.33,-431.51C50.33,-404.71 50.33,-351.87 50.33,-307 50.33,-307 50.33,-307 50.33,-161 50.33,-96.24 124.75,-53.2 170.79,-32.76"/>
<polygon fill="black" stroke="black" points="172.05,-36.03 179.87,-28.88 169.3,-29.59 172.05,-36.03"/>
</g>
<!-- I (5 days) -->
<g id="node16" class="node">
<title>I (5 days)</title>
<ellipse fill="none" stroke="black" cx="169.33" cy="-378" rx="46.75" ry="18"/>
<text text-anchor="middle" x="169.33" y="-372.95" font-family="Times New Roman,serif" font-size="14.00">I (5 days)</text>
</g>
<!-- H (4 days)&#45;&gt;I (5 days) -->
<g id="edge17" class="edge">
<title>H (4 days)&#45;&gt;I (5 days)</title>
<path fill="none" stroke="black" d="M169.33,-431.7C169.33,-424.41 169.33,-415.73 169.33,-407.54"/>
<polygon fill="black" stroke="black" points="172.83,-407.62 169.33,-397.62 165.83,-407.62 172.83,-407.62"/>
</g>
<!-- J (2 days) -->
<g id="node17" class="node">
<title>J (2 days)</title>
<ellipse fill="none" stroke="black" cx="204.33" cy="-306" rx="47.26" ry="18"/>
<text text-anchor="middle" x="204.33" y="-300.95" font-family="Times New Roman,serif" font-size="14.00">J (2 days)</text>
</g>
<!-- I (5 days)&#45;&gt;J (2 days) -->
<g id="edge18" class="edge">
<title>I (5 days)&#45;&gt;J (2 days)</title>
<path fill="none" stroke="black" d="M177.8,-360.05C181.71,-352.23 186.45,-342.75 190.84,-333.98"/>
<polygon fill="black" stroke="black" points="193.91,-335.65 195.26,-325.14 187.65,-332.52 193.91,-335.65"/>
</g>
<!-- O (2 days) -->
<g id="node18" class="node">
<title>O (2 days)</title>
<ellipse fill="none" stroke="black" cx="128.33" cy="-162" rx="50.33" ry="18"/>
<text text-anchor="middle" x="128.33" y="-156.95" font-family="Times New Roman,serif" font-size="14.00">O (2 days)</text>
</g>
<!-- I (5 days)&#45;&gt;O (2 days) -->
<g id="edge19" class="edge">
<title>I (5 days)&#45;&gt;O (2 days)</title>
<path fill="none" stroke="black" d="M161.39,-360.18C156.88,-349.94 151.52,-336.47 148.33,-324 136.69,-278.51 131.73,-223.99 129.68,-191.5"/>
<polygon fill="black" stroke="black" points="133.19,-191.48 129.12,-181.7 126.2,-191.88 133.19,-191.48"/>
</g>
<!-- K (3 days) -->
<g id="node19" class="node">
<title>K (3 days)</title>
<ellipse fill="none" stroke="black" cx="206.33" cy="-234" rx="50.33" ry="18"/>
<text text-anchor="middle" x="206.33" y="-228.95" font-family="Times New Roman,serif" font-size="14.00">K (3 days)</text>
</g>
<!-- J (2 days)&#45;&gt;K (3 days) -->
<g id="edge20" class="edge">
<title>J (2 days)&#45;&gt;K (3 days)</title>
<path fill="none" stroke="black" d="M204.82,-287.7C205.03,-280.41 205.28,-271.73 205.51,-263.54"/>
<polygon fill="black" stroke="black" points="209.01,-263.71 205.8,-253.62 202.01,-263.51 209.01,-263.71"/>
</g>
<!-- O (2 days)&#45;&gt;P (3 days) -->
<g id="edge21" class="edge">
<title>O (2 days)&#45;&gt;P (3 days)</title>
<path fill="none" stroke="black" d="M146.42,-144.76C156.36,-135.84 168.88,-124.61 179.9,-114.72"/>
<polygon fill="black" stroke="black" points="182.1,-117.44 187.21,-108.16 177.43,-112.23 182.1,-117.44"/>
</g>
<!-- K (3 days)&#45;&gt;M (2 days) -->
<g id="edge22" class="edge">
<title>K (3 days)&#45;&gt;M (2 days)</title>
<path fill="none" stroke="black" d="M224.48,-217.12C234.77,-208.12 247.83,-196.68 259.3,-186.65"/>
<polygon fill="black" stroke="black" points="261.33,-189.52 266.55,-180.3 256.72,-184.25 261.33,-189.52"/>
</g>
<!-- K (3 days)&#45;&gt;O (2 days) -->
<g id="edge23" class="edge">
<title>K (3 days)&#45;&gt;O (2 days)</title>
<path fill="none" stroke="black" d="M188.24,-216.76C178.29,-207.84 165.78,-196.61 154.76,-186.72"/>
<polygon fill="black" stroke="black" points="157.23,-184.23 147.45,-180.16 152.55,-189.44 157.23,-184.23"/>
</g>
<!-- K (3 days)&#45;&gt;P (3 days) -->
<g id="edge24" class="edge">
<title>K (3 days)&#45;&gt;P (3 days)</title>
<path fill="none" stroke="black" d="M206.33,-215.59C206.33,-191.61 206.33,-148.14 206.33,-119.42"/>
<polygon fill="black" stroke="black" points="209.83,-119.62 206.33,-109.62 202.83,-119.62 209.83,-119.62"/>
</g>
<!-- P (3 days)&#45;&gt;END -->
<g id="edge26" class="edge">
<title>P (3 days)&#45;&gt;END</title>
<path fill="none" stroke="black" d="M206.33,-71.7C206.33,-64.41 206.33,-55.73 206.33,-47.54"/>
<polygon fill="black" stroke="black" points="209.83,-47.62 206.33,-37.62 202.83,-47.62 209.83,-47.62"/>
</g>
<!-- T (7 days) -->
<g id="node22" class="node">
<title>T (7 days)</title>
<ellipse fill="none" stroke="black" cx="368.33" cy="-738" rx="49.3" ry="18"/>
<text text-anchor="middle" x="368.33" y="-732.95" font-family="Times New Roman,serif" font-size="14.00">T (7 days)</text>
</g>
<!-- S (15 days)&#45;&gt;T (7 days) -->
<g id="edge28" class="edge">
<title>S (15 days)&#45;&gt;T (7 days)</title>
<path fill="none" stroke="black" d="M368.33,-791.7C368.33,-784.41 368.33,-775.73 368.33,-767.54"/>
<polygon fill="black" stroke="black" points="371.83,-767.62 368.33,-757.62 364.83,-767.62 371.83,-767.62"/>
</g>
<!-- U (10 days) -->
<g id="node23" class="node">
<title>U (10 days)</title>
<ellipse fill="none" stroke="black" cx="368.33" cy="-522" rx="54.93" ry="18"/>
<text text-anchor="middle" x="368.33" y="-516.95" font-family="Times New Roman,serif" font-size="14.00">U (10 days)</text>
</g>
<!-- T (7 days)&#45;&gt;U (10 days) -->
<g id="edge29" class="edge">
<title>T (7 days)&#45;&gt;U (10 days)</title>
<path fill="none" stroke="black" d="M368.33,-719.85C368.33,-683.14 368.33,-596.66 368.33,-551.53"/>
<polygon fill="black" stroke="black" points="371.83,-551.75 368.33,-541.75 364.83,-551.75 371.83,-551.75"/>
</g>
<!-- U (10 days)&#45;&gt;END -->
<g id="edge30" class="edge">
<title>U (10 days)&#45;&gt;END</title>
<path fill="none" stroke="black" d="M368.13,-503.51C367.83,-476.71 367.33,-423.87 367.33,-379 367.33,-379 367.33,-379 367.33,-161 367.33,-94.79 289.79,-52.09 242.33,-32.15"/>
<polygon fill="black" stroke="black" points="243.82,-28.98 233.24,-28.48 241.2,-35.47 243.82,-28.98"/>
</g>
</g>
</svg>
