<?xml version="1.0" encoding="UTF-8" standalone="no"?>
<!DOCTYPE svg PUBLIC "-//W3C//DTD SVG 1.1//EN"
 "http://www.w3.org/Graphics/SVG/1.1/DTD/svg11.dtd">
<!-- Generated by graphviz version 10.0.1 (20240210.2158)
 -->
<!-- Title: PERT_CPM Pages: 1 -->
<svg width="329pt" height="548pt"
 viewBox="0.00 0.00 328.70 548.00" xmlns="http://www.w3.org/2000/svg" xmlns:xlink="http://www.w3.org/1999/xlink">
<g id="graph0" class="graph" transform="scale(1 1) rotate(0) translate(4 544)">
<title>PERT_CPM</title>
<polygon fill="white" stroke="none" points="-4,4 -4,-544 324.7,-544 324.7,4 -4,4"/>
<!-- START -->
<g id="node1" class="node">
<title>START</title>
<ellipse fill="none" stroke="black" cx="186.82" cy="-522" rx="40.09" ry="18"/>
<text text-anchor="middle" x="186.82" y="-516.95" font-family="Times,serif" font-size="14.00">START</text>
</g>
<!-- A (1 week) -->
<g id="node2" class="node">
<title>A (1 week)</title>
<ellipse fill="none" stroke="black" cx="125.82" cy="-450" rx="52.38" ry="18"/>
<text text-anchor="middle" x="125.82" y="-444.95" font-family="Times,serif" font-size="14.00">A (1 week)</text>
</g>
<!-- START&#45;&gt;A (1 week) -->
<g id="edge1" class="edge">
<title>START&#45;&gt;A (1 week)</title>
<path fill="none" stroke="black" d="M172.67,-504.76C165.31,-496.32 156.14,-485.8 147.87,-476.31"/>
<polygon fill="black" stroke="black" points="150.51,-474.01 141.31,-468.77 145.24,-478.61 150.51,-474.01"/>
</g>
<!-- B (4 week) -->
<g id="node3" class="node">
<title>B (4 week)</title>
<ellipse fill="none" stroke="black" cx="248.82" cy="-450" rx="52.38" ry="18"/>
<text text-anchor="middle" x="248.82" y="-444.95" font-family="Times,serif" font-size="14.00">B (4 week)</text>
</g>
<!-- START&#45;&gt;B (4 week) -->
<g id="edge2" class="edge">
<title>START&#45;&gt;B (4 week)</title>
<path fill="none" stroke="black" d="M201.2,-504.76C208.76,-496.23 218.19,-485.58 226.66,-476.02"/>
<polygon fill="black" stroke="black" points="229.07,-478.57 233.08,-468.77 223.83,-473.93 229.07,-478.57"/>
</g>
<!-- D (3 week) -->
<g id="node4" class="node">
<title>D (3 week)</title>
<ellipse fill="none" stroke="black" cx="125.82" cy="-378" rx="52.89" ry="18"/>
<text text-anchor="middle" x="125.82" y="-372.95" font-family="Times,serif" font-size="14.00">D (3 week)</text>
</g>
<!-- A (1 week)&#45;&gt;D (3 week) -->
<g id="edge3" class="edge">
<title>A (1 week)&#45;&gt;D (3 week)</title>
<path fill="none" stroke="black" d="M125.82,-431.7C125.82,-424.41 125.82,-415.73 125.82,-407.54"/>
<polygon fill="black" stroke="black" points="129.32,-407.62 125.82,-397.62 122.32,-407.62 129.32,-407.62"/>
</g>
<!-- C (2 week) -->
<g id="node5" class="node">
<title>C (2 week)</title>
<ellipse fill="none" stroke="black" cx="248.82" cy="-378" rx="52.38" ry="18"/>
<text text-anchor="middle" x="248.82" y="-372.95" font-family="Times,serif" font-size="14.00">C (2 week)</text>
</g>
<!-- B (4 week)&#45;&gt;C (2 week) -->
<g id="edge4" class="edge">
<title>B (4 week)&#45;&gt;C (2 week)</title>
<path fill="none" stroke="black" d="M248.82,-431.7C248.82,-424.41 248.82,-415.73 248.82,-407.54"/>
<polygon fill="black" stroke="black" points="252.32,-407.62 248.82,-397.62 245.32,-407.62 252.32,-407.62"/>
</g>
<!-- E (2 week) -->
<g id="node6" class="node">
<title>E (2 week)</title>
<ellipse fill="none" stroke="black" cx="125.82" cy="-306" rx="51.86" ry="18"/>
<text text-anchor="middle" x="125.82" y="-300.95" font-family="Times,serif" font-size="14.00">E (2 week)</text>
</g>
<!-- D (3 week)&#45;&gt;E (2 week) -->
<g id="edge5" class="edge">
<title>D (3 week)&#45;&gt;E (2 week)</title>
<path fill="none" stroke="black" d="M125.82,-359.7C125.82,-352.41 125.82,-343.73 125.82,-335.54"/>
<polygon fill="black" stroke="black" points="129.32,-335.62 125.82,-325.62 122.32,-335.62 129.32,-335.62"/>
</g>
<!-- F (4 week) -->
<g id="node7" class="node">
<title>F (4 week)</title>
<ellipse fill="none" stroke="black" cx="247.82" cy="-306" rx="51.35" ry="18"/>
<text text-anchor="middle" x="247.82" y="-300.95" font-family="Times,serif" font-size="14.00">F (4 week)</text>
</g>
<!-- D (3 week)&#45;&gt;F (4 week) -->
<g id="edge6" class="edge">
<title>D (3 week)&#45;&gt;F (4 week)</title>
<path fill="none" stroke="black" d="M151.99,-361.98C169.56,-351.9 192.92,-338.5 212.18,-327.45"/>
<polygon fill="black" stroke="black" points="213.86,-330.52 220.79,-322.5 210.38,-324.45 213.86,-330.52"/>
</g>
<!-- C (2 week)&#45;&gt;F (4 week) -->
<g id="edge7" class="edge">
<title>C (2 week)&#45;&gt;F (4 week)</title>
<path fill="none" stroke="black" d="M248.57,-359.7C248.46,-352.41 248.34,-343.73 248.22,-335.54"/>
<polygon fill="black" stroke="black" points="251.72,-335.57 248.08,-325.62 244.73,-335.67 251.72,-335.57"/>
</g>
<!-- G (3 week) -->
<g id="node8" class="node">
<title>G (3 week)</title>
<ellipse fill="none" stroke="black" cx="125.82" cy="-234" rx="52.89" ry="18"/>
<text text-anchor="middle" x="125.82" y="-228.95" font-family="Times,serif" font-size="14.00">G (3 week)</text>
</g>
<!-- E (2 week)&#45;&gt;G (3 week) -->
<g id="edge10" class="edge">
<title>E (2 week)&#45;&gt;G (3 week)</title>
<path fill="none" stroke="black" d="M125.82,-287.7C125.82,-280.41 125.82,-271.73 125.82,-263.54"/>
<polygon fill="black" stroke="black" points="129.32,-263.62 125.82,-253.62 122.32,-263.62 129.32,-263.62"/>
</g>
<!-- F (4 week)&#45;&gt;G (3 week) -->
<g id="edge8" class="edge">
<title>F (4 week)&#45;&gt;G (3 week)</title>
<path fill="none" stroke="black" d="M221.94,-290.15C204.51,-280.15 181.28,-266.82 162.02,-255.77"/>
<polygon fill="black" stroke="black" points="163.8,-252.76 153.39,-250.82 160.32,-258.83 163.8,-252.76"/>
</g>
<!-- H (2 week) -->
<g id="node9" class="node">
<title>H (2 week)</title>
<ellipse fill="none" stroke="black" cx="267.82" cy="-234" rx="52.89" ry="18"/>
<text text-anchor="middle" x="267.82" y="-228.95" font-family="Times,serif" font-size="14.00">H (2 week)</text>
</g>
<!-- F (4 week)&#45;&gt;H (2 week) -->
<g id="edge9" class="edge">
<title>F (4 week)&#45;&gt;H (2 week)</title>
<path fill="none" stroke="black" d="M252.76,-287.7C254.89,-280.24 257.44,-271.32 259.83,-262.97"/>
<polygon fill="black" stroke="black" points="263.13,-264.14 262.51,-253.56 256.4,-262.21 263.13,-264.14"/>
</g>
<!-- I (1 week) -->
<g id="node10" class="node">
<title>I (1 week)</title>
<ellipse fill="none" stroke="black" cx="209.82" cy="-162" rx="49.3" ry="18"/>
<text text-anchor="middle" x="209.82" y="-156.95" font-family="Times,serif" font-size="14.00">I (1 week)</text>
</g>
<!-- G (3 week)&#45;&gt;I (1 week) -->
<g id="edge11" class="edge">
<title>G (3 week)&#45;&gt;I (1 week)</title>
<path fill="none" stroke="black" d="M144.88,-217.12C155.94,-207.9 170.06,-196.13 182.31,-185.92"/>
<polygon fill="black" stroke="black" points="184.23,-188.88 189.67,-179.79 179.74,-183.5 184.23,-188.88"/>
</g>
<!-- J (1 week) -->
<g id="node11" class="node">
<title>J (1 week)</title>
<ellipse fill="none" stroke="black" cx="49.82" cy="-90" rx="49.82" ry="18"/>
<text text-anchor="middle" x="49.82" y="-84.95" font-family="Times,serif" font-size="14.00">J (1 week)</text>
</g>
<!-- G (3 week)&#45;&gt;J (1 week) -->
<g id="edge12" class="edge">
<title>G (3 week)&#45;&gt;J (1 week)</title>
<path fill="none" stroke="black" d="M85.32,-222.07C64.23,-214.1 40.29,-200.93 27.82,-180 16.51,-161.03 23.92,-136.47 33.09,-117.96"/>
<polygon fill="black" stroke="black" points="36.16,-119.64 37.83,-109.18 30,-116.31 36.16,-119.64"/>
</g>
<!-- K (1 week) -->
<g id="node12" class="node">
<title>K (1 week)</title>
<ellipse fill="none" stroke="black" cx="89.82" cy="-162" rx="52.89" ry="18"/>
<text text-anchor="middle" x="89.82" y="-156.95" font-family="Times,serif" font-size="14.00">K (1 week)</text>
</g>
<!-- G (3 week)&#45;&gt;K (1 week) -->
<g id="edge13" class="edge">
<title>G (3 week)&#45;&gt;K (1 week)</title>
<path fill="none" stroke="black" d="M117.1,-216.05C113.08,-208.23 108.2,-198.75 103.69,-189.98"/>
<polygon fill="black" stroke="black" points="106.83,-188.43 99.14,-181.13 100.6,-191.63 106.83,-188.43"/>
</g>
<!-- L (2 week) -->
<g id="node13" class="node">
<title>L (2 week)</title>
<ellipse fill="none" stroke="black" cx="188.82" cy="-90" rx="51.35" ry="18"/>
<text text-anchor="middle" x="188.82" y="-84.95" font-family="Times,serif" font-size="14.00">L (2 week)</text>
</g>
<!-- H (2 week)&#45;&gt;L (2 week) -->
<g id="edge14" class="edge">
<title>H (2 week)&#45;&gt;L (2 week)</title>
<path fill="none" stroke="black" d="M272.36,-215.79C276.35,-196.97 279.81,-166.5 267.82,-144 259.92,-129.2 245.86,-117.8 231.76,-109.43"/>
<polygon fill="black" stroke="black" points="233.85,-106.59 223.4,-104.85 230.49,-112.73 233.85,-106.59"/>
</g>
<!-- I (1 week)&#45;&gt;L (2 week) -->
<g id="edge15" class="edge">
<title>I (1 week)&#45;&gt;L (2 week)</title>
<path fill="none" stroke="black" d="M204.62,-143.7C202.39,-136.24 199.71,-127.32 197.21,-118.97"/>
<polygon fill="black" stroke="black" points="200.61,-118.13 194.38,-109.55 193.9,-120.14 200.61,-118.13"/>
</g>
<!-- END -->
<g id="node14" class="node">
<title>END</title>
<ellipse fill="none" stroke="black" cx="108.82" cy="-18" rx="29.86" ry="18"/>
<text text-anchor="middle" x="108.82" y="-12.95" font-family="Times,serif" font-size="14.00">END</text>
</g>
<!-- J (1 week)&#45;&gt;END -->
<g id="edge16" class="edge">
<title>J (1 week)&#45;&gt;END</title>
<path fill="none" stroke="black" d="M63.8,-72.41C71.13,-63.71 80.25,-52.89 88.37,-43.26"/>
<polygon fill="black" stroke="black" points="91,-45.57 94.77,-35.67 85.65,-41.06 91,-45.57"/>
</g>
<!-- K (1 week)&#45;&gt;L (2 week) -->
<g id="edge17" class="edge">
<title>K (1 week)&#45;&gt;L (2 week)</title>
<path fill="none" stroke="black" d="M111.79,-145.46C125.25,-135.95 142.68,-123.62 157.56,-113.1"/>
<polygon fill="black" stroke="black" points="159.53,-116 165.67,-107.37 155.48,-110.28 159.53,-116"/>
</g>
<!-- L (2 week)&#45;&gt;END -->
<g id="edge18" class="edge">
<title>L (2 week)&#45;&gt;END</title>
<path fill="none" stroke="black" d="M170.26,-72.76C159.45,-63.3 145.66,-51.24 133.89,-40.94"/>
<polygon fill="black" stroke="black" points="136.34,-38.43 126.51,-34.48 131.73,-43.7 136.34,-38.43"/>
</g>
</g>
</svg>
