<svg width="790px" height="156px"
 viewBox="0.00 0.00 790.23 155.63" xmlns="http://www.w3.org/2000/svg" xmlns:xlink="http://www.w3.org/1999/xlink">
<g id="graph0" class="graph" transform="scale(1.0 1.0) rotate(0.0) translate(4.0 151.63)">
<title>Product Structure</title>
<polygon fill="white" stroke="transparent" points="-4,4 -4,-151.63 786.23,-151.63 786.23,4 -4,4"/>
<!-- 1006 -->
<g id="node1" class="node">
<title>1006</title>
<ellipse fill="none" stroke="black" cx="31.11" cy="-29.42" rx="31.23" ry="29.33"/>
<text text-anchor="middle" x="31.11" y="-33.62" font-family="Times,serif" font-size="14.00">1006</text>
<text text-anchor="middle" x="31.11" y="-16.82" font-family="Times,serif" font-size="14.00">1</text>
</g>
<!-- 1010 -->
<g id="node2" class="node">
<title>1010</title>
<ellipse fill="none" stroke="black" cx="111.11" cy="-29.42" rx="31.23" ry="29.33"/>
<text text-anchor="middle" x="111.11" y="-33.62" font-family="Times,serif" font-size="14.00">1010</text>
<text text-anchor="middle" x="111.11" y="-16.82" font-family="Times,serif" font-size="14.00">1</text>
</g>
<!-- 1004 -->
<g id="node3" class="node">
<title>1004</title>
<ellipse fill="none" stroke="black" cx="191.11" cy="-29.42" rx="31.23" ry="29.33"/>
<text text-anchor="middle" x="191.11" y="-33.62" font-family="Times,serif" font-size="14.00">1004</text>
<text text-anchor="middle" x="191.11" y="-16.82" font-family="Times,serif" font-size="14.00">1</text>
</g>
<!-- 1002 -->
<g id="node4" class="node">
<title>1002</title>
<ellipse fill="none" stroke="black" cx="271.11" cy="-29.42" rx="31.23" ry="29.33"/>
<text text-anchor="middle" x="271.11" y="-33.62" font-family="Times,serif" font-size="14.00">1002</text>
<text text-anchor="middle" x="271.11" y="-16.82" font-family="Times,serif" font-size="14.00">1</text>
</g>
<!-- 1001 -->
<g id="node5" class="node">
<title>1001</title>
<ellipse fill="none" stroke="black" cx="351.11" cy="-29.42" rx="31.23" ry="29.33"/>
<text text-anchor="middle" x="351.11" y="-33.62" font-family="Times,serif" font-size="14.00">1001</text>
<text text-anchor="middle" x="351.11" y="-16.82" font-family="Times,serif" font-size="14.00">1</text>
</g>
<!-- 1008 -->
<g id="node6" class="node">
<title>1008</title>
<ellipse fill="none" stroke="black" cx="431.11" cy="-29.42" rx="31.23" ry="29.33"/>
<text text-anchor="middle" x="431.11" y="-33.62" font-family="Times,serif" font-size="14.00">1008</text>
<text text-anchor="middle" x="431.11" y="-16.82" font-family="Times,serif" font-size="14.00">1</text>
</g>
<!-- 1011 -->
<g id="node7" class="node">
<title>1011</title>
<ellipse fill="none" stroke="black" cx="511.11" cy="-29.42" rx="31.23" ry="29.33"/>
<text text-anchor="middle" x="511.11" y="-33.62" font-family="Times,serif" font-size="14.00">1011</text>
<text text-anchor="middle" x="511.11" y="-16.82" font-family="Times,serif" font-size="14.00">1</text>
</g>
<!-- 1003 -->
<g id="node8" class="node">
<title>1003</title>
<ellipse fill="none" stroke="black" cx="591.11" cy="-29.42" rx="31.23" ry="29.33"/>
<text text-anchor="middle" x="591.11" y="-33.62" font-family="Times,serif" font-size="14.00">1003</text>
<text text-anchor="middle" x="591.11" y="-16.82" font-family="Times,serif" font-size="14.00">1</text>
</g>
<!-- 1009 -->
<g id="node9" class="node">
<title>1009</title>
<ellipse fill="none" stroke="black" cx="671.11" cy="-29.42" rx="31.23" ry="29.33"/>
<text text-anchor="middle" x="671.11" y="-33.62" font-family="Times,serif" font-size="14.00">1009</text>
<text text-anchor="middle" x="671.11" y="-16.82" font-family="Times,serif" font-size="14.00">1</text>
</g>
<!-- 1012 -->
<g id="node10" class="node">
<title>1012</title>
<ellipse fill="none" stroke="black" cx="751.11" cy="-29.42" rx="31.23" ry="29.33"/>
<text text-anchor="middle" x="751.11" y="-33.62" font-family="Times,serif" font-size="14.00">1012</text>
<text text-anchor="middle" x="751.11" y="-16.82" font-family="Times,serif" font-size="14.00">1</text>
</g>
<!-- 20 -->
<g id="node11" class="node">
<title>20</title>
<ellipse fill="none" stroke="black" cx="31.11" cy="-129.63" rx="27" ry="18"/>
<text text-anchor="middle" x="31.11" y="-125.43" font-family="Times,serif" font-size="14.00">20</text>
</g>
<!-- 20&#45;&gt;1006 -->
<g id="edge1" class="edge">
<title>20&#45;&gt;1006</title>
<path fill="none" stroke="black" d="M31.11,-111.52C31.11,-99.85 31.11,-83.9 31.11,-69.23"/>
<polygon fill="black" stroke="black" points="34.61,-68.86 31.11,-58.86 27.61,-68.86 34.61,-68.86"/>
<text text-anchor="middle" x="33.44" y="-81.03" font-family="Times,serif" font-size="14.00">(</text>
</g>
<!-- 11 -->
<g id="node12" class="node">
<title>11</title>
<ellipse fill="none" stroke="black" cx="111.11" cy="-129.63" rx="27" ry="18"/>
<text text-anchor="middle" x="111.11" y="-125.43" font-family="Times,serif" font-size="14.00">11</text>
</g>
<!-- 11&#45;&gt;1010 -->
<g id="edge2" class="edge">
<title>11&#45;&gt;1010</title>
<path fill="none" stroke="black" d="M111.11,-111.52C111.11,-99.85 111.11,-83.9 111.11,-69.23"/>
<polygon fill="black" stroke="black" points="114.61,-68.86 111.11,-58.86 107.61,-68.86 114.61,-68.86"/>
<text text-anchor="middle" x="113.44" y="-81.03" font-family="Times,serif" font-size="14.00">(</text>
</g>
<!-- 17 -->
<g id="node13" class="node">
<title>17</title>
<ellipse fill="none" stroke="black" cx="191.11" cy="-129.63" rx="27" ry="18"/>
<text text-anchor="middle" x="191.11" y="-125.43" font-family="Times,serif" font-size="14.00">17</text>
</g>
<!-- 17&#45;&gt;1004 -->
<g id="edge3" class="edge">
<title>17&#45;&gt;1004</title>
<path fill="none" stroke="black" d="M191.11,-111.52C191.11,-99.85 191.11,-83.9 191.11,-69.23"/>
<polygon fill="black" stroke="black" points="194.61,-68.86 191.11,-58.86 187.61,-68.86 194.61,-68.86"/>
<text text-anchor="middle" x="193.44" y="-81.03" font-family="Times,serif" font-size="14.00">(</text>
</g>
<!-- 16 -->
<g id="node14" class="node">
<title>16</title>
<ellipse fill="none" stroke="black" cx="271.11" cy="-129.63" rx="27" ry="18"/>
<text text-anchor="middle" x="271.11" y="-125.43" font-family="Times,serif" font-size="14.00">16</text>
</g>
<!-- 16&#45;&gt;1002 -->
<g id="edge4" class="edge">
<title>16&#45;&gt;1002</title>
<path fill="none" stroke="black" d="M271.11,-111.52C271.11,-99.85 271.11,-83.9 271.11,-69.23"/>
<polygon fill="black" stroke="black" points="274.61,-68.86 271.11,-58.86 267.61,-68.86 274.61,-68.86"/>
<text text-anchor="middle" x="273.44" y="-81.03" font-family="Times,serif" font-size="14.00">(</text>
</g>
<!-- 14 -->
<g id="node15" class="node">
<title>14</title>
<ellipse fill="none" stroke="black" cx="351.11" cy="-129.63" rx="27" ry="18"/>
<text text-anchor="middle" x="351.11" y="-125.43" font-family="Times,serif" font-size="14.00">14</text>
</g>
<!-- 14&#45;&gt;1001 -->
<g id="edge5" class="edge">
<title>14&#45;&gt;1001</title>
<path fill="none" stroke="black" d="M351.11,-111.52C351.11,-99.85 351.11,-83.9 351.11,-69.23"/>
<polygon fill="black" stroke="black" points="354.61,-68.86 351.11,-58.86 347.61,-68.86 354.61,-68.86"/>
<text text-anchor="middle" x="353.44" y="-81.03" font-family="Times,serif" font-size="14.00">(</text>
</g>
<!-- 18 -->
<g id="node16" class="node">
<title>18</title>
<ellipse fill="none" stroke="black" cx="431.11" cy="-129.63" rx="27" ry="18"/>
<text text-anchor="middle" x="431.11" y="-125.43" font-family="Times,serif" font-size="14.00">18</text>
</g>
<!-- 18&#45;&gt;1008 -->
<g id="edge6" class="edge">
<title>18&#45;&gt;1008</title>
<path fill="none" stroke="black" d="M431.11,-111.52C431.11,-99.85 431.11,-83.9 431.11,-69.23"/>
<polygon fill="black" stroke="black" points="434.61,-68.86 431.11,-58.86 427.61,-68.86 434.61,-68.86"/>
<text text-anchor="middle" x="433.44" y="-81.03" font-family="Times,serif" font-size="14.00">(</text>
</g>
<!-- 12 -->
<g id="node17" class="node">
<title>12</title>
<ellipse fill="none" stroke="black" cx="511.11" cy="-129.63" rx="27" ry="18"/>
<text text-anchor="middle" x="511.11" y="-125.43" font-family="Times,serif" font-size="14.00">12</text>
</g>
<!-- 12&#45;&gt;1011 -->
<g id="edge7" class="edge">
<title>12&#45;&gt;1011</title>
<path fill="none" stroke="black" d="M511.11,-111.52C511.11,-99.85 511.11,-83.9 511.11,-69.23"/>
<polygon fill="black" stroke="black" points="514.61,-68.86 511.11,-58.86 507.61,-68.86 514.61,-68.86"/>
<text text-anchor="middle" x="513.44" y="-81.03" font-family="Times,serif" font-size="14.00">(</text>
</g>
<!-- 15 -->
<g id="node18" class="node">
<title>15</title>
<ellipse fill="none" stroke="black" cx="591.11" cy="-129.63" rx="27" ry="18"/>
<text text-anchor="middle" x="591.11" y="-125.43" font-family="Times,serif" font-size="14.00">15</text>
</g>
<!-- 15&#45;&gt;1003 -->
<g id="edge8" class="edge">
<title>15&#45;&gt;1003</title>
<path fill="none" stroke="black" d="M591.11,-111.52C591.11,-99.85 591.11,-83.9 591.11,-69.23"/>
<polygon fill="black" stroke="black" points="594.61,-68.86 591.11,-58.86 587.61,-68.86 594.61,-68.86"/>
<text text-anchor="middle" x="593.44" y="-81.03" font-family="Times,serif" font-size="14.00">(</text>
</g>
<!-- 19 -->
<g id="node19" class="node">
<title>19</title>
<ellipse fill="none" stroke="black" cx="671.11" cy="-129.63" rx="27" ry="18"/>
<text text-anchor="middle" x="671.11" y="-125.43" font-family="Times,serif" font-size="14.00">19</text>
</g>
<!-- 19&#45;&gt;1009 -->
<g id="edge9" class="edge">
<title>19&#45;&gt;1009</title>
<path fill="none" stroke="black" d="M671.11,-111.52C671.11,-99.85 671.11,-83.9 671.11,-69.23"/>
<polygon fill="black" stroke="black" points="674.61,-68.86 671.11,-58.86 667.61,-68.86 674.61,-68.86"/>
<text text-anchor="middle" x="673.44" y="-81.03" font-family="Times,serif" font-size="14.00">(</text>
</g>
<!-- 13 -->
<g id="node20" class="node">
<title>13</title>
<ellipse fill="none" stroke="black" cx="751.11" cy="-129.63" rx="27" ry="18"/>
<text text-anchor="middle" x="751.11" y="-125.43" font-family="Times,serif" font-size="14.00">13</text>
</g>
<!-- 13&#45;&gt;1012 -->
<g id="edge10" class="edge">
<title>13&#45;&gt;1012</title>
<path fill="none" stroke="black" d="M751.11,-111.52C751.11,-99.85 751.11,-83.9 751.11,-69.23"/>
<polygon fill="black" stroke="black" points="754.61,-68.86 751.11,-58.86 747.61,-68.86 754.61,-68.86"/>
<text text-anchor="middle" x="753.44" y="-81.03" font-family="Times,serif" font-size="14.00">(</text>
</g>
</g>
</svg>
