<svg width="793px" height="577px"
 viewBox="0.00 0.00 793.29 576.80" xmlns="http://www.w3.org/2000/svg" xmlns:xlink="http://www.w3.org/1999/xlink">
<g id="graph0" class="graph" transform="scale(1.0 1.0) rotate(0.0) translate(4.0 572.8)">
<title>Product Structure BOM</title>
<polygon fill="white" stroke="transparent" points="-4,4 -4,-572.8 789.29,-572.8 789.29,4 -4,4"/>
<!-- finished bench -->
<g id="node1" class="node">
<title>finished bench</title>
<ellipse fill="none" stroke="black" cx="428.66" cy="-550.8" rx="67.74" ry="18"/>
<text text-anchor="middle" x="428.66" y="-546.6" font-family="Times,serif" font-size="14.00">finished bench</text>
</g>
<!-- raw bench -->
<g id="node2" class="node">
<title>raw bench</title>
<ellipse fill="none" stroke="black" cx="370.66" cy="-462" rx="50.96" ry="18"/>
<text text-anchor="middle" x="370.66" y="-457.8" font-family="Times,serif" font-size="14.00">raw bench</text>
</g>
<!-- finished bench&#45;&gt;raw bench -->
<g id="edge1" class="edge">
<title>finished bench&#45;&gt;raw bench</title>
<path fill="none" stroke="black" d="M417.2,-532.65C408.73,-519.97 397.05,-502.49 387.51,-488.22"/>
<polygon fill="black" stroke="black" points="390.36,-486.19 381.9,-479.82 384.54,-490.08 390.36,-486.19"/>
<text text-anchor="middle" x="409.16" y="-502.2" font-family="Times,serif" font-size="14.00">1</text>
</g>
<!-- varnish -->
<g id="node16" class="node">
<title>varnish</title>
<polygon fill="none" stroke="black" points="531.3,-462 508.48,-480 462.84,-480 440.02,-462 462.84,-444 508.48,-444 531.3,-462"/>
<text text-anchor="middle" x="485.66" y="-457.8" font-family="Times,serif" font-size="14.00">varnish</text>
</g>
<!-- finished bench&#45;&gt;varnish -->
<g id="edge2" class="edge">
<title>finished bench&#45;&gt;varnish</title>
<path fill="none" stroke="black" d="M439.92,-532.65C448.2,-520.05 459.58,-502.72 468.92,-488.5"/>
<polygon fill="black" stroke="black" points="471.86,-490.39 474.42,-480.11 466.01,-486.55 471.86,-490.39"/>
<text text-anchor="middle" x="478.41" y="-502.2" font-family="Times,serif" font-size="14.00">0.125</text>
</g>
<!-- bench seat w/nut -->
<g id="node3" class="node">
<title>bench seat w/nut</title>
<ellipse fill="none" stroke="black" cx="286.66" cy="-373.2" rx="75.86" ry="18"/>
<text text-anchor="middle" x="286.66" y="-369" font-family="Times,serif" font-size="14.00">bench seat w/nut</text>
</g>
<!-- raw bench&#45;&gt;bench seat w/nut -->
<g id="edge3" class="edge">
<title>raw bench&#45;&gt;bench seat w/nut</title>
<path fill="none" stroke="black" d="M354.86,-444.67C342.23,-431.63 324.35,-413.14 310.06,-398.38"/>
<polygon fill="black" stroke="black" points="312.43,-395.8 302.96,-391.05 307.4,-400.67 312.43,-395.8"/>
<text text-anchor="middle" x="340.16" y="-413.4" font-family="Times,serif" font-size="14.00">1</text>
</g>
<!-- bench leg w/bolt -->
<g id="node10" class="node">
<title>bench leg w/bolt</title>
<ellipse fill="none" stroke="black" cx="502.66" cy="-373.2" rx="75.3" ry="18"/>
<text text-anchor="middle" x="502.66" y="-369" font-family="Times,serif" font-size="14.00">bench leg w/bolt</text>
</g>
<!-- raw bench&#45;&gt;bench leg w/bolt -->
<g id="edge4" class="edge">
<title>raw bench&#45;&gt;bench leg w/bolt</title>
<path fill="none" stroke="black" d="M393.65,-445.88C414.61,-432.1 445.82,-411.58 469.48,-396.02"/>
<polygon fill="black" stroke="black" points="471.71,-398.74 478.14,-390.32 467.86,-392.89 471.71,-398.74"/>
<text text-anchor="middle" x="452.16" y="-413.4" font-family="Times,serif" font-size="14.00">1</text>
</g>
<!-- bench seat w/holes -->
<g id="node4" class="node">
<title>bench seat w/holes</title>
<ellipse fill="none" stroke="black" cx="86.66" cy="-284.4" rx="83.95" ry="18"/>
<text text-anchor="middle" x="86.66" y="-280.2" font-family="Times,serif" font-size="14.00">bench seat w/holes</text>
</g>
<!-- bench seat w/nut&#45;&gt;bench seat w/holes -->
<g id="edge5" class="edge">
<title>bench seat w/nut&#45;&gt;bench seat w/holes</title>
<path fill="none" stroke="black" d="M251.82,-357.08C218.43,-342.59 167.88,-320.65 131.5,-304.86"/>
<polygon fill="black" stroke="black" points="132.67,-301.55 122.11,-300.78 129.89,-307.98 132.67,-301.55"/>
<text text-anchor="middle" x="208.16" y="-324.6" font-family="Times,serif" font-size="14.00">1</text>
</g>
<!-- nut M16 -->
<g id="node8" class="node">
<title>nut M16</title>
<polygon fill="none" stroke="black" points="290.35,-284.4 265,-302.4 214.32,-302.4 188.97,-284.4 214.32,-266.4 265,-266.4 290.35,-284.4"/>
<text text-anchor="middle" x="239.66" y="-280.2" font-family="Times,serif" font-size="14.00">nut M16</text>
</g>
<!-- bench seat w/nut&#45;&gt;nut M16 -->
<g id="edge6" class="edge">
<title>bench seat w/nut&#45;&gt;nut M16</title>
<path fill="none" stroke="black" d="M277.37,-355.05C270.68,-342.69 261.52,-325.77 253.9,-311.7"/>
<polygon fill="black" stroke="black" points="256.77,-309.64 248.93,-302.51 250.61,-312.97 256.77,-309.64"/>
<text text-anchor="middle" x="271.16" y="-324.6" font-family="Times,serif" font-size="14.00">4</text>
</g>
<!-- bolt M6 -->
<g id="node9" class="node">
<title>bolt M6</title>
<polygon fill="none" stroke="black" points="404.9,-284.4 380.78,-302.4 332.54,-302.4 308.42,-284.4 332.54,-266.4 380.78,-266.4 404.9,-284.4"/>
<text text-anchor="middle" x="356.66" y="-280.2" font-family="Times,serif" font-size="14.00">bolt M6</text>
</g>
<!-- bench seat w/nut&#45;&gt;bolt M6 -->
<g id="edge7" class="edge">
<title>bench seat w/nut&#45;&gt;bolt M6</title>
<path fill="none" stroke="black" d="M300.16,-355.46C310.39,-342.78 324.62,-325.14 336.24,-310.73"/>
<polygon fill="black" stroke="black" points="339.17,-312.66 342.73,-302.68 333.72,-308.27 339.17,-312.66"/>
<text text-anchor="middle" x="335.66" y="-324.6" font-family="Times,serif" font-size="14.00">12</text>
</g>
<!-- polished bench seat -->
<g id="node5" class="node">
<title>polished bench seat</title>
<ellipse fill="none" stroke="black" cx="86.66" cy="-195.6" rx="86.82" ry="18"/>
<text text-anchor="middle" x="86.66" y="-191.4" font-family="Times,serif" font-size="14.00">polished bench seat</text>
</g>
<!-- bench seat w/holes&#45;&gt;polished bench seat -->
<g id="edge8" class="edge">
<title>bench seat w/holes&#45;&gt;polished bench seat</title>
<path fill="none" stroke="black" d="M86.66,-266.25C86.66,-254.12 86.66,-237.62 86.66,-223.72"/>
<polygon fill="black" stroke="black" points="90.16,-223.71 86.66,-213.71 83.16,-223.71 90.16,-223.71"/>
<text text-anchor="middle" x="90.16" y="-235.8" font-family="Times,serif" font-size="14.00">1</text>
</g>
<!-- raw bench seat -->
<g id="node6" class="node">
<title>raw bench seat</title>
<ellipse fill="none" stroke="black" cx="86.66" cy="-106.8" rx="68.32" ry="18"/>
<text text-anchor="middle" x="86.66" y="-102.6" font-family="Times,serif" font-size="14.00">raw bench seat</text>
</g>
<!-- polished bench seat&#45;&gt;raw bench seat -->
<g id="edge9" class="edge">
<title>polished bench seat&#45;&gt;raw bench seat</title>
<path fill="none" stroke="black" d="M86.66,-177.45C86.66,-165.32 86.66,-148.82 86.66,-134.92"/>
<polygon fill="black" stroke="black" points="90.16,-134.91 86.66,-124.91 83.16,-134.91 90.16,-134.91"/>
<text text-anchor="middle" x="90.16" y="-147" font-family="Times,serif" font-size="14.00">1</text>
</g>
<!-- wood 3cm -->
<g id="node7" class="node">
<title>wood 3cm</title>
<polygon fill="none" stroke="black" points="146.17,-18 116.42,-36 56.9,-36 27.15,-18 56.9,0 116.42,0 146.17,-18"/>
<text text-anchor="middle" x="86.66" y="-13.8" font-family="Times,serif" font-size="14.00">wood 3cm</text>
</g>
<!-- raw bench seat&#45;&gt;wood 3cm -->
<g id="edge10" class="edge">
<title>raw bench seat&#45;&gt;wood 3cm</title>
<path fill="none" stroke="black" d="M86.66,-88.65C86.66,-76.52 86.66,-60.02 86.66,-46.12"/>
<polygon fill="black" stroke="black" points="90.16,-46.11 86.66,-36.11 83.16,-46.11 90.16,-46.11"/>
<text text-anchor="middle" x="105.91" y="-58.2" font-family="Times,serif" font-size="14.00">0.0576</text>
</g>
<!-- bench leg &#160;w/hole -->
<g id="node11" class="node">
<title>bench leg &#160;w/hole</title>
<ellipse fill="none" stroke="black" cx="502.66" cy="-284.4" rx="79.34" ry="18"/>
<text text-anchor="middle" x="502.66" y="-280.2" font-family="Times,serif" font-size="14.00">bench leg &#160;w/hole</text>
</g>
<!-- bench leg w/bolt&#45;&gt;bench leg &#160;w/hole -->
<g id="edge11" class="edge">
<title>bench leg w/bolt&#45;&gt;bench leg &#160;w/hole</title>
<path fill="none" stroke="black" d="M502.66,-355.05C502.66,-342.92 502.66,-326.42 502.66,-312.52"/>
<polygon fill="black" stroke="black" points="506.16,-312.51 502.66,-302.51 499.16,-312.51 506.16,-312.51"/>
<text text-anchor="middle" x="506.16" y="-324.6" font-family="Times,serif" font-size="14.00">1</text>
</g>
<!-- threaded rod M16 -->
<g id="node15" class="node">
<title>threaded rod M16</title>
<polygon fill="none" stroke="black" points="785.42,-284.4 739.04,-302.4 646.28,-302.4 599.9,-284.4 646.28,-266.4 739.04,-266.4 785.42,-284.4"/>
<text text-anchor="middle" x="692.66" y="-280.2" font-family="Times,serif" font-size="14.00">threaded rod M16</text>
</g>
<!-- bench leg w/bolt&#45;&gt;threaded rod M16 -->
<g id="edge12" class="edge">
<title>bench leg w/bolt&#45;&gt;threaded rod M16</title>
<path fill="none" stroke="black" d="M536.19,-356.88C566.67,-342.96 611.94,-322.27 645.96,-306.73"/>
<polygon fill="black" stroke="black" points="647.59,-309.84 655.23,-302.5 644.68,-303.47 647.59,-309.84"/>
<text text-anchor="middle" x="618.16" y="-324.6" font-family="Times,serif" font-size="14.00">1</text>
</g>
<!-- polished bench leg -->
<g id="node12" class="node">
<title>polished bench leg</title>
<ellipse fill="none" stroke="black" cx="502.66" cy="-195.6" rx="83.39" ry="18"/>
<text text-anchor="middle" x="502.66" y="-191.4" font-family="Times,serif" font-size="14.00">polished bench leg</text>
</g>
<!-- bench leg &#160;w/hole&#45;&gt;polished bench leg -->
<g id="edge13" class="edge">
<title>bench leg &#160;w/hole&#45;&gt;polished bench leg</title>
<path fill="none" stroke="black" d="M502.66,-266.25C502.66,-254.12 502.66,-237.62 502.66,-223.72"/>
<polygon fill="black" stroke="black" points="506.16,-223.71 502.66,-213.71 499.16,-223.71 506.16,-223.71"/>
<text text-anchor="middle" x="506.16" y="-235.8" font-family="Times,serif" font-size="14.00">1</text>
</g>
<!-- raw bench leg -->
<g id="node13" class="node">
<title>raw bench leg</title>
<ellipse fill="none" stroke="black" cx="502.66" cy="-106.8" rx="65.39" ry="18"/>
<text text-anchor="middle" x="502.66" y="-102.6" font-family="Times,serif" font-size="14.00">raw bench leg</text>
</g>
<!-- polished bench leg&#45;&gt;raw bench leg -->
<g id="edge14" class="edge">
<title>polished bench leg&#45;&gt;raw bench leg</title>
<path fill="none" stroke="black" d="M502.66,-177.45C502.66,-165.32 502.66,-148.82 502.66,-134.92"/>
<polygon fill="black" stroke="black" points="506.16,-134.91 502.66,-124.91 499.16,-134.91 506.16,-134.91"/>
<text text-anchor="middle" x="506.16" y="-147" font-family="Times,serif" font-size="14.00">1</text>
</g>
<!-- wood pole 4cm -->
<g id="node14" class="node">
<title>wood pole 4cm</title>
<polygon fill="none" stroke="black" points="584.15,-18 543.4,-36 461.92,-36 421.17,-18 461.92,0 543.4,0 584.15,-18"/>
<text text-anchor="middle" x="502.66" y="-13.8" font-family="Times,serif" font-size="14.00">wood pole 4cm</text>
</g>
<!-- raw bench leg&#45;&gt;wood pole 4cm -->
<g id="edge15" class="edge">
<title>raw bench leg&#45;&gt;wood pole 4cm</title>
<path fill="none" stroke="black" d="M502.66,-88.65C502.66,-76.52 502.66,-60.02 502.66,-46.12"/>
<polygon fill="black" stroke="black" points="506.16,-46.11 502.66,-36.11 499.16,-46.11 506.16,-46.11"/>
<text text-anchor="middle" x="514.91" y="-58.2" font-family="Times,serif" font-size="14.00">0.28</text>
</g>
</g>
</svg>
