<svg width="1166px" height="375px"
 viewBox="0.00 0.00 1165.69 375.45" xmlns="http://www.w3.org/2000/svg" xmlns:xlink="http://www.w3.org/1999/xlink">
<g id="graph0" class="graph" transform="scale(1.0 1.0) rotate(0.0) translate(4.0 371.45)">
<title>Product Structure</title>
<polygon fill="white" stroke="none" points="-4,4 -4,-371.45 1161.69,-371.45 1161.69,4 -4,4"/>
<!-- 1 -->
<g id="node1" class="node">
<title>1</title>
<ellipse fill="none" stroke="black" cx="358.35" cy="-249.96" rx="41.01" ry="28.99"/>
<text text-anchor="middle" x="358.35" y="-253.16" font-family="Times,serif" font-size="14.00">1</text>
<text text-anchor="middle" x="358.35" y="-236.66" font-family="Times,serif" font-size="14.00">Product</text>
</g>
<!-- C01 -->
<g id="node2" class="node">
<title>C01</title>
<ellipse fill="none" stroke="black" cx="72.35" cy="-139.47" rx="56.39" ry="28.99"/>
<text text-anchor="middle" x="72.35" y="-142.67" font-family="Times,serif" font-size="14.00">C01</text>
<text text-anchor="middle" x="72.35" y="-126.17" font-family="Times,serif" font-size="14.00">Component</text>
</g>
<!-- 1&#45;&gt;C01 -->
<g id="edge6" class="edge">
<title>1&#45;&gt;C01</title>
<path fill="none" stroke="black" d="M320.62,-237.68C292.03,-228.89 251.91,-216.02 217.35,-202.97 185.97,-191.11 151.46,-176.31 123.98,-164.09"/>
<polygon fill="black" stroke="black" points="125.75,-161.05 115.19,-160.16 122.89,-167.44 125.75,-161.05"/>
<text text-anchor="middle" x="247.35" y="-189.67" font-family="Times,serif" font-size="14.00">Chair Legs</text>
</g>
<!-- C02 -->
<g id="node3" class="node">
<title>C02</title>
<ellipse fill="none" stroke="black" cx="219.35" cy="-139.47" rx="56.39" ry="28.99"/>
<text text-anchor="middle" x="219.35" y="-142.67" font-family="Times,serif" font-size="14.00">C02</text>
<text text-anchor="middle" x="219.35" y="-126.17" font-family="Times,serif" font-size="14.00">Component</text>
</g>
<!-- 1&#45;&gt;C02 -->
<g id="edge5" class="edge">
<title>1&#45;&gt;C02</title>
<path fill="none" stroke="black" d="M331.22,-227.78C310.57,-211.67 281.86,-189.26 258.69,-171.18"/>
<polygon fill="black" stroke="black" points="261.02,-168.56 250.98,-165.17 256.71,-174.08 261.02,-168.56"/>
<text text-anchor="middle" x="323.97" y="-189.67" font-family="Times,serif" font-size="14.00">Seat Base</text>
</g>
<!-- C03 -->
<g id="node4" class="node">
<title>C03</title>
<ellipse fill="none" stroke="black" cx="358.35" cy="-139.47" rx="56.39" ry="28.99"/>
<text text-anchor="middle" x="358.35" y="-142.67" font-family="Times,serif" font-size="14.00">C03</text>
<text text-anchor="middle" x="358.35" y="-126.17" font-family="Times,serif" font-size="14.00">Component</text>
</g>
<!-- 1&#45;&gt;C03 -->
<g id="edge4" class="edge">
<title>1&#45;&gt;C03</title>
<path fill="none" stroke="black" d="M358.35,-220.74C358.35,-208.4 358.35,-193.72 358.35,-180.3"/>
<polygon fill="black" stroke="black" points="361.85,-180.44 358.35,-170.44 354.85,-180.44 361.85,-180.44"/>
<text text-anchor="middle" x="381.97" y="-189.67" font-family="Times,serif" font-size="14.00">Backrest</text>
</g>
<!-- C04 -->
<g id="node5" class="node">
<title>C04</title>
<ellipse fill="none" stroke="black" cx="497.35" cy="-139.47" rx="56.39" ry="28.99"/>
<text text-anchor="middle" x="497.35" y="-142.67" font-family="Times,serif" font-size="14.00">C04</text>
<text text-anchor="middle" x="497.35" y="-126.17" font-family="Times,serif" font-size="14.00">Component</text>
</g>
<!-- 1&#45;&gt;C04 -->
<g id="edge3" class="edge">
<title>1&#45;&gt;C04</title>
<path fill="none" stroke="black" d="M385.48,-227.78C406.12,-211.67 434.83,-189.26 458,-171.18"/>
<polygon fill="black" stroke="black" points="459.98,-174.08 465.71,-165.17 455.67,-168.56 459.98,-174.08"/>
<text text-anchor="middle" x="471.97" y="-189.67" font-family="Times,serif" font-size="14.00">Support Bars</text>
</g>
<!-- 201 -->
<g id="node6" class="node">
<title>201</title>
<ellipse fill="none" stroke="black" cx="64.35" cy="-28.99" rx="64.35" ry="28.99"/>
<text text-anchor="middle" x="64.35" y="-32.19" font-family="Times,serif" font-size="14.00">201</text>
<text text-anchor="middle" x="64.35" y="-15.69" font-family="Times,serif" font-size="14.00">Raw Material</text>
</g>
<!-- C01&#45;&gt;201 -->
<g id="edge7" class="edge">
<title>C01&#45;&gt;201</title>
<path fill="none" stroke="black" d="M70.27,-110.25C69.36,-97.92 68.27,-83.24 67.28,-69.82"/>
<polygon fill="black" stroke="black" points="70.78,-69.67 66.56,-59.96 63.8,-70.19 70.78,-69.67"/>
<text text-anchor="middle" x="98.6" y="-79.18" font-family="Times,serif" font-size="14.00">Oak Wood</text>
</g>
<!-- 202 -->
<g id="node7" class="node">
<title>202</title>
<ellipse fill="none" stroke="black" cx="211.35" cy="-28.99" rx="64.35" ry="28.99"/>
<text text-anchor="middle" x="211.35" y="-32.19" font-family="Times,serif" font-size="14.00">202</text>
<text text-anchor="middle" x="211.35" y="-15.69" font-family="Times,serif" font-size="14.00">Raw Material</text>
</g>
<!-- C02&#45;&gt;202 -->
<g id="edge8" class="edge">
<title>C02&#45;&gt;202</title>
<path fill="none" stroke="black" d="M217.27,-110.25C216.36,-97.92 215.27,-83.24 214.28,-69.82"/>
<polygon fill="black" stroke="black" points="217.78,-69.67 213.56,-59.96 210.8,-70.19 217.78,-69.67"/>
<text text-anchor="middle" x="245.6" y="-79.18" font-family="Times,serif" font-size="14.00">Oak Wood</text>
</g>
<!-- 203 -->
<g id="node8" class="node">
<title>203</title>
<ellipse fill="none" stroke="black" cx="358.35" cy="-28.99" rx="64.35" ry="28.99"/>
<text text-anchor="middle" x="358.35" y="-32.19" font-family="Times,serif" font-size="14.00">203</text>
<text text-anchor="middle" x="358.35" y="-15.69" font-family="Times,serif" font-size="14.00">Raw Material</text>
</g>
<!-- C03&#45;&gt;203 -->
<g id="edge9" class="edge">
<title>C03&#45;&gt;203</title>
<path fill="none" stroke="black" d="M358.35,-110.25C358.35,-97.92 358.35,-83.24 358.35,-69.82"/>
<polygon fill="black" stroke="black" points="361.85,-69.96 358.35,-59.96 354.85,-69.96 361.85,-69.96"/>
<text text-anchor="middle" x="387.6" y="-79.18" font-family="Times,serif" font-size="14.00">Oak Wood</text>
</g>
<!-- 204 -->
<g id="node9" class="node">
<title>204</title>
<ellipse fill="none" stroke="black" cx="505.35" cy="-28.99" rx="64.35" ry="28.99"/>
<text text-anchor="middle" x="505.35" y="-32.19" font-family="Times,serif" font-size="14.00">204</text>
<text text-anchor="middle" x="505.35" y="-15.69" font-family="Times,serif" font-size="14.00">Raw Material</text>
</g>
<!-- C04&#45;&gt;204 -->
<g id="edge10" class="edge">
<title>C04&#45;&gt;204</title>
<path fill="none" stroke="black" d="M499.43,-110.25C500.34,-97.92 501.42,-83.24 502.41,-69.82"/>
<polygon fill="black" stroke="black" points="505.89,-70.19 503.14,-59.96 498.91,-69.67 505.89,-70.19"/>
<text text-anchor="middle" x="531.6" y="-79.18" font-family="Times,serif" font-size="14.00">Oak Wood</text>
</g>
<!-- 2 -->
<g id="node10" class="node">
<title>2</title>
<ellipse fill="none" stroke="black" cx="799.35" cy="-249.96" rx="41.01" ry="28.99"/>
<text text-anchor="middle" x="799.35" y="-253.16" font-family="Times,serif" font-size="14.00">2</text>
<text text-anchor="middle" x="799.35" y="-236.66" font-family="Times,serif" font-size="14.00">Product</text>
</g>
<!-- C05 -->
<g id="node11" class="node">
<title>C05</title>
<ellipse fill="none" stroke="black" cx="660.35" cy="-139.47" rx="56.39" ry="28.99"/>
<text text-anchor="middle" x="660.35" y="-142.67" font-family="Times,serif" font-size="14.00">C05</text>
<text text-anchor="middle" x="660.35" y="-126.17" font-family="Times,serif" font-size="14.00">Component</text>
</g>
<!-- 2&#45;&gt;C05 -->
<g id="edge14" class="edge">
<title>2&#45;&gt;C05</title>
<path fill="none" stroke="black" d="M769.86,-229.44C758.21,-221.49 744.84,-212.04 733.1,-202.97 720.82,-193.47 707.83,-182.6 696.28,-172.62"/>
<polygon fill="black" stroke="black" points="698.75,-170.12 688.91,-166.19 694.15,-175.4 698.75,-170.12"/>
<text text-anchor="middle" x="764.47" y="-189.67" font-family="Times,serif" font-size="14.00">Metal Legs</text>
</g>
<!-- C06 -->
<g id="node12" class="node">
<title>C06</title>
<ellipse fill="none" stroke="black" cx="799.35" cy="-139.47" rx="56.39" ry="28.99"/>
<text text-anchor="middle" x="799.35" y="-142.67" font-family="Times,serif" font-size="14.00">C06</text>
<text text-anchor="middle" x="799.35" y="-126.17" font-family="Times,serif" font-size="14.00">Component</text>
</g>
<!-- 2&#45;&gt;C06 -->
<g id="edge13" class="edge">
<title>2&#45;&gt;C06</title>
<path fill="none" stroke="black" d="M799.35,-220.74C799.35,-208.4 799.35,-193.72 799.35,-180.3"/>
<polygon fill="black" stroke="black" points="802.85,-180.44 799.35,-170.44 795.85,-180.44 802.85,-180.44"/>
<text text-anchor="middle" x="843.97" y="-189.67" font-family="Times,serif" font-size="14.00">Metal Seat Base</text>
</g>
<!-- C07 -->
<g id="node13" class="node">
<title>C07</title>
<ellipse fill="none" stroke="black" cx="938.35" cy="-139.47" rx="56.39" ry="28.99"/>
<text text-anchor="middle" x="938.35" y="-142.67" font-family="Times,serif" font-size="14.00">C07</text>
<text text-anchor="middle" x="938.35" y="-126.17" font-family="Times,serif" font-size="14.00">Component</text>
</g>
<!-- 2&#45;&gt;C07 -->
<g id="edge12" class="edge">
<title>2&#45;&gt;C07</title>
<path fill="none" stroke="black" d="M835.72,-235.76C853.96,-228.01 875.65,-216.97 892.35,-202.97 901.17,-195.57 909.23,-186.14 916.06,-176.86"/>
<polygon fill="black" stroke="black" points="918.72,-179.16 921.58,-168.96 912.99,-175.15 918.72,-179.16"/>
<text text-anchor="middle" x="948.97" y="-189.67" font-family="Times,serif" font-size="14.00">Metal Backrest</text>
</g>
<!-- C08 -->
<g id="node14" class="node">
<title>C08</title>
<ellipse fill="none" stroke="black" cx="1081.35" cy="-139.47" rx="56.39" ry="28.99"/>
<text text-anchor="middle" x="1081.35" y="-142.67" font-family="Times,serif" font-size="14.00">C08</text>
<text text-anchor="middle" x="1081.35" y="-126.17" font-family="Times,serif" font-size="14.00">Component</text>
</g>
<!-- 2&#45;&gt;C08 -->
<g id="edge11" class="edge">
<title>2&#45;&gt;C08</title>
<path fill="none" stroke="black" d="M839.68,-244.13C880.19,-238.23 943.7,-226.03 994.35,-202.97 1012.01,-194.92 1029.72,-183.06 1044.52,-171.82"/>
<polygon fill="black" stroke="black" points="1046.4,-174.79 1052.13,-165.87 1042.1,-169.27 1046.4,-174.79"/>
<text text-anchor="middle" x="1076.97" y="-189.67" font-family="Times,serif" font-size="14.00">Metal Support Bars</text>
</g>
<!-- 301 -->
<g id="node15" class="node">
<title>301</title>
<ellipse fill="none" stroke="black" cx="652.35" cy="-28.99" rx="64.35" ry="28.99"/>
<text text-anchor="middle" x="652.35" y="-32.19" font-family="Times,serif" font-size="14.00">301</text>
<text text-anchor="middle" x="652.35" y="-15.69" font-family="Times,serif" font-size="14.00">Raw Material</text>
</g>
<!-- C05&#45;&gt;301 -->
<g id="edge15" class="edge">
<title>C05&#45;&gt;301</title>
<path fill="none" stroke="black" d="M658.27,-110.25C657.36,-97.92 656.27,-83.24 655.28,-69.82"/>
<polygon fill="black" stroke="black" points="658.78,-69.67 654.56,-59.96 651.8,-70.19 658.78,-69.67"/>
<text text-anchor="middle" x="670.85" y="-79.18" font-family="Times,serif" font-size="14.00">Steel</text>
</g>
<!-- 302 -->
<g id="node16" class="node">
<title>302</title>
<ellipse fill="none" stroke="black" cx="799.35" cy="-28.99" rx="64.35" ry="28.99"/>
<text text-anchor="middle" x="799.35" y="-32.19" font-family="Times,serif" font-size="14.00">302</text>
<text text-anchor="middle" x="799.35" y="-15.69" font-family="Times,serif" font-size="14.00">Raw Material</text>
</g>
<!-- C06&#45;&gt;302 -->
<g id="edge16" class="edge">
<title>C06&#45;&gt;302</title>
<path fill="none" stroke="black" d="M799.35,-110.25C799.35,-97.92 799.35,-83.24 799.35,-69.82"/>
<polygon fill="black" stroke="black" points="802.85,-69.96 799.35,-59.96 795.85,-69.96 802.85,-69.96"/>
<text text-anchor="middle" x="812.85" y="-79.18" font-family="Times,serif" font-size="14.00">Steel</text>
</g>
<!-- 303 -->
<g id="node17" class="node">
<title>303</title>
<ellipse fill="none" stroke="black" cx="946.35" cy="-28.99" rx="64.35" ry="28.99"/>
<text text-anchor="middle" x="946.35" y="-32.19" font-family="Times,serif" font-size="14.00">303</text>
<text text-anchor="middle" x="946.35" y="-15.69" font-family="Times,serif" font-size="14.00">Raw Material</text>
</g>
<!-- C07&#45;&gt;303 -->
<g id="edge17" class="edge">
<title>C07&#45;&gt;303</title>
<path fill="none" stroke="black" d="M940.43,-110.25C941.34,-97.92 942.42,-83.24 943.41,-69.82"/>
<polygon fill="black" stroke="black" points="946.89,-70.19 944.14,-59.96 939.91,-69.67 946.89,-70.19"/>
<text text-anchor="middle" x="956.85" y="-79.18" font-family="Times,serif" font-size="14.00">Steel</text>
</g>
<!-- 304 -->
<g id="node18" class="node">
<title>304</title>
<ellipse fill="none" stroke="black" cx="1093.35" cy="-28.99" rx="64.35" ry="28.99"/>
<text text-anchor="middle" x="1093.35" y="-32.19" font-family="Times,serif" font-size="14.00">304</text>
<text text-anchor="middle" x="1093.35" y="-15.69" font-family="Times,serif" font-size="14.00">Raw Material</text>
</g>
<!-- C08&#45;&gt;304 -->
<g id="edge18" class="edge">
<title>C08&#45;&gt;304</title>
<path fill="none" stroke="black" d="M1084.47,-110.25C1085.83,-97.92 1087.46,-83.24 1088.94,-69.82"/>
<polygon fill="black" stroke="black" points="1092.41,-70.27 1090.03,-59.95 1085.45,-69.51 1092.41,-70.27"/>
<text text-anchor="middle" x="1101.85" y="-79.18" font-family="Times,serif" font-size="14.00">Steel</text>
</g>
<g id="node19" class="node">
<title></title>
<ellipse fill="none" stroke="black" cx="494.35" cy="-349.45" rx="27" ry="18"/>
</g>
<!-- &#45;&gt;1 -->
<g id="edge2" class="edge">
<title>&#45;&gt;1</title>
<path fill="none" stroke="black" d="M476.29,-335.5C455.89,-320.88 422.12,-296.68 395.94,-277.9"/>
<polygon fill="black" stroke="black" points="398.07,-275.12 387.9,-272.14 393.99,-280.81 398.07,-275.12"/>
<text text-anchor="middle" x="483.1" y="-300.15" font-family="Times,serif" font-size="14.00">Wooden Chair</text>
</g>
<!-- &#45;&gt;2 -->
<g id="edge1" class="edge">
<title>&#45;&gt;2</title>
<path fill="none" stroke="black" d="M518.53,-340.72C568.75,-324.67 685.11,-287.47 751.21,-266.34"/>
<polygon fill="black" stroke="black" points="752.25,-269.69 760.71,-263.31 750.12,-263.02 752.25,-269.69"/>
<text text-anchor="middle" x="680.35" y="-300.15" font-family="Times,serif" font-size="14.00">Metal Chair</text>
</g>
</g>
</svg>
