<svg width="2876px" height="154px"
 viewBox="0.00 0.00 2876.19 154.48" xmlns="http://www.w3.org/2000/svg" xmlns:xlink="http://www.w3.org/1999/xlink">
<g id="graph0" class="graph" transform="scale(1.0 1.0) rotate(0.0) translate(4.0 150.48)">
<title>Product Structure</title>
<polygon fill="white" stroke="none" points="-4,4 -4,-150.48 2872.19,-150.48 2872.19,4 -4,4"/>
<!-- PN12344A21 -->
<g id="node1" class="node">
<title>PN12344A21</title>
<ellipse fill="none" stroke="black" cx="1216.12" cy="-28.99" rx="82.38" ry="28.99"/>
<text text-anchor="middle" x="1216.12" y="-32.19" font-family="Times New Roman,serif" font-size="14.00">PN12344A21</text>
<text text-anchor="middle" x="1216.12" y="-15.69" font-family="Times New Roman,serif" font-size="14.00">Screw M6 35 mm</text>
</g>
<!-- PN52384R50 -->
<g id="node2" class="node">
<title>PN52384R50</title>
<ellipse fill="none" stroke="black" cx="806.12" cy="-28.99" rx="164.05" ry="28.99"/>
<text text-anchor="middle" x="806.12" y="-32.19" font-family="Times New Roman,serif" font-size="14.00">PN52384R50</text>
<text text-anchor="middle" x="806.12" y="-15.69" font-family="Times New Roman,serif" font-size="14.00">300x300 mm 5mm stainless steel sheet</text>
</g>
<!-- PN52384R10 -->
<g id="node3" class="node">
<title>PN52384R10</title>
<ellipse fill="none" stroke="black" cx="460.12" cy="-28.99" rx="164.05" ry="28.99"/>
<text text-anchor="middle" x="460.12" y="-32.19" font-family="Times New Roman,serif" font-size="14.00">PN52384R10</text>
<text text-anchor="middle" x="460.12" y="-15.69" font-family="Times New Roman,serif" font-size="14.00">300x300 mm 1mm stainless steel sheet</text>
</g>
<!-- PN18544A21 -->
<g id="node4" class="node">
<title>PN18544A21</title>
<ellipse fill="none" stroke="black" cx="1052.12" cy="-28.99" rx="63.82" ry="28.99"/>
<text text-anchor="middle" x="1052.12" y="-32.19" font-family="Times New Roman,serif" font-size="14.00">PN18544A21</text>
<text text-anchor="middle" x="1052.12" y="-15.69" font-family="Times New Roman,serif" font-size="14.00">Rivet 6 mm</text>
</g>
<!-- PN18544C21 -->
<g id="node5" class="node">
<title>PN18544C21</title>
<ellipse fill="none" stroke="black" cx="1451.12" cy="-28.99" rx="134.88" ry="28.99"/>
<text text-anchor="middle" x="1451.12" y="-32.19" font-family="Times New Roman,serif" font-size="14.00">PN18544C21</text>
<text text-anchor="middle" x="1451.12" y="-15.69" font-family="Times New Roman,serif" font-size="14.00">Stainless steel handle model U6</text>
</g>
<!-- PN18324C54 -->
<g id="node6" class="node">
<title>PN18324C54</title>
<ellipse fill="none" stroke="black" cx="139.12" cy="-28.99" rx="139.12" ry="28.99"/>
<text text-anchor="middle" x="139.12" y="-32.19" font-family="Times New Roman,serif" font-size="14.00">PN18324C54</text>
<text text-anchor="middle" x="139.12" y="-15.69" font-family="Times New Roman,serif" font-size="14.00">Stainless steel handle model R12</text>
</g>
<!-- PN18324C51 -->
<g id="node7" class="node">
<title>PN18324C51</title>
<ellipse fill="none" stroke="black" cx="1743.12" cy="-28.99" rx="139.12" ry="28.99"/>
<text text-anchor="middle" x="1743.12" y="-32.19" font-family="Times New Roman,serif" font-size="14.00">PN18324C51</text>
<text text-anchor="middle" x="1743.12" y="-15.69" font-family="Times New Roman,serif" font-size="14.00">Stainless steel handle model R11</text>
</g>
<!-- PN52384R45 -->
<g id="node8" class="node">
<title>PN52384R45</title>
<ellipse fill="none" stroke="black" cx="2410.12" cy="-28.99" rx="164.05" ry="28.99"/>
<text text-anchor="middle" x="2410.12" y="-32.19" font-family="Times New Roman,serif" font-size="14.00">PN52384R45</text>
<text text-anchor="middle" x="2410.12" y="-15.69" font-family="Times New Roman,serif" font-size="14.00">250x250 mm 5mm stainless steel sheet</text>
</g>
<!-- PN52384R12 -->
<g id="node9" class="node">
<title>PN52384R12</title>
<ellipse fill="none" stroke="black" cx="2064.12" cy="-28.99" rx="164.05" ry="28.99"/>
<text text-anchor="middle" x="2064.12" y="-32.19" font-family="Times New Roman,serif" font-size="14.00">PN52384R12</text>
<text text-anchor="middle" x="2064.12" y="-15.69" font-family="Times New Roman,serif" font-size="14.00">250x250 mm 1mm stainless steel sheet</text>
</g>
<!-- PN18324C91 -->
<g id="node10" class="node">
<title>PN18324C91</title>
<ellipse fill="none" stroke="black" cx="2730.12" cy="-28.99" rx="138.06" ry="28.99"/>
<text text-anchor="middle" x="2730.12" y="-32.19" font-family="Times New Roman,serif" font-size="14.00">PN18324C91</text>
<text text-anchor="middle" x="2730.12" y="-15.69" font-family="Times New Roman,serif" font-size="14.00">Stainless steel handle model S26</text>
</g>
<!-- AS12945S22 -->
<g id="node11" class="node">
<title>AS12945S22</title>
<ellipse fill="none" stroke="black" cx="915.12" cy="-128.48" rx="60.05" ry="18"/>
<text text-anchor="middle" x="915.12" y="-123.43" font-family="Times New Roman,serif" font-size="14.00">AS12945S22</text>
</g>
<!-- AS12945S22&#45;&gt;PN12344A21 -->
<g id="edge6" class="edge">
<title>AS12945S22&#45;&gt;PN12344A21</title>
<path fill="none" stroke="black" d="M968.78,-119.98C1002.93,-114.36 1047.79,-105.4 1086.12,-92.48 1112.27,-83.67 1140,-70.87 1163.1,-59.14"/>
<polygon fill="black" stroke="black" points="1164.4,-62.41 1171.68,-54.71 1161.19,-56.19 1164.4,-62.41"/>
<text text-anchor="middle" x="1130" y="-79.18" font-family="Times New Roman,serif" font-size="14.00">1</text>
</g>
<!-- AS12945S22&#45;&gt;PN52384R50 -->
<g id="edge5" class="edge">
<title>AS12945S22&#45;&gt;PN52384R50</title>
<path fill="none" stroke="black" d="M873.38,-115.26C860.35,-109.89 846.69,-102.47 836.37,-92.48 829.48,-85.81 823.94,-77.24 819.59,-68.6"/>
<polygon fill="black" stroke="black" points="822.8,-67.2 815.49,-59.53 816.42,-70.08 822.8,-67.2"/>
<text text-anchor="middle" x="839.75" y="-79.18" font-family="Times New Roman,serif" font-size="14.00">1</text>
</g>
<!-- AS12945S22&#45;&gt;PN52384R10 -->
<g id="edge4" class="edge">
<title>AS12945S22&#45;&gt;PN52384R10</title>
<path fill="none" stroke="black" d="M867.29,-117.23C798.16,-102.42 668.25,-74.59 573.71,-54.33"/>
<polygon fill="black" stroke="black" points="574.64,-50.95 564.13,-52.28 573.18,-57.79 574.64,-50.95"/>
<text text-anchor="middle" x="745.13" y="-79.18" font-family="Times New Roman,serif" font-size="14.00">1</text>
</g>
<!-- AS12945S22&#45;&gt;PN18544A21 -->
<g id="edge3" class="edge">
<title>AS12945S22&#45;&gt;PN18544A21</title>
<path fill="none" stroke="black" d="M937.75,-111.38C957.14,-97.59 985.6,-77.33 1009.29,-60.48"/>
<polygon fill="black" stroke="black" points="1011.08,-63.49 1017.2,-54.84 1007.02,-57.79 1011.08,-63.49"/>
<text text-anchor="middle" x="987" y="-79.18" font-family="Times New Roman,serif" font-size="14.00">4</text>
</g>
<!-- AS12945S22&#45;&gt;PN18544C21 -->
<g id="edge2" class="edge">
<title>AS12945S22&#45;&gt;PN18544C21</title>
<path fill="none" stroke="black" d="M967.71,-119.47C989.46,-116.35 1014.97,-112.94 1038.12,-110.48 1145.82,-99.06 1175.42,-116.03 1281.12,-92.48 1301.2,-88.01 1305.09,-83.16 1324.37,-75.98 1340.03,-70.16 1356.81,-64 1372.87,-58.16"/>
<polygon fill="black" stroke="black" points="1373.67,-61.59 1381.87,-54.89 1371.28,-55.01 1373.67,-61.59"/>
<text text-anchor="middle" x="1327.75" y="-79.18" font-family="Times New Roman,serif" font-size="14.00">2</text>
</g>
<!-- AS12945S22&#45;&gt;PN18324C54 -->
<g id="edge1" class="edge">
<title>AS12945S22&#45;&gt;PN18324C54</title>
<path fill="none" stroke="black" d="M857.78,-122.62C747.11,-112.91 496.5,-89.32 287.12,-57.98 274.82,-56.14 261.98,-54.02 249.23,-51.78"/>
<polygon fill="black" stroke="black" points="250.01,-48.36 239.55,-50.06 248.78,-55.26 250.01,-48.36"/>
<text text-anchor="middle" x="548.62" y="-79.18" font-family="Times New Roman,serif" font-size="14.00">1</text>
</g>
<!-- AS12945S20 -->
<g id="node12" class="node">
<title>AS12945S20</title>
<ellipse fill="none" stroke="black" cx="1107.12" cy="-128.48" rx="60.05" ry="18"/>
<text text-anchor="middle" x="1107.12" y="-123.43" font-family="Times New Roman,serif" font-size="14.00">AS12945S20</text>
</g>
<!-- AS12945S20&#45;&gt;PN12344A21 -->
<g id="edge12" class="edge">
<title>AS12945S20&#45;&gt;PN12344A21</title>
<path fill="none" stroke="black" d="M1125.61,-110.94C1140.02,-98.06 1160.5,-79.74 1178.34,-63.79"/>
<polygon fill="black" stroke="black" points="1180.6,-66.46 1185.72,-57.19 1175.93,-61.24 1180.6,-66.46"/>
<text text-anchor="middle" x="1165" y="-79.18" font-family="Times New Roman,serif" font-size="14.00">1</text>
</g>
<!-- AS12945S20&#45;&gt;PN52384R50 -->
<g id="edge11" class="edge">
<title>AS12945S20&#45;&gt;PN52384R50</title>
<path fill="none" stroke="black" d="M1078,-112.38C1055.54,-101.18 1023.46,-86.15 994.12,-75.98 970.86,-67.92 945.51,-60.7 921.18,-54.51"/>
<polygon fill="black" stroke="black" points="922.1,-51.13 911.55,-52.1 920.4,-57.92 922.1,-51.13"/>
<text text-anchor="middle" x="1038.72" y="-79.18" font-family="Times New Roman,serif" font-size="14.00">1</text>
</g>
<!-- AS12945S20&#45;&gt;PN52384R10 -->
<g id="edge10" class="edge">
<title>AS12945S20&#45;&gt;PN52384R10</title>
<path fill="none" stroke="black" d="M1060.64,-116.85C1008.11,-105.19 919.89,-86.73 843.12,-75.98 750.35,-63 726.09,-69.47 633.12,-57.98 618.18,-56.14 602.55,-53.96 587.05,-51.64"/>
<polygon fill="black" stroke="black" points="587.72,-48.2 577.31,-50.17 586.67,-55.13 587.72,-48.2"/>
<text text-anchor="middle" x="941.33" y="-79.18" font-family="Times New Roman,serif" font-size="14.00">1</text>
</g>
<!-- AS12945S20&#45;&gt;PN18544A21 -->
<g id="edge9" class="edge">
<title>AS12945S20&#45;&gt;PN18544A21</title>
<path fill="none" stroke="black" d="M1092.36,-110.68C1087.86,-105.11 1083.13,-98.73 1079.37,-92.48 1074.84,-84.93 1070.64,-76.49 1066.96,-68.32"/>
<polygon fill="black" stroke="black" points="1070.21,-67.02 1063.04,-59.21 1063.78,-69.78 1070.21,-67.02"/>
<text text-anchor="middle" x="1082.75" y="-79.18" font-family="Times New Roman,serif" font-size="14.00">4</text>
</g>
<!-- AS12945S20&#45;&gt;PN18544C21 -->
<g id="edge8" class="edge">
<title>AS12945S20&#45;&gt;PN18544C21</title>
<path fill="none" stroke="black" d="M1165.22,-123.72C1211.39,-119.48 1277.13,-110.64 1332.12,-92.48 1354.78,-85 1378.31,-73.53 1398.42,-62.45"/>
<polygon fill="black" stroke="black" points="1399.98,-65.59 1406.97,-57.63 1396.54,-59.49 1399.98,-65.59"/>
<text text-anchor="middle" x="1373.02" y="-79.18" font-family="Times New Roman,serif" font-size="14.00">2</text>
</g>
<!-- AS12945S20&#45;&gt;PN18324C51 -->
<g id="edge7" class="edge">
<title>AS12945S20&#45;&gt;PN18324C51</title>
<path fill="none" stroke="black" d="M1165.73,-123.83C1231.81,-119.12 1342.29,-109.43 1436.12,-92.48 1465.14,-87.24 1471.6,-82.4 1500.37,-75.98 1502.12,-75.59 1567.81,-63.15 1630.41,-51.31"/>
<polygon fill="black" stroke="black" points="1630.98,-54.76 1640.15,-49.46 1629.68,-47.88 1630.98,-54.76"/>
<text text-anchor="middle" x="1503.75" y="-79.18" font-family="Times New Roman,serif" font-size="14.00">1</text>
</g>
<!-- AS12945S17 -->
<g id="node13" class="node">
<title>AS12945S17</title>
<ellipse fill="none" stroke="black" cx="1571.12" cy="-128.48" rx="60.05" ry="18"/>
<text text-anchor="middle" x="1571.12" y="-123.43" font-family="Times New Roman,serif" font-size="14.00">AS12945S17</text>
</g>
<!-- AS12945S17&#45;&gt;PN12344A21 -->
<g id="edge18" class="edge">
<title>AS12945S17&#45;&gt;PN12344A21</title>
<path fill="none" stroke="black" d="M1524.26,-116.92C1496.52,-110.42 1460.78,-101.6 1429.37,-92.48 1407.2,-86.04 1402.29,-82.42 1380.12,-75.98 1348.03,-66.67 1339.33,-66.9 1307.12,-57.98 1300.54,-56.16 1293.71,-54.19 1286.88,-52.18"/>
<polygon fill="black" stroke="black" points="1288.22,-48.93 1277.64,-49.43 1286.22,-55.64 1288.22,-48.93"/>
<text text-anchor="middle" x="1432.75" y="-79.18" font-family="Times New Roman,serif" font-size="14.00">1</text>
</g>
<!-- AS12945S17&#45;&gt;PN18544A21 -->
<g id="edge15" class="edge">
<title>AS12945S17&#45;&gt;PN18544A21</title>
<path fill="none" stroke="black" d="M1513.05,-123.28C1426.92,-115.97 1260.87,-97.72 1125.12,-57.98 1120.02,-56.49 1114.77,-54.8 1109.53,-53"/>
<polygon fill="black" stroke="black" points="1110.88,-49.77 1100.29,-49.71 1108.53,-56.36 1110.88,-49.77"/>
<text text-anchor="middle" x="1273.31" y="-79.18" font-family="Times New Roman,serif" font-size="14.00">4</text>
</g>
<!-- AS12945S17&#45;&gt;PN18544C21 -->
<g id="edge14" class="edge">
<title>AS12945S17&#45;&gt;PN18544C21</title>
<path fill="none" stroke="black" d="M1551.04,-111.16C1535.42,-98.47 1513.19,-80.41 1493.66,-64.55"/>
<polygon fill="black" stroke="black" points="1496.06,-61.99 1486.09,-58.4 1491.64,-67.42 1496.06,-61.99"/>
<text text-anchor="middle" x="1528.78" y="-79.18" font-family="Times New Roman,serif" font-size="14.00">2</text>
</g>
<!-- AS12945S17&#45;&gt;PN18324C51 -->
<g id="edge13" class="edge">
<title>AS12945S17&#45;&gt;PN18324C51</title>
<path fill="none" stroke="black" d="M1598.38,-112.03C1621.95,-98.67 1656.81,-78.92 1686.41,-62.14"/>
<polygon fill="black" stroke="black" points="1687.93,-65.3 1694.9,-57.32 1684.48,-59.21 1687.93,-65.3"/>
<text text-anchor="middle" x="1660.5" y="-79.18" font-family="Times New Roman,serif" font-size="14.00">1</text>
</g>
<!-- AS12945S17&#45;&gt;PN52384R45 -->
<g id="edge17" class="edge">
<title>AS12945S17&#45;&gt;PN52384R45</title>
<path fill="none" stroke="black" d="M1628.27,-122.61C1743.61,-112.55 2012.41,-87.86 2237.12,-57.98 2251.81,-56.03 2267.16,-53.81 2282.4,-51.49"/>
<polygon fill="black" stroke="black" points="2282.62,-55 2291.97,-50.02 2281.56,-48.08 2282.62,-55"/>
<text text-anchor="middle" x="2094.89" y="-79.18" font-family="Times New Roman,serif" font-size="14.00">1</text>
</g>
<!-- AS12945S17&#45;&gt;PN52384R12 -->
<g id="edge16" class="edge">
<title>AS12945S17&#45;&gt;PN52384R12</title>
<path fill="none" stroke="black" d="M1620.2,-117.78C1695.39,-102.91 1841.33,-74.05 1945.34,-53.48"/>
<polygon fill="black" stroke="black" points="1945.93,-56.93 1955.06,-51.56 1944.57,-50.07 1945.93,-56.93"/>
<text text-anchor="middle" x="1821" y="-79.18" font-family="Times New Roman,serif" font-size="14.00">1</text>
</g>
<!-- AS12945P17 -->
<g id="node14" class="node">
<title>AS12945P17</title>
<ellipse fill="none" stroke="black" cx="2613.12" cy="-128.48" rx="60.05" ry="18"/>
<text text-anchor="middle" x="2613.12" y="-123.43" font-family="Times New Roman,serif" font-size="14.00">AS12945P17</text>
</g>
<!-- AS12945P17&#45;&gt;PN52384R45 -->
<g id="edge20" class="edge">
<title>AS12945P17&#45;&gt;PN52384R45</title>
<path fill="none" stroke="black" d="M2582.29,-112.68C2554.23,-99.2 2511.85,-78.85 2476.17,-61.71"/>
<polygon fill="black" stroke="black" points="2477.71,-58.57 2467.18,-57.39 2474.68,-64.88 2477.71,-58.57"/>
<text text-anchor="middle" x="2539.15" y="-79.18" font-family="Times New Roman,serif" font-size="14.00">1</text>
</g>
<!-- AS12945P17&#45;&gt;PN18324C91 -->
<g id="edge19" class="edge">
<title>AS12945P17&#45;&gt;PN18324C91</title>
<path fill="none" stroke="black" d="M2632.71,-111.16C2647.87,-98.53 2669.42,-80.58 2688.39,-64.76"/>
<polygon fill="black" stroke="black" points="2690.57,-67.5 2696.02,-58.41 2686.09,-62.12 2690.57,-67.5"/>
<text text-anchor="middle" x="2675" y="-79.18" font-family="Times New Roman,serif" font-size="14.00">1</text>
</g>
</g>
</svg>
