<svg xmlns="http://www.w3.org/2000/svg" xmlns:xlink="http://www.w3.org/1999/xlink" contentStyleType="text/css" height="2024px" preserveAspectRatio="none" style="width:927px;height:2024px;background:#FFFFFF;" version="1.1" viewBox="0 0 927 2024" width="927px" zoomAndPan="magnify"><defs/><g><!--class Customer--><g id="elem_Customer"><rect codeLine="9" fill="#F1F1F1" height="185.5898" id="Customer" rx="2.5" ry="2.5" style="stroke:#181818;stroke-width:0.5;" width="108.4961" x="235.5" y="7"/><text fill="#000000" font-family="sans-serif" font-size="14" lengthAdjust="spacing" textLength="60.6826" x="259.4067" y="27.1074">Customer</text><line style="stroke:#181818;stroke-width:0.5;" x1="236.5" x2="342.9961" y1="35.6211" y2="35.6211"/><text fill="#000000" font-family="sans-serif" font-size="14" lengthAdjust="spacing" textLength="82.4688" x="241.5" y="54.7285">Customer_ID</text><text fill="#000000" font-family="sans-serif" font-size="14" lengthAdjust="spacing" textLength="22.5518" x="241.5" y="73.3496">NIF</text><text fill="#000000" font-family="sans-serif" font-size="14" lengthAdjust="spacing" textLength="37.3447" x="241.5" y="91.9707">Name</text><text fill="#000000" font-family="sans-serif" font-size="14" lengthAdjust="spacing" textLength="51.3584" x="241.5" y="110.5918">Address</text><text fill="#000000" font-family="sans-serif" font-size="14" lengthAdjust="spacing" textLength="96.4961" x="241.5" y="129.2129">Mobile_number</text><text fill="#000000" font-family="sans-serif" font-size="14" lengthAdjust="spacing" textLength="35.0068" x="241.5" y="147.834">Email</text><text fill="#000000" font-family="sans-serif" font-size="14" lengthAdjust="spacing" textLength="48.248" x="241.5" y="166.4551">type_ID</text><text fill="#000000" font-family="sans-serif" font-size="14" lengthAdjust="spacing" textLength="70.8066" x="241.5" y="185.0762">Country_ID</text></g><!--class Product--><g id="elem_Product"><rect codeLine="20" fill="#F1F1F1" height="185.5898" id="Product" rx="2.5" ry="2.5" style="stroke:#181818;stroke-width:0.5;" width="120.1582" x="366.5" y="481"/><text fill="#000000" font-family="sans-serif" font-size="14" lengthAdjust="spacing" textLength="48.248" x="402.4551" y="501.1074">Product</text><line style="stroke:#181818;stroke-width:0.5;" x1="367.5" x2="485.6582" y1="509.6211" y2="509.6211"/><text fill="#000000" font-family="sans-serif" font-size="14" lengthAdjust="spacing" textLength="70.0342" x="372.5" y="528.7285">Product_ID</text><text fill="#000000" font-family="sans-serif" font-size="14" lengthAdjust="spacing" textLength="93.3789" x="372.5" y="547.3496">Product_Name</text><text fill="#000000" font-family="sans-serif" font-size="14" lengthAdjust="spacing" textLength="108.1582" x="372.5" y="565.9707">Factory_Plant_ID</text><text fill="#000000" font-family="sans-serif" font-size="14" lengthAdjust="spacing" textLength="103.4893" x="372.5" y="584.5918">Market_Demand</text><text fill="#000000" font-family="sans-serif" font-size="14" lengthAdjust="spacing" textLength="77.8066" x="372.5" y="603.2129">Optimization</text><text fill="#000000" font-family="sans-serif" font-size="14" lengthAdjust="spacing" textLength="103.5029" x="372.5" y="621.834">Production_Cost</text><text fill="#000000" font-family="sans-serif" font-size="14" lengthAdjust="spacing" textLength="57.5654" x="372.5" y="640.4551">Flexibility</text><text fill="#000000" font-family="sans-serif" font-size="14" lengthAdjust="spacing" textLength="63.0068" x="372.5" y="659.0762">Family_ID</text></g><!--class Intermediate_Product--><g id="elem_Intermediate_Product"><rect codeLine="31" fill="#F1F1F1" height="55.2422" id="Intermediate_Product" rx="2.5" ry="2.5" style="stroke:#181818;stroke-width:0.5;" width="139.8545" x="780.5" y="546.5"/><text fill="#000000" font-family="sans-serif" font-size="14" lengthAdjust="spacing" textLength="133.8545" x="783.5" y="566.6074">Intermediate_Product</text><line style="stroke:#181818;stroke-width:0.5;" x1="781.5" x2="919.3545" y1="575.1211" y2="575.1211"/><text fill="#000000" font-family="sans-serif" font-size="14" lengthAdjust="spacing" textLength="47.4619" x="786.5" y="594.2285">Part_ID</text></g><!--class Raw_Material--><g id="elem_Raw_Material"><rect codeLine="35" fill="#F1F1F1" height="55.2422" id="Raw_Material" rx="2.5" ry="2.5" style="stroke:#181818;stroke-width:0.5;" width="91.5859" x="521.5" y="546.5"/><text fill="#000000" font-family="sans-serif" font-size="14" lengthAdjust="spacing" textLength="85.5859" x="524.5" y="566.6074">Raw_Material</text><line style="stroke:#181818;stroke-width:0.5;" x1="522.5" x2="612.0859" y1="575.1211" y2="575.1211"/><text fill="#000000" font-family="sans-serif" font-size="14" lengthAdjust="spacing" textLength="47.4619" x="527.5" y="594.2285">Part_ID</text></g><!--class Component--><g id="elem_Component"><rect codeLine="39" fill="#F1F1F1" height="55.2422" id="Component" rx="2.5" ry="2.5" style="stroke:#181818;stroke-width:0.5;" width="78.3789" x="667.5" y="546.5"/><text fill="#000000" font-family="sans-serif" font-size="14" lengthAdjust="spacing" textLength="72.3789" x="670.5" y="566.6074">Component</text><line style="stroke:#181818;stroke-width:0.5;" x1="668.5" x2="744.8789" y1="575.1211" y2="575.1211"/><text fill="#000000" font-family="sans-serif" font-size="14" lengthAdjust="spacing" textLength="47.4619" x="673.5" y="594.2285">Part_ID</text></g><!--class Plant_Floor--><g id="elem_Plant_Floor"><rect codeLine="43" fill="#F1F1F1" height="73.8633" id="Plant_Floor" rx="2.5" ry="2.5" style="stroke:#181818;stroke-width:0.5;" width="120.1582" x="31.5" y="982.5"/><text fill="#000000" font-family="sans-serif" font-size="14" lengthAdjust="spacing" textLength="71.5928" x="55.7827" y="1002.6074">Plant_Floor</text><line style="stroke:#181818;stroke-width:0.5;" x1="32.5" x2="150.6582" y1="1011.1211" y2="1011.1211"/><text fill="#000000" font-family="sans-serif" font-size="14" lengthAdjust="spacing" textLength="93.3789" x="37.5" y="1030.2285">Plant_Floor_ID</text><text fill="#000000" font-family="sans-serif" font-size="14" lengthAdjust="spacing" textLength="108.1582" x="37.5" y="1048.8496">Factory_Plant_ID</text></g><!--class Factory_Plant--><g id="elem_Factory_Plant"><rect codeLine="48" fill="#F1F1F1" height="111.1055" id="Factory_Plant" rx="2.5" ry="2.5" style="stroke:#181818;stroke-width:0.5;" width="120.1582" x="88.5" y="746"/><text fill="#000000" font-family="sans-serif" font-size="14" lengthAdjust="spacing" textLength="86.3721" x="105.3931" y="766.1074">Factory_Plant</text><line style="stroke:#181818;stroke-width:0.5;" x1="89.5" x2="207.6582" y1="774.6211" y2="774.6211"/><text fill="#000000" font-family="sans-serif" font-size="14" lengthAdjust="spacing" textLength="108.1582" x="94.5" y="793.7285">Factory_Plant_ID</text><text fill="#000000" font-family="sans-serif" font-size="14" lengthAdjust="spacing" textLength="39.6895" x="94.5" y="812.3496">Safety</text><text fill="#000000" font-family="sans-serif" font-size="14" lengthAdjust="spacing" textLength="59.9102" x="94.5" y="830.9707">Efficiency</text><text fill="#000000" font-family="sans-serif" font-size="14" lengthAdjust="spacing" textLength="39.6963" x="94.5" y="849.5918">Space</text></g><!--class Country--><g id="elem_Country"><rect codeLine="55" fill="#F1F1F1" height="73.8633" id="Country" rx="2.5" ry="2.5" style="stroke:#181818;stroke-width:0.5;" width="106.1514" x="115.5" y="300"/><text fill="#000000" font-family="sans-serif" font-size="14" lengthAdjust="spacing" textLength="49.0205" x="144.0654" y="320.1074">Country</text><line style="stroke:#181818;stroke-width:0.5;" x1="116.5" x2="220.6514" y1="328.6211" y2="328.6211"/><text fill="#000000" font-family="sans-serif" font-size="14" lengthAdjust="spacing" textLength="70.8066" x="121.5" y="347.7285">Country_ID</text><text fill="#000000" font-family="sans-serif" font-size="14" lengthAdjust="spacing" textLength="94.1514" x="121.5" y="366.3496">Country_Name</text></g><!--class Type--><g id="elem_Type"><rect codeLine="60" fill="#F1F1F1" height="73.8633" id="Type" rx="2.5" ry="2.5" style="stroke:#181818;stroke-width:0.5;" width="64.9102" x="257" y="300"/><text fill="#000000" font-family="sans-serif" font-size="14" lengthAdjust="spacing" textLength="31.124" x="273.8931" y="320.1074">Type</text><line style="stroke:#181818;stroke-width:0.5;" x1="258" x2="320.9102" y1="328.6211" y2="328.6211"/><text fill="#000000" font-family="sans-serif" font-size="14" lengthAdjust="spacing" textLength="52.9102" x="263" y="347.7285">Type_ID</text><text fill="#000000" font-family="sans-serif" font-size="14" lengthAdjust="spacing" textLength="37.3447" x="263" y="366.3496">Name</text></g><!--class Customer_Order--><g id="elem_Customer_Order"><rect codeLine="65" fill="#F1F1F1" height="129.7266" id="Customer_Order" rx="2.5" ry="2.5" style="stroke:#181818;stroke-width:0.5;" width="138.041" x="357.5" y="272"/><text fill="#000000" font-family="sans-serif" font-size="14" lengthAdjust="spacing" textLength="104.2549" x="374.3931" y="292.1074">Customer_Order</text><line style="stroke:#181818;stroke-width:0.5;" x1="358.5" x2="494.541" y1="300.6211" y2="300.6211"/><text fill="#000000" font-family="sans-serif" font-size="14" lengthAdjust="spacing" textLength="126.041" x="363.5" y="319.7285">Customer_Order_ID</text><text fill="#000000" font-family="sans-serif" font-size="14" lengthAdjust="spacing" textLength="73.1445" x="363.5" y="338.3496">Order_Date</text><text fill="#000000" font-family="sans-serif" font-size="14" lengthAdjust="spacing" textLength="87.9238" x="363.5" y="356.9707">Delivery_Date</text><text fill="#000000" font-family="sans-serif" font-size="14" lengthAdjust="spacing" textLength="52.9307" x="363.5" y="375.5918">Location</text><text fill="#000000" font-family="sans-serif" font-size="14" lengthAdjust="spacing" textLength="82.4688" x="363.5" y="394.2129">Customer_ID</text></g><!--class BOO--><g id="elem_BOO"><rect codeLine="73" fill="#F1F1F1" height="92.4844" id="BOO" rx="2.5" ry="2.5" style="stroke:#181818;stroke-width:0.5;" width="131.8408" x="282.5" y="1256.5"/><text fill="#000000" font-family="sans-serif" font-size="14" lengthAdjust="spacing" textLength="31.1172" x="332.8618" y="1276.6074">BOO</text><line style="stroke:#181818;stroke-width:0.5;" x1="283.5" x2="413.3408" y1="1285.1211" y2="1285.1211"/><text fill="#000000" font-family="sans-serif" font-size="14" lengthAdjust="spacing" textLength="83.2686" x="288.5" y="1304.2285">Operation_ID</text><text fill="#000000" font-family="sans-serif" font-size="14" lengthAdjust="spacing" textLength="70.0342" x="288.5" y="1322.8496">Product_ID</text><text fill="#000000" font-family="sans-serif" font-size="14" lengthAdjust="spacing" textLength="119.8408" x="288.5" y="1341.4707">Next_Operation_ID</text></g><!--class Operation--><g id="elem_Operation"><rect codeLine="79" fill="#F1F1F1" height="92.4844" id="Operation" rx="2.5" ry="2.5" style="stroke:#181818;stroke-width:0.5;" width="134.1787" x="186.5" y="973.5"/><text fill="#000000" font-family="sans-serif" font-size="14" lengthAdjust="spacing" textLength="61.4824" x="222.8481" y="993.6074">Operation</text><line style="stroke:#181818;stroke-width:0.5;" x1="187.5" x2="319.6787" y1="1002.1211" y2="1002.1211"/><text fill="#000000" font-family="sans-serif" font-size="14" lengthAdjust="spacing" textLength="83.2686" x="192.5" y="1021.2285">Operation_ID</text><text fill="#000000" font-family="sans-serif" font-size="14" lengthAdjust="spacing" textLength="122.1787" x="192.5" y="1039.8496">Operation_Type_ID</text><text fill="#000000" font-family="sans-serif" font-size="14" lengthAdjust="spacing" textLength="100.3789" x="192.5" y="1058.4707">Execution_Time</text></g><!--class Operation_Type--><g id="elem_Operation_Type"><rect codeLine="85" fill="#F1F1F1" height="73.8633" id="Operation_Type" rx="2.5" ry="2.5" style="stroke:#181818;stroke-width:0.5;" width="151.2959" x="106" y="1664"/><text fill="#000000" font-family="sans-serif" font-size="14" lengthAdjust="spacing" textLength="100.3926" x="131.4517" y="1684.1074">Operation_Type</text><line style="stroke:#181818;stroke-width:0.5;" x1="107" x2="256.2959" y1="1692.6211" y2="1692.6211"/><text fill="#000000" font-family="sans-serif" font-size="14" lengthAdjust="spacing" textLength="122.1787" x="112" y="1711.7285">Operation_Type_ID</text><text fill="#000000" font-family="sans-serif" font-size="14" lengthAdjust="spacing" textLength="139.2959" x="112" y="1730.3496">Operation_Description</text></g><!--class Part--><g id="elem_Part"><rect codeLine="90" fill="#F1F1F1" height="73.8633" id="Part" rx="2.5" ry="2.5" style="stroke:#181818;stroke-width:0.5;" width="115.4893" x="551" y="1502"/><text fill="#000000" font-family="sans-serif" font-size="14" lengthAdjust="spacing" textLength="25.6758" x="595.9067" y="1522.1074">Part</text><line style="stroke:#181818;stroke-width:0.5;" x1="552" x2="665.4893" y1="1530.6211" y2="1530.6211"/><text fill="#000000" font-family="sans-serif" font-size="14" lengthAdjust="spacing" textLength="47.4619" x="557" y="1549.7285">Part_ID</text><text fill="#000000" font-family="sans-serif" font-size="14" lengthAdjust="spacing" textLength="103.4893" x="557" y="1568.3496">Part_Description</text></g><!--class Internal_Part--><g id="elem_Internal_Part"><rect codeLine="95" fill="#F1F1F1" height="55.2422" id="Internal_Part" rx="2.5" ry="2.5" style="stroke:#181818;stroke-width:0.5;" width="86.1582" x="743.5" y="774"/><text fill="#000000" font-family="sans-serif" font-size="14" lengthAdjust="spacing" textLength="80.1582" x="746.5" y="794.1074">Internal_Part</text><line style="stroke:#181818;stroke-width:0.5;" x1="744.5" x2="828.6582" y1="802.6211" y2="802.6211"/><text fill="#000000" font-family="sans-serif" font-size="14" lengthAdjust="spacing" textLength="47.4619" x="749.5" y="821.7285">Part_ID</text></g><!--class External_Part--><g id="elem_External_Part"><rect codeLine="99" fill="#F1F1F1" height="55.2422" id="External_Part" rx="2.5" ry="2.5" style="stroke:#181818;stroke-width:0.5;" width="90.8203" x="577" y="774"/><text fill="#000000" font-family="sans-serif" font-size="14" lengthAdjust="spacing" textLength="84.8203" x="580" y="794.1074">External_Part</text><line style="stroke:#181818;stroke-width:0.5;" x1="578" x2="666.8203" y1="802.6211" y2="802.6211"/><text fill="#000000" font-family="sans-serif" font-size="14" lengthAdjust="spacing" textLength="47.4619" x="583" y="821.7285">Part_ID</text></g><!--class Supplier--><g id="elem_Supplier"><rect codeLine="103" fill="#F1F1F1" height="73.8633" id="Supplier" rx="2.5" ry="2.5" style="stroke:#181818;stroke-width:0.5;" width="108.4961" x="554.5" y="1265.5"/><text fill="#000000" font-family="sans-serif" font-size="14" lengthAdjust="spacing" textLength="51.3652" x="583.0654" y="1285.6074">Supplier</text><line style="stroke:#181818;stroke-width:0.5;" x1="555.5" x2="661.9961" y1="1294.1211" y2="1294.1211"/><text fill="#000000" font-family="sans-serif" font-size="14" lengthAdjust="spacing" textLength="73.1514" x="560.5" y="1313.2285">Supplier_ID</text><text fill="#000000" font-family="sans-serif" font-size="14" lengthAdjust="spacing" textLength="96.4961" x="560.5" y="1331.8496">Supplier_Name</text></g><!--class Procurement--><g id="elem_Procurement"><rect codeLine="108" fill="#F1F1F1" height="166.9688" id="Procurement" rx="2.5" ry="2.5" style="stroke:#181818;stroke-width:0.5;" width="113.9307" x="522.5" y="936"/><text fill="#000000" font-family="sans-serif" font-size="14" lengthAdjust="spacing" textLength="80.1445" x="539.3931" y="956.1074">Procurement</text><line style="stroke:#181818;stroke-width:0.5;" x1="523.5" x2="635.4307" y1="964.6211" y2="964.6211"/><text fill="#000000" font-family="sans-serif" font-size="14" lengthAdjust="spacing" textLength="101.9307" x="528.5" y="983.7285">Procurement_ID</text><text fill="#000000" font-family="sans-serif" font-size="14" lengthAdjust="spacing" textLength="47.4619" x="528.5" y="1002.3496">Part_ID</text><text fill="#000000" font-family="sans-serif" font-size="14" lengthAdjust="spacing" textLength="73.1514" x="528.5" y="1020.9707">Supplier_ID</text><text fill="#000000" font-family="sans-serif" font-size="14" lengthAdjust="spacing" textLength="31.8965" x="528.5" y="1039.5918">Price</text><text fill="#000000" font-family="sans-serif" font-size="14" lengthAdjust="spacing" textLength="52.9102" x="528.5" y="1058.2129">Min_Qnt</text><text fill="#000000" font-family="sans-serif" font-size="14" lengthAdjust="spacing" textLength="66.9238" x="528.5" y="1076.834">Start_Date</text><text fill="#000000" font-family="sans-serif" font-size="14" lengthAdjust="spacing" textLength="62.2686" x="528.5" y="1095.4551">End_Date</text></g><!--class Stock--><g id="elem_Stock"><rect codeLine="118" fill="#F1F1F1" height="92.4844" id="Stock" rx="2.5" ry="2.5" style="stroke:#181818;stroke-width:0.5;" width="59.4619" x="529" y="1655"/><text fill="#000000" font-family="sans-serif" font-size="14" lengthAdjust="spacing" textLength="35.0137" x="541.2241" y="1675.1074">Stock</text><line style="stroke:#181818;stroke-width:0.5;" x1="530" x2="587.4619" y1="1683.6211" y2="1683.6211"/><text fill="#000000" font-family="sans-serif" font-size="14" lengthAdjust="spacing" textLength="47.4619" x="535" y="1702.7285">Part_ID</text><text fill="#000000" font-family="sans-serif" font-size="14" lengthAdjust="spacing" textLength="35.0137" x="535" y="1721.3496">Stock</text><text fill="#000000" font-family="sans-serif" font-size="14" lengthAdjust="spacing" textLength="24.8965" x="535" y="1739.9707">Unit</text></g><!--class Reserved_Stock--><g id="elem_Reserved_Stock"><rect codeLine="124" fill="#F1F1F1" height="111.1055" id="Reserved_Stock" rx="2.5" ry="2.5" style="stroke:#181818;stroke-width:0.5;" width="108.7168" x="546" y="1906"/><text fill="#000000" font-family="sans-serif" font-size="14" lengthAdjust="spacing" textLength="102.7168" x="549" y="1926.1074">Reserved_Stock</text><line style="stroke:#181818;stroke-width:0.5;" x1="547" x2="653.7168" y1="1934.6211" y2="1934.6211"/><text fill="#000000" font-family="sans-serif" font-size="14" lengthAdjust="spacing" textLength="81.7031" x="552" y="1953.7285">Reserved_ID</text><text fill="#000000" font-family="sans-serif" font-size="14" lengthAdjust="spacing" textLength="47.4619" x="552" y="1972.3496">Part_ID</text><text fill="#000000" font-family="sans-serif" font-size="14" lengthAdjust="spacing" textLength="52.1377" x="552" y="1990.9707">Quantity</text><text fill="#000000" font-family="sans-serif" font-size="14" lengthAdjust="spacing" textLength="24.8965" x="552" y="2009.5918">Unit</text></g><!--class Product_Family--><g id="elem_Product_Family"><rect codeLine="131" fill="#F1F1F1" height="73.8633" id="Product_Family" rx="2.5" ry="2.5" style="stroke:#181818;stroke-width:0.5;" width="131.0342" x="244" y="764.5"/><text fill="#000000" font-family="sans-serif" font-size="14" lengthAdjust="spacing" textLength="97.2549" x="260.8896" y="784.6074">Product_Family</text><line style="stroke:#181818;stroke-width:0.5;" x1="245" x2="374.0342" y1="793.1211" y2="793.1211"/><text fill="#000000" font-family="sans-serif" font-size="14" lengthAdjust="spacing" textLength="63.0068" x="250" y="812.2285">Family_ID</text><text fill="#000000" font-family="sans-serif" font-size="14" lengthAdjust="spacing" textLength="119.0342" x="250" y="830.8496">Family_Description</text></g><!--class Workstation--><g id="elem_Workstation"><rect codeLine="136" fill="#F1F1F1" height="241.4531" id="Workstation" rx="2.5" ry="2.5" style="stroke:#181818;stroke-width:0.5;" width="169.1787" x="7" y="1182"/><text fill="#000000" font-family="sans-serif" font-size="14" lengthAdjust="spacing" textLength="73.9102" x="54.6343" y="1202.1074">Workstation</text><line style="stroke:#181818;stroke-width:0.5;" x1="8" x2="175.1787" y1="1210.6211" y2="1210.6211"/><text fill="#000000" font-family="sans-serif" font-size="14" lengthAdjust="spacing" textLength="95.6963" x="13" y="1229.7285">Workstation_ID</text><text fill="#000000" font-family="sans-serif" font-size="14" lengthAdjust="spacing" textLength="119.041" x="13" y="1248.3496">Workstation_Name</text><text fill="#000000" font-family="sans-serif" font-size="14" lengthAdjust="spacing" textLength="151.7236" x="13" y="1266.9707">Workstation_Description</text><text fill="#000000" font-family="sans-serif" font-size="14" lengthAdjust="spacing" textLength="157.1787" x="13" y="1285.5918">Workstation_Setup_Time</text><text fill="#000000" font-family="sans-serif" font-size="14" lengthAdjust="spacing" textLength="112.8066" x="13" y="1304.2129">Workstation_Time</text><text fill="#000000" font-family="sans-serif" font-size="14" lengthAdjust="spacing" textLength="93.3789" x="13" y="1322.834">Plant_Floor_ID</text><text fill="#000000" font-family="sans-serif" font-size="14" lengthAdjust="spacing" textLength="134.6064" x="13" y="1341.4551">Workstation_Type_ID</text><text fill="#000000" font-family="sans-serif" font-size="14" lengthAdjust="spacing" textLength="66.1309" x="13" y="1360.0762">Min_Temp</text><text fill="#000000" font-family="sans-serif" font-size="14" lengthAdjust="spacing" textLength="70.0205" x="13" y="1378.6973">Max_Temp</text><text fill="#000000" font-family="sans-serif" font-size="14" lengthAdjust="spacing" textLength="59.9033" x="13" y="1397.3184">Min_Hum</text><text fill="#000000" font-family="sans-serif" font-size="14" lengthAdjust="spacing" textLength="63.793" x="13" y="1415.9395">Max_Hum</text></g><!--class Workstation_Type--><g id="elem_Workstation_Type"><rect codeLine="150" fill="#F1F1F1" height="73.8633" id="Workstation_Type" rx="2.5" ry="2.5" style="stroke:#181818;stroke-width:0.5;" width="146.6064" x="26" y="1502"/><text fill="#000000" font-family="sans-serif" font-size="14" lengthAdjust="spacing" textLength="112.8203" x="42.8931" y="1522.1074">Workstation_Type</text><line style="stroke:#181818;stroke-width:0.5;" x1="27" x2="171.6064" y1="1530.6211" y2="1530.6211"/><text fill="#000000" font-family="sans-serif" font-size="14" lengthAdjust="spacing" textLength="134.6064" x="32" y="1549.7285">Workstation_Type_ID</text><text fill="#000000" font-family="sans-serif" font-size="14" lengthAdjust="spacing" textLength="112.8203" x="32" y="1568.3496">Workstation_Type</text></g><!--link Customer to Customer_Order--><g id="link_Customer_Customer_Order"><path codeLine="156" d="M343.25,193.2 C358.62,219.56 375.03,247.71 389.18,271.98 " fill="none" id="Customer-Customer_Order" style="stroke:#181818;stroke-width:1.0;"/><polygon fill="#000000" points="377.0183,236.965,375.0016,227.6707,369.9237,230.6312,377.0183,236.965" style="stroke:#000000;stroke-width:1.0;"/><text fill="#000000" font-family="sans-serif" font-size="13" lengthAdjust="spacing" textLength="20.96" x="383.5" y="238.0283">has</text><text fill="#000000" font-family="sans-serif" font-size="13" lengthAdjust="spacing" textLength="7.23" x="339.9305" y="214.7227">1</text><text fill="#000000" font-family="sans-serif" font-size="13" lengthAdjust="spacing" textLength="19.5127" x="364.7937" y="260.5402">0..*</text></g><!--link Customer to Type--><g id="link_Customer_Type"><path codeLine="157" d="M289.5,193.2 C289.5,230.49 289.5,271.35 289.5,299.77 " fill="none" id="Customer-Type" style="stroke:#181818;stroke-width:1.0;"/><polygon fill="#000000" points="294.5,237.6455,297.4389,228.6004,291.5611,228.6004,294.5,237.6455" style="stroke:#000000;stroke-width:1.0;"/><text fill="#000000" font-family="sans-serif" font-size="13" lengthAdjust="spacing" textLength="20.96" x="303.5" y="238.0283">has</text><text fill="#000000" font-family="sans-serif" font-size="13" lengthAdjust="spacing" textLength="7.23" x="282.2332" y="214.7227">1</text><text fill="#000000" font-family="sans-serif" font-size="13" lengthAdjust="spacing" textLength="7.23" x="281.905" y="288.6908">1</text></g><!--link Customer to Country--><g id="link_Customer_Country"><path codeLine="158" d="M242.02,193.2 C222.82,230.49 201.79,271.35 187.15,299.77 " fill="none" id="Customer-Country" style="stroke:#181818;stroke-width:1.0;"/><polygon fill="#000000" points="228.2112,237.0909,234.9646,230.3944,229.7388,227.7038,228.2112,237.0909" style="stroke:#000000;stroke-width:1.0;"/><text fill="#000000" font-family="sans-serif" font-size="13" lengthAdjust="spacing" textLength="20.96" x="239.5" y="238.0283">has</text><text fill="#000000" font-family="sans-serif" font-size="13" lengthAdjust="spacing" textLength="7.23" x="231.2664" y="214.7227">1</text><text fill="#000000" font-family="sans-serif" font-size="13" lengthAdjust="spacing" textLength="19.5127" x="169.812" y="288.6908">0..*</text></g><!--link Customer_Order to Product--><g id="link_Customer_Order_Product"><path codeLine="160" d="M426.5,402.21 C426.5,426.4 426.5,454.42 426.5,480.67 " fill="none" id="Customer_Order-Product" style="stroke:#181818;stroke-width:1.0;"/><polygon fill="#000000" points="431.5,446.6455,434.4389,437.6004,428.5611,437.6004,431.5,446.6455" style="stroke:#000000;stroke-width:1.0;"/><text fill="#000000" font-family="sans-serif" font-size="13" lengthAdjust="spacing" textLength="20.96" x="440.5" y="447.0283">has</text><text fill="#000000" font-family="sans-serif" font-size="13" lengthAdjust="spacing" textLength="7.23" x="419.1488" y="423.8688">1</text><text fill="#000000" font-family="sans-serif" font-size="13" lengthAdjust="spacing" textLength="19.5127" x="406.7571" y="469.6117">0..*</text></g><!--link Product to BOO--><g id="link_Product_BOO"><path codeLine="162" d="M421.32,667.25 C414.27,781.43 399.78,981.64 376.5,1152 C371.69,1187.19 364.21,1226.67 358.19,1256.22 " fill="none" id="Product-BOO" style="stroke:#181818;stroke-width:1.0;"/><polygon fill="#000000" points="408.9671,901.617,412.8533,892.9367,407.0089,892.3102,408.9671,901.617" style="stroke:#000000;stroke-width:1.0;"/><text fill="#000000" font-family="sans-serif" font-size="13" lengthAdjust="spacing" textLength="20.96" x="418.5" y="902.0283">has</text><text fill="#000000" font-family="sans-serif" font-size="13" lengthAdjust="spacing" textLength="7.23" x="413.6852" y="688.7763">1</text><text fill="#000000" font-family="sans-serif" font-size="13" lengthAdjust="spacing" textLength="19.5127" x="339.2672" y="1245.1883">0..*</text></g><!--link Product to Factory_Plant--><g id="link_Product_Factory_Plant"><path codeLine="164" d="M366.31,601.02 C321.74,622.33 261.38,655.66 217.5,697 C202.57,711.07 189.22,728.95 178.33,745.87 " fill="none" id="Product-Factory_Plant" style="stroke:#181818;stroke-width:1.0;"/><polygon fill="#000000" points="218.5394,709.6974,227.498,706.5045,223.9103,701.8485,218.5394,709.6974" style="stroke:#000000;stroke-width:1.0;"/><text fill="#000000" font-family="sans-serif" font-size="13" lengthAdjust="spacing" textLength="80.939" x="231.5" y="712.0283">is produced in</text><text fill="#000000" font-family="sans-serif" font-size="13" lengthAdjust="spacing" textLength="7.23" x="351.1543" y="600.4661">1</text><text fill="#000000" font-family="sans-serif" font-size="13" lengthAdjust="spacing" textLength="7.23" x="174.7081" y="734.6936">1</text></g><!--link Product to Product_Family--><g id="link_Product_Product_Family"><path codeLine="166" d="M366.34,637.79 C351.98,655.74 338.05,676.12 328.5,697 C318.85,718.1 314.09,743.73 311.76,764.22 " fill="none" id="Product-Product_Family" style="stroke:#181818;stroke-width:1.0;"/><polygon fill="#000000" points="331.5183,711.236,337.8015,704.0965,332.405,701.7669,331.5183,711.236" style="stroke:#000000;stroke-width:1.0;"/><text fill="#000000" font-family="sans-serif" font-size="13" lengthAdjust="spacing" textLength="59.9917" x="342.5" y="712.0283">belongs to</text><text fill="#000000" font-family="sans-serif" font-size="13" lengthAdjust="spacing" textLength="7.23" x="351.1882" y="641.9473">1</text><text fill="#000000" font-family="sans-serif" font-size="13" lengthAdjust="spacing" textLength="7.23" x="304.5566" y="753.1319">1</text></g><!--link Factory_Plant to Operation--><g id="link_Factory_Plant_Operation"><path codeLine="168" d="M175,857.01 C192.49,893 215.14,939.6 231.62,973.48 " fill="none" id="Factory_Plant-Operation" style="stroke:#181818;stroke-width:1.0;"/><polygon fill="#000000" points="205.686,901.1423,204.3746,891.7226,199.0883,894.2924,205.686,901.1423" style="stroke:#000000;stroke-width:1.0;"/><text fill="#000000" font-family="sans-serif" font-size="13" lengthAdjust="spacing" textLength="20.96" x="212.5" y="902.0283">has</text><text fill="#000000" font-family="sans-serif" font-size="13" lengthAdjust="spacing" textLength="7.23" x="170.9515" y="879.2515">1</text><text fill="#000000" font-family="sans-serif" font-size="13" lengthAdjust="spacing" textLength="19.5127" x="207.8405" y="962.1451">0..*</text></g><!--link Factory_Plant to Plant_Floor--><g id="link_Factory_Plant_Plant_Floor"><path codeLine="169" d="M134.12,857.01 C123.76,896.25 110.08,948.1 101.04,982.33 " fill="none" id="Factory_Plant-Plant_Floor" style="stroke:#181818;stroke-width:1.0;"/><polygon fill="#000000" points="129.2239,901.4799,134.374,893.4845,128.6908,891.9843,129.2239,901.4799" style="stroke:#000000;stroke-width:1.0;"/><text fill="#000000" font-family="sans-serif" font-size="13" lengthAdjust="spacing" textLength="20.96" x="139.5" y="902.0283">has</text><text fill="#000000" font-family="sans-serif" font-size="13" lengthAdjust="spacing" textLength="7.23" x="124.8337" y="879.2515">1</text><text fill="#000000" font-family="sans-serif" font-size="13" lengthAdjust="spacing" textLength="19.5127" x="82.0787" y="971.2614">0..*</text></g><!--link Operation to BOO--><g id="link_Operation_BOO"><path codeLine="171" d="M268.76,1065.65 C286.49,1118.09 315.56,1204.07 333.27,1256.46 " fill="none" id="Operation-BOO" style="stroke:#181818;stroke-width:1.0;"/><polygon fill="#000000" points="301.1014,1147.3821,300.9886,1137.8722,295.4203,1139.7548,301.1014,1147.3821" style="stroke:#000000;stroke-width:1.0;"/><text fill="#000000" font-family="sans-serif" font-size="13" lengthAdjust="spacing" textLength="59.9917" x="308.5" y="1148.0283">belongs to</text><text fill="#000000" font-family="sans-serif" font-size="13" lengthAdjust="spacing" textLength="7.23" x="263.5647" y="1088.0318">1</text><text fill="#000000" font-family="sans-serif" font-size="13" lengthAdjust="spacing" textLength="19.5127" x="310.5347" y="1245.1221">0..*</text></g><!--link Operation to Operation_Type--><g id="link_Operation_Operation_Type"><path codeLine="172" d="M248.72,1065.61 C235.31,1192.18 197.51,1548.87 185.33,1663.82 " fill="none" id="Operation-Operation_Type" style="stroke:#181818;stroke-width:1.0;"/><polygon fill="#000000" points="212.9731,1467.6177,216.8488,1458.9326,211.0037,1458.3133,212.9731,1467.6177" style="stroke:#000000;stroke-width:1.0;"/><text fill="#000000" font-family="sans-serif" font-size="13" lengthAdjust="spacing" textLength="20.96" x="222.5" y="1468.0283">has</text><text fill="#000000" font-family="sans-serif" font-size="13" lengthAdjust="spacing" textLength="7.23" x="240.4561" y="1087.9857">1</text><text fill="#000000" font-family="sans-serif" font-size="13" lengthAdjust="spacing" textLength="7.23" x="178.3829" y="1652.7497">1</text></g><!--link BOO to Part--><g id="link_BOO_Part"><path codeLine="173" d="M358.1,1348.7 C368.31,1386.42 388.04,1439.14 423.5,1472 C458.64,1504.57 510.94,1521.27 550.97,1529.71 " fill="none" id="BOO-Part" style="stroke:#181818;stroke-width:1.0;"/><polygon fill="#000000" points="432.1459,1466.0672,427.5616,1457.7343,423.5392,1462.0203,432.1459,1466.0672" style="stroke:#000000;stroke-width:1.0;"/><text fill="#000000" font-family="sans-serif" font-size="13" lengthAdjust="spacing" textLength="20.96" x="437.5" y="1468.0283">has</text><text fill="#000000" font-family="sans-serif" font-size="13" lengthAdjust="spacing" textLength="7.23" x="352.0639" y="1371.0895">1</text><text fill="#000000" font-family="sans-serif" font-size="13" lengthAdjust="spacing" textLength="19.5127" x="523.3833" y="1524.4864">0..*</text></g><!--link Part to Stock--><g id="link_Part_Stock"><path codeLine="174" d="M594.07,1576.08 C590.42,1585.73 586.65,1596.2 583.5,1606 C578.44,1621.76 573.59,1639.22 569.53,1654.78 " fill="none" id="Part-Stock" style="stroke:#181818;stroke-width:1.0;"/><polygon fill="#000000" points="587.0116,1620.4188,592.5098,1612.6587,586.8985,1610.9089,587.0116,1620.4188" style="stroke:#000000;stroke-width:1.0;"/><text fill="#000000" font-family="sans-serif" font-size="13" lengthAdjust="spacing" textLength="20.96" x="597.5" y="1621.0283">has</text><text fill="#000000" font-family="sans-serif" font-size="13" lengthAdjust="spacing" textLength="7.23" x="583.966" y="1597.9791">1</text><text fill="#000000" font-family="sans-serif" font-size="13" lengthAdjust="spacing" textLength="19.5127" x="550.7584" y="1643.7571">0..*</text></g><!--link Stock to Reserved_Stock--><g id="link_Stock_Reserved_Stock"><path codeLine="175" d="M565.82,1747.03 C572.98,1791.15 583.92,1858.45 591.59,1905.67 " fill="none" id="Stock-Reserved_Stock" style="stroke:#181818;stroke-width:1.0;"/><polygon fill="#000000" points="587.3017,1840.5808,588.7523,1831.1815,582.9505,1832.124,587.3017,1840.5808" style="stroke:#000000;stroke-width:1.0;"/><text fill="#000000" font-family="sans-serif" font-size="13" lengthAdjust="spacing" textLength="20.96" x="595.5" y="1841.0283">has</text><text fill="#000000" font-family="sans-serif" font-size="13" lengthAdjust="spacing" textLength="7.23" x="559.3872" y="1769.3934">1</text><text fill="#000000" font-family="sans-serif" font-size="13" lengthAdjust="spacing" textLength="19.5127" x="570.3948" y="1894.8694">0..*</text></g><!--link Procurement to Supplier--><g id="link_Procurement_Supplier"><path codeLine="176" d="M588.04,1103.29 C593.59,1157.04 600.55,1224.42 604.75,1265.16 " fill="none" id="Procurement-Supplier" style="stroke:#181818;stroke-width:1.0;"/><polygon fill="#000000" points="597.0134,1147.6191,599.008,1138.32,593.1612,1138.9236,597.0134,1147.6191" style="stroke:#000000;stroke-width:1.0;"/><text fill="#000000" font-family="sans-serif" font-size="13" lengthAdjust="spacing" textLength="20.96" x="605.5" y="1148.0283">has</text><text fill="#000000" font-family="sans-serif" font-size="13" lengthAdjust="spacing" textLength="7.23" x="581.4698" y="1124.9744">1</text><text fill="#000000" font-family="sans-serif" font-size="13" lengthAdjust="spacing" textLength="7.23" x="596.481" y="1254.3463">1</text></g><!--link Procurement to Part--><g id="link_Procurement_Part"><path codeLine="177" d="M531.53,1103.01 C519.64,1127.61 508.56,1155.19 502.5,1182 C478.87,1286.47 463.53,1323.23 502.5,1423 C514.55,1453.86 539.19,1481.42 561.68,1501.82 " fill="none" id="Procurement-Part" style="stroke:#181818;stroke-width:1.0;"/><polygon fill="#000000" points="507.8769,1307.6313,510.1256,1298.3904,504.2645,1298.8335,507.8769,1307.6313" style="stroke:#000000;stroke-width:1.0;"/><text fill="#000000" font-family="sans-serif" font-size="13" lengthAdjust="spacing" textLength="20.96" x="516.5" y="1308.0283">has</text><text fill="#000000" font-family="sans-serif" font-size="13" lengthAdjust="spacing" textLength="7.23" x="520.1197" y="1124.9593">1</text><text fill="#000000" font-family="sans-serif" font-size="13" lengthAdjust="spacing" textLength="19.5127" x="532.6501" y="1490.7497">0..*</text></g><!--link Reserved_Stock to Part--><g id="link_Reserved_Stock_Part"><path codeLine="178" d="M613.09,1905.87 C616.92,1886.73 620.61,1865.02 622.5,1845 C632.48,1739.25 633.58,1711.64 622.5,1606 C621.47,1596.21 619.61,1585.74 617.58,1576.09 " fill="none" id="Reserved_Stock-Part" style="stroke:#181818;stroke-width:1.0;"/><polygon fill="#000000" points="632.5681,1781.646,629.5063,1790.6502,635.3836,1790.7302,632.5681,1781.646" style="stroke:#000000;stroke-width:1.0;"/><text fill="#000000" font-family="sans-serif" font-size="13" lengthAdjust="spacing" textLength="20.96" x="641.5" y="1792.0283">has</text><text fill="#000000" font-family="sans-serif" font-size="13" lengthAdjust="spacing" textLength="7.23" x="607.2875" y="1894.6936">1</text><text fill="#000000" font-family="sans-serif" font-size="13" lengthAdjust="spacing" textLength="7.23" x="611.5168" y="1597.9909">1</text></g><!--link Supplier to Part--><g id="link_Supplier_Part"><path codeLine="179" d="M608.5,1339.63 C608.5,1383.69 608.5,1457.75 608.5,1501.83 " fill="none" id="Supplier-Part" style="stroke:#181818;stroke-width:1.0;"/><polygon fill="#000000" points="613.5,1467.6455,616.4389,1458.6004,610.5611,1458.6004,613.5,1467.6455" style="stroke:#000000;stroke-width:1.0;"/><text fill="#000000" font-family="sans-serif" font-size="13" lengthAdjust="spacing" textLength="20.96" x="622.5" y="1468.0283">has</text><text fill="#000000" font-family="sans-serif" font-size="13" lengthAdjust="spacing" textLength="7.23" x="600.8983" y="1361.2512">1</text><text fill="#000000" font-family="sans-serif" font-size="13" lengthAdjust="spacing" textLength="19.5127" x="587.8099" y="1490.7614">0..*</text></g><!--link Plant_Floor to Workstation--><g id="link_Plant_Floor_Workstation"><path codeLine="181" d="M91.5,1056.66 C91.5,1088.46 91.5,1136.58 91.5,1181.78 " fill="none" id="Plant_Floor-Workstation" style="stroke:#181818;stroke-width:1.0;"/><polygon fill="#000000" points="96.5,1147.6455,99.4389,1138.6004,93.5611,1138.6004,96.5,1147.6455" style="stroke:#000000;stroke-width:1.0;"/><text fill="#000000" font-family="sans-serif" font-size="13" lengthAdjust="spacing" textLength="20.96" x="105.5" y="1148.0283">has</text><text fill="#000000" font-family="sans-serif" font-size="13" lengthAdjust="spacing" textLength="7.23" x="83.9263" y="1078.2862">1</text><text fill="#000000" font-family="sans-serif" font-size="13" lengthAdjust="spacing" textLength="19.5127" x="71.9313" y="1170.929">0..*</text></g><!--link Workstation to Workstation_Type--><g id="link_Workstation_Workstation_Type"><path codeLine="182" d="M95.58,1423.15 C96.56,1451.83 97.53,1480.32 98.26,1501.75 " fill="none" id="Workstation-Workstation_Type" style="stroke:#181818;stroke-width:1.0;"/><polygon fill="#000000" points="102.6704,1467.6426,105.2994,1458.5026,99.4249,1458.7029,102.6704,1467.6426" style="stroke:#000000;stroke-width:1.0;"/><text fill="#000000" font-family="sans-serif" font-size="13" lengthAdjust="spacing" textLength="20.96" x="111.5" y="1468.0283">has</text><text fill="#000000" font-family="sans-serif" font-size="13" lengthAdjust="spacing" textLength="7.23" x="88.6188" y="1445.4468">1</text><text fill="#000000" font-family="sans-serif" font-size="13" lengthAdjust="spacing" textLength="7.23" x="90.4712" y="1490.6672">1</text></g><!--link Workstation_Type to Operation_Type--><g id="link_Workstation_Type_Operation_Type"><path codeLine="183" d="M118.11,1576.31 C131.53,1602.49 149.56,1637.69 162.97,1663.84 " fill="none" id="Workstation_Type-Operation_Type" style="stroke:#181818;stroke-width:1.0;"/><polygon fill="#000000" points="150.7805,1620.0952,149.2705,1610.7052,144.0396,1613.3861,150.7805,1620.0952" style="stroke:#000000;stroke-width:1.0;"/><text fill="#000000" font-family="sans-serif" font-size="13" lengthAdjust="spacing" textLength="20.96" x="157.5" y="1621.0283">has</text><text fill="#000000" font-family="sans-serif" font-size="13" lengthAdjust="spacing" textLength="19.5127" x="100.6939" y="1597.961">0..*</text><text fill="#000000" font-family="sans-serif" font-size="13" lengthAdjust="spacing" textLength="19.5127" x="138.9965" y="1652.7732">0..*</text></g><!--link Internal_Part to Part--><g id="link_Internal_Part_Part"><path codeLine="185" d="M787.33,829.01 C789.29,916.37 789.44,1202.2 717.5,1423 C709.73,1446.85 705.72,1452.87 689.5,1472 C680.47,1482.65 669.54,1492.87 658.68,1501.95 " fill="none" id="Internal_Part-Part" style="stroke:#181818;stroke-width:1.0;"/><polygon fill="#000000" points="778.5611,1147.5566,783.1462,1139.2242,777.3729,1138.1205,778.5611,1147.5566" style="stroke:#000000;stroke-width:1.0;"/><text fill="#000000" font-family="sans-serif" font-size="13" lengthAdjust="spacing" textLength="9.3882" x="788.5" y="1148.0283">is</text><text fill="#000000" font-family="sans-serif" font-size="13" lengthAdjust="spacing" textLength="7.23" x="779.7209" y="851.3713">1</text><text fill="#000000" font-family="sans-serif" font-size="13" lengthAdjust="spacing" textLength="7.23" x="660.2627" y="1490.6195">1</text></g><!--link External_Part to Part--><g id="link_External_Part_Part"><path codeLine="186" d="M631.61,829.09 C660.03,916.12 741.63,1199.68 680.5,1423 C672.6,1451.85 654.82,1480.38 638.91,1501.81 " fill="none" id="External_Part-Part" style="stroke:#181818;stroke-width:1.0;"/><polygon fill="#000000" points="703.5543,1147.6452,706.3949,1138.5688,700.5174,1138.6326,703.5543,1147.6452" style="stroke:#000000;stroke-width:1.0;"/><text fill="#000000" font-family="sans-serif" font-size="13" lengthAdjust="spacing" textLength="9.3882" x="712.5" y="1148.0283">is</text><text fill="#000000" font-family="sans-serif" font-size="13" lengthAdjust="spacing" textLength="7.23" x="625.9547" y="851.4698">1</text><text fill="#000000" font-family="sans-serif" font-size="13" lengthAdjust="spacing" textLength="7.23" x="636.6803" y="1490.7379">1</text></g><!--link Product to External_Part--><g id="link_Product_External_Part"><path codeLine="188" d="M479.2,667.32 C490.56,684.25 503.19,701.22 516.5,716 C536.18,737.86 561.92,758.52 583.1,773.94 " fill="none" id="Product-External_Part" style="stroke:#181818;stroke-width:1.0;"/><polygon fill="#000000" points="524.9896,710.2264,520.7817,701.6974,516.5721,705.7996,524.9896,710.2264" style="stroke:#000000;stroke-width:1.0;"/><text fill="#000000" font-family="sans-serif" font-size="13" lengthAdjust="spacing" textLength="20.96" x="530.5" y="712.0283">has</text><text fill="#000000" font-family="sans-serif" font-size="13" lengthAdjust="spacing" textLength="7.23" x="475.6619" y="688.5322">1</text><text fill="#000000" font-family="sans-serif" font-size="13" lengthAdjust="spacing" textLength="19.5127" x="552.8719" y="762.6351">0..*</text></g><!--link Product to Internal_Part--><g id="link_Product_Internal_Part"><path codeLine="189" d="M486.5,652.65 C492.25,657.89 498.27,662.76 504.5,667 C538.65,690.27 554.98,679.69 592.5,697 C607.52,703.93 609.96,708.12 624.5,716 C651.07,730.39 658.65,732.16 685.5,746 C704.63,755.86 725.59,767.1 743.44,776.8 " fill="none" id="Product-Internal_Part" style="stroke:#181818;stroke-width:1.0;"/><polygon fill="#000000" points="634.002,708.8208,627.1364,702.2394,624.5792,707.5319,634.002,708.8208" style="stroke:#000000;stroke-width:1.0;"/><text fill="#000000" font-family="sans-serif" font-size="13" lengthAdjust="spacing" textLength="20.96" x="638.5" y="712.0283">has</text><text fill="#000000" font-family="sans-serif" font-size="13" lengthAdjust="spacing" textLength="7.23" x="494.6405" y="658.7112">1</text><text fill="#000000" font-family="sans-serif" font-size="13" lengthAdjust="spacing" textLength="19.5127" x="716.0915" y="768.541">0..*</text></g><!--link Intermediate_Product to Internal_Part--><g id="link_Intermediate_Product_Internal_Part"><path codeLine="191" d="M842.91,601.75 C830.59,645.15 806.39,730.4 794.08,773.78 " fill="none" id="Intermediate_Product-Internal_Part" style="stroke:#181818;stroke-width:1.0;"/><polygon fill="#000000" points="818.1347,711.4555,823.4318,703.5566,817.7773,701.9516,818.1347,711.4555" style="stroke:#000000;stroke-width:1.0;"/><text fill="#000000" font-family="sans-serif" font-size="13" lengthAdjust="spacing" textLength="9.3882" x="828.5" y="712.0283">is</text><text fill="#000000" font-family="sans-serif" font-size="13" lengthAdjust="spacing" textLength="7.23" x="833.5251" y="623.7133">1</text><text fill="#000000" font-family="sans-serif" font-size="13" lengthAdjust="spacing" textLength="7.23" x="787.9804" y="762.8905">1</text></g><!--link Raw_Material to External_Part--><g id="link_Raw_Material_External_Part"><path codeLine="192" d="M562.01,601.68 C557.18,630.57 552.6,677.65 564.5,716 C571.14,737.41 585.3,758.22 597.96,773.83 " fill="none" id="Raw_Material-External_Part" style="stroke:#181818;stroke-width:1.0;"/><polygon fill="#000000" points="570.5221,711.5399,571.55,702.0851,565.7962,703.2866,570.5221,711.5399" style="stroke:#000000;stroke-width:1.0;"/><text fill="#000000" font-family="sans-serif" font-size="13" lengthAdjust="spacing" textLength="9.3882" x="578.5" y="712.0283">is</text><text fill="#000000" font-family="sans-serif" font-size="13" lengthAdjust="spacing" textLength="7.23" x="553.1139" y="623.628">1</text><text fill="#000000" font-family="sans-serif" font-size="13" lengthAdjust="spacing" textLength="7.23" x="584.8711" y="762.9515">1</text></g><!--link Component to External_Part--><g id="link_Component_External_Part"><path codeLine="193" d="M700.99,601.55 C694.6,630.33 682.93,677.31 667.5,716 C659.49,736.07 648.01,757.55 638.65,773.83 " fill="none" id="Component-External_Part" style="stroke:#181818;stroke-width:1.0;"/><polygon fill="#000000" points="676.7987,711.3472,682.6399,703.8418,677.1128,701.8418,676.7987,711.3472" style="stroke:#000000;stroke-width:1.0;"/><text fill="#000000" font-family="sans-serif" font-size="13" lengthAdjust="spacing" textLength="9.3882" x="687.5" y="712.0283">is</text><text fill="#000000" font-family="sans-serif" font-size="13" lengthAdjust="spacing" textLength="7.23" x="691.8892" y="623.9205">1</text><text fill="#000000" font-family="sans-serif" font-size="13" lengthAdjust="spacing" textLength="7.23" x="634.462" y="762.9515">1</text></g><!--SRC=[ZLRVRziW47xtNu7oEAdL-jg7IbsIQf6MfLqwxT4Y-DAWs601RfDE-z-7iS47iRlb9TpntSSTzmFh8nSrLRGYbHII7PIiW1ZLGAR3JatPaRx0rfnB80gOeUAbn01ze8Lyu-A5x6cf8KDRhAHQtnkZ-Auni69IRFaxaC_PWHT065VCChbr1UOW2vrbpeJC6ssiBuhypeZzUJ5VBPpyVVNG_TCAtEA-A1HexTPhkUCbvAAfTg2SPbbHNhgLETVWIUQo4KQTM_6FF_THoQ9XfZ-sbxo15yEf3vGPQHaUIoe2QatL4Ko-W8gAmcasjU4LVwU6Iu69h9ZFfJOTLmadRXtdvjnpLxoCdLi90wg2WbC3UU8fLIR2_g1l-ThY5AVb56OkgreA49CaNLmFfPG-4KZZuxsuX60UxVG4erUsfNlemrxkzvnn4AmJjxRw07liKkQhOaWW5brwWicppNYFVqR9Zq6XlZQgk2mwf_I6dR2mL-l41PJy5UofGVDDiY7Jk733QLysc_w8JGtAWTCIyrx2oUGHA904xHJLeC1nBq_0caxByGt4w0jEJ35e5w2PuhMBTYWQMqL9GONrg84hQq7BVCGoW9Qd_m1jcxekUKYW5qEPUJbElhrprYYeK2CCciZzb2SaZRCkzsikyYVHDVJMk8XzMIn5qGc3jqQouyXDERrR_HJSe9O63UeLYXmR1kM8dq-DxJ4_Js8kNsVTb0czwKSEaaPJzakgepQu_9364s1L69bOYQdJlIsOfkvgDDqAof5X5E5GpRQ9UOQgxYVq2GbsvsjJXOrsFHOdxekfKr9zIvI5fsnsCoDNLsJs-VhwqooPBhVaG3MvkmJRlvPfShydwqQVHsN9F8l1VUu3sByaCSeEgKc4_Olc-2tXcjGE10NXOi8cARfRieDIYXTDZ6mjukSYzYRC7E_JHs1K5o64OLnUX9awSWczcQNpqVEsvidXxNposqw8zxlczO1EwX01aZHw84Dp2daMXjv7k17VabE23pS9Bl1_m9NXBuKOXth2e_7qG86atJC2xow_PnwfZiWkYnyMN8XMTZLxbyNloZXceaCYKtJv8z38azY_z7iEkP1OEL-Yxpg4JPnnsE7xxX_0lm00]--></g></svg>